<svg id="Layer_1" data-name="Layer 1" xmlns="http://www.w3.org/2000/svg" xmlns:xlink="http://www.w3.org/1999/xlink" viewBox="0 0 256 256"><defs><style>.cls-1{fill:url(#Yellow_Green);}.cls-2{fill:url(#Yellow_Green-2);}</style><linearGradient id="Yellow_Green" x1="338.82" y1="-18.51" x2="36.09" y2="108.74" gradientUnits="userSpaceOnUse"><stop offset="0" stop-color="#d1e4a5"/><stop offset="0.5" stop-color="#acd479"/><stop offset="1" stop-color="#76b83f"/></linearGradient><linearGradient id="Yellow_Green-2" x1="23.11" y1="27.74" x2="165.1" y2="203.22" xlink:href="#Yellow_Green"/></defs><path class="cls-1" d="M73.66,205.74a11,11,0,0,0,7.8,3.19h.39a11.13,11.13,0,0,0,7.94-3.78L253.25,18.41a11.11,11.11,0,0,0-1-15.66,11.1,11.1,0,0,0-15.66,1L80.84,181.67,22.2,123.92V22.2H191.05a11.1,11.1,0,0,0,0-22.2H11.1A11.11,11.11,0,0,0,0,11.1V128.57a11.21,11.21,0,0,0,3.31,7.91Z"/><path class="cls-2" d="M244.9,58.75a11.11,11.11,0,0,0-11.1,11.1v164H22.2V184.38a11.1,11.1,0,0,0-22.2,0V244.9A11.11,11.11,0,0,0,11.1,256H244.9A11.11,11.11,0,0,0,256,244.9v-175A11.11,11.11,0,0,0,244.9,58.75Z"/></svg>