<svg id="Layer_1" data-name="Layer 1" xmlns="http://www.w3.org/2000/svg" viewBox="0 0 221.8 190.88"><defs><style>.cls-1{fill:#fff;}</style></defs><rect class="cls-1" x="24" y="4.73" width="172.38" height="108.32" rx="23.41"/><path d="M115.31,28.42a6.7,6.7,0,0,0-2.25-5c-.18-.16-10.45-9.32-10.61-9.45a6.7,6.7,0,0,0-10.47,8,27,27,0,0,0,3.25,53.87,6.7,6.7,0,1,0,0-13.4,13.63,13.63,0,0,1-3.08-26.9A6.69,6.69,0,0,0,98,45.42h0a6.65,6.65,0,0,0,4.44-1.68c.25-.22.72-.68,5.54-5.38l5.15-5a6.73,6.73,0,0,0,2.17-4.94Zm0,0"/><path d="M155.59,66a27.07,27.07,0,0,0-27-27,6.71,6.71,0,1,0,0,13.41,13.63,13.63,0,0,1,3.08,26.9A6.7,6.7,0,0,0,121.33,71c-.25.22-.72.67-5.54,5.37-1.91,1.86-4.78,4.66-5.15,5a6.71,6.71,0,0,0,.09,10l10.6,9.44a6.7,6.7,0,0,0,10.47-7.95A27.08,27.08,0,0,0,155.59,66Zm0,0"/></svg>