<svg id="Layer_1" data-name="Layer 1" xmlns="http://www.w3.org/2000/svg" viewBox="0 0 350 350"><defs><style>.cls-1{fill:#f33;}</style></defs><rect class="cls-1" x="9.96" y="9.96" width="330.07" height="330.07" rx="49.18"/><path d="M198.22,139.44l37.18-37.18a13.39,13.39,0,0,0,0-18.94l-.93-.93a13.39,13.39,0,0,0-18.94,0l-37.17,37.18a4.76,4.76,0,0,1-6.72,0L134.47,82.39a13.39,13.39,0,0,0-18.94,0l-.93.93a13.39,13.39,0,0,0,0,18.94l37.18,37.18a4.75,4.75,0,0,1,0,6.71L114.6,183.32a13.39,13.39,0,0,0,0,18.94l.93.93a13.39,13.39,0,0,0,18.94,0L171.64,166a4.74,4.74,0,0,1,6.72,0l37.17,37.17a13.39,13.39,0,0,0,18.94,0l.93-.93a13.39,13.39,0,0,0,0-18.94l-37.18-37.17A4.75,4.75,0,0,1,198.22,139.44Z"/></svg>