<svg id="Layer_1" height="512" viewBox="0 0 512 512" width="512" xmlns="http://www.w3.org/2000/svg" data-name="Layer 1"><path d="m271 41.222q-7.406-.69-15-.7c-84.4 0-153.09 65.54-153.09 146.35 0 65.69 51.21 126.12 94.39 165.41 31.48 28.64 58.7 46.04 58.7 46.04s5.746-3.678 15-10.417a526.064 526.064 0 0 1 -43.7-35.623c-43.18-39.29-94.39-99.72-94.39-165.41 0-75.966 60.701-138.431 138.09-145.65z" fill="#d4e1f4"/><g fill="#0635c9"><path d="m256 106.243a78.852 78.852 0 1 0 78.852 78.857 78.941 78.941 0 0 0 -78.852-78.857zm0 145.7a66.852 66.852 0 1 1 66.852-66.843 66.927 66.927 0 0 1 -66.852 66.846z"/><path d="m214.3 84.059-3.975-11.323a135.878 135.878 0 0 0 -18.337 8l5.6 10.614a123.488 123.488 0 0 1 16.712-7.291z"/><path d="m177.252 89.77c-33.971 23.966-54.252 62.339-54.252 102.648h12c0-36.418 18.381-71.118 49.17-92.844z"/></g><path d="m443.509 367.817c-32.468-10.582-78.07-18.229-128.405-21.533l-.786 11.975c49.367 3.239 93.927 10.686 125.472 20.968 29 9.45 46.306 21.3 46.306 31.707 0 15.059-33.391 28.988-64.641 37-44.121 11.318-102.88 17.549-165.455 17.549s-121.334-6.231-165.455-17.546c-31.25-8.015-64.641-21.944-64.641-37 0-10.413 17.336-22.275 46.375-31.73 31.592-10.286 76.208-17.73 125.63-20.96l-.783-11.974c-50.39 3.292-96.048 10.937-128.562 21.524-36.27 11.803-54.664 26.32-54.664 43.137 0 43.225 124.734 66.549 242.1 66.549s242.1-23.324 242.1-66.549c0-16.805-18.37-31.311-54.591-43.117z" fill="#1ae5be"/><path d="m256 34.517c-87.722 0-159.089 68.345-159.089 152.354 0 26.964 8.314 55.2 24.709 83.932 12.958 22.7 30.982 45.787 53.571 68.609a501.571 501.571 0 0 0 77.577 63.967 6 6 0 0 0 6.464 0 501.571 501.571 0 0 0 77.577-63.967c22.589-22.822 40.613-45.9 53.571-68.609 16.395-28.73 24.709-56.968 24.709-83.932 0-84.009-71.367-152.354-159.089-152.354zm72.445 296.283a508.712 508.712 0 0 1 -72.445 60.321 507.9 507.9 0 0 1 -72.28-60.151c-34.128-34.478-74.809-87.465-74.809-144.1 0-77.391 65.989-140.353 147.089-140.353s147.089 62.962 147.089 140.354c0 56.567-40.589 109.493-74.644 143.929z" fill="#0635c9"/></svg>