<svg id="Layer_1" data-name="Layer 1" xmlns="http://www.w3.org/2000/svg" viewBox="0 0 350 350"><defs><style>.cls-1{fill:#fff;}</style></defs><path class="cls-1" d="M284.56,121.52,258.83,95.79a7.67,7.67,0,0,0-9.72-1.08,7.39,7.39,0,0,0-1,11.35l12.16,12.11a.92.92,0,0,1-.65,1.57h-35.4a7.68,7.68,0,0,0-7.7,6.4,7.48,7.48,0,0,0,7.39,8.53h37.62a.92.92,0,0,1,.7,1.52l-14.5,16.75a7.54,7.54,0,0,0,.75,10.54,7.41,7.41,0,0,0,4.9,1.85l.51,0a7.37,7.37,0,0,0,5.12-2.54l25.94-29.88a7.44,7.44,0,0,0-.35-11.37Z"/><path class="cls-1" d="M233,76a8.41,8.41,0,0,0,8.39-8.39V44.81a28.18,28.18,0,0,0-28-28h-87.7a27.89,27.89,0,0,0-27.78,28v169A28.31,28.31,0,0,0,108,235.57a33.68,33.68,0,0,0,17.69,10.71l60,14.18a16.06,16.06,0,0,0,19.75-15.63V242h7.87a28.16,28.16,0,0,0,28-28.2V190.5a8.39,8.39,0,0,0-16.77,0v23.28a11.52,11.52,0,0,1-11.28,11.44h-7.87V56.32A16.06,16.06,0,0,0,193.1,40.69l-30.25-7.14h50.48a11.36,11.36,0,0,1,11.29,11.27v22.8A8.4,8.4,0,0,0,233,76Z"/></svg>