<?xml version="1.0"?>
<svg xmlns="http://www.w3.org/2000/svg" xmlns:xlink="http://www.w3.org/1999/xlink" xmlns:svgjs="http://svgjs.com/svgjs" version="1.1" width="512" height="512" x="0" y="0" viewBox="0 0 512 512" style="enable-background:new 0 0 512 512" xml:space="preserve" class=""><g>
<path xmlns="http://www.w3.org/2000/svg" style="" d="M376.36,512H135.64c-8.632-0.04-15.616-7.04-15.64-15.672V15.672C120.024,7.04,127.008,0.04,135.64,0  h240.72c8.632,0.04,15.616,7.04,15.64,15.672v480.656C391.976,504.96,384.992,511.96,376.36,512z" fill="#afb1af" data-original="#e21b1b" class=""/>
<rect xmlns="http://www.w3.org/2000/svg" x="133.928" y="42.144" width="244.152" height="414.168" fill="#000000" data-original="#000000" style="" class=""/>
<circle xmlns="http://www.w3.org/2000/svg" cx="268.6" cy="13.536" r="4.128" fill="#000000" data-original="#000000" style="" class=""/>
<path xmlns="http://www.w3.org/2000/svg" d="M294.896,32.64h-52.592c-1.712-0.008-3.088-1.384-3.096-3.096v-2.056c0.008-1.712,1.384-3.088,3.096-3.096h52.592  c1.712,0.008,3.088,1.384,3.096,3.096v2.064C297.976,31.256,296.6,32.632,294.896,32.64z" fill="#000000" data-original="#000000" style="" class=""/>
<circle xmlns="http://www.w3.org/2000/svg" cx="226.8" cy="28.52" r="4.128" fill="#000000" data-original="#000000" style="" class=""/>
<g xmlns="http://www.w3.org/2000/svg" style="opacity:0.15;">
	<polygon style="" points="133.928,215.32 133.928,42.144 339.68,42.144  " fill="#ffffff" data-original="#ffffff" class=""/>
</g>
<circle xmlns="http://www.w3.org/2000/svg" cx="256" cy="484.16" r="20.464" fill="#000000" data-original="#000000" style="" class=""/>
<path xmlns="http://www.w3.org/2000/svg" style="" d="M256,493.904c-5.392,0-9.76-4.368-9.76-9.76s4.368-9.76,9.76-9.76s9.76,4.368,9.76,9.76  C265.752,489.536,261.392,493.896,256,493.904z M256,477.056c-3.912,0.008-7.088,3.184-7.08,7.096s3.184,7.088,7.096,7.08  s7.088-3.184,7.08-7.096S259.912,477.048,256,477.056L256,477.056z" fill="#ffffff" data-original="#ffffff" class=""/>
<g xmlns="http://www.w3.org/2000/svg">
</g>
<g xmlns="http://www.w3.org/2000/svg">
</g>
<g xmlns="http://www.w3.org/2000/svg">
</g>
<g xmlns="http://www.w3.org/2000/svg">
</g>
<g xmlns="http://www.w3.org/2000/svg">
</g>
<g xmlns="http://www.w3.org/2000/svg">
</g>
<g xmlns="http://www.w3.org/2000/svg">
</g>
<g xmlns="http://www.w3.org/2000/svg">
</g>
<g xmlns="http://www.w3.org/2000/svg">
</g>
<g xmlns="http://www.w3.org/2000/svg">
</g>
<g xmlns="http://www.w3.org/2000/svg">
</g>
<g xmlns="http://www.w3.org/2000/svg">
</g>
<g xmlns="http://www.w3.org/2000/svg">
</g>
<g xmlns="http://www.w3.org/2000/svg">
</g>
<g xmlns="http://www.w3.org/2000/svg">
</g>
</g></svg>
