<svg id="Layer_1" data-name="Layer 1" xmlns="http://www.w3.org/2000/svg" viewBox="0 0 461.8 599.21"><defs><style>.cls-1{fill:#f93;opacity:0.5;}.cls-2{fill:#1e1c1c;}</style></defs><rect class="cls-1" x="17.2" y="24.74" width="427.39" height="549.74" rx="59.92"/><path class="cls-2" d="M135.47,379.89c6.8,0,12.36,4.72,12.36,11.52s-5.56,11.45-12.36,11.45-12.36-4.65-12.36-11.45S128.75,379.89,135.47,379.89ZM124.6,413.23h21.82v88H124.6Z"/><path class="cls-2" d="M215.4,388c24.3,0,38.24,16.51,38.24,37.74,0,21.56-14.1,37.48-38.48,37.48H192.52v38h-22.4V388Zm-23,57.64h13.44c15.59,0,25-4.56,25-19.9,0-12.69-7.38-19.91-19.74-19.91H192.43Z"/><path class="cls-2" d="M341.44,388v18.66l-45.86,94.54H272l47.44-94.37v-.58h-56V388Z"/><path class="cls-2" d="M274.34,308.81H187.46a34.78,34.78,0,0,1-34.74-34.74v-164a34.77,34.77,0,0,1,34.74-34.74h86.88a34.77,34.77,0,0,1,34.74,34.74v164A34.78,34.78,0,0,1,274.34,308.81ZM187.46,91a19.08,19.08,0,0,0-19.06,19.06v164a19.08,19.08,0,0,0,19.06,19.05h86.88a19.08,19.08,0,0,0,19.06-19.05v-164A19.08,19.08,0,0,0,274.34,91Z"/><path class="cls-2" d="M260.78,274.84H201a2.62,2.62,0,1,1,0-5.23h59.76a2.62,2.62,0,0,1,0,5.23Z"/><circle class="cls-2" cx="231.56" cy="103.28" r="3.66"/></svg>