<svg id="Layer_1" data-name="Layer 1" xmlns="http://www.w3.org/2000/svg" viewBox="0 0 461.8 599.21"><defs><style>.cls-1{fill:#f93;opacity:0.5;}.cls-2{fill:#1e1c1c;}</style></defs><rect class="cls-1" x="17.2" y="24.74" width="427.39" height="549.74" rx="59.92"/><path class="cls-2" d="M82.12,379.89c6.8,0,12.36,4.72,12.36,11.52s-5.56,11.45-12.36,11.45-12.36-4.65-12.36-11.45S75.4,379.89,82.12,379.89ZM71.26,413.23h21.8v88H71.26Z"/><path class="cls-2" d="M162.06,388c24.3,0,38.23,16.51,38.23,37.74,0,21.56-14.1,37.48-38.48,37.48H139.17v38H116.78V388Zm-23,57.64h13.44c15.59,0,25-4.56,25-19.9,0-12.69-7.38-19.91-19.74-19.91H139.08Z"/><path class="cls-2" d="M267,444.82l35.5,56.4H276.81l-24.13-40.06h-1l-24.05,40.06H203.25l35.08-57.06L203.5,388H230l23.47,40.72h1.08L277.72,388H303Z"/><path class="cls-2" d="M328.7,469c.75,8.79,8.63,16.58,23.47,16.58,13.77,0,21.31-6.3,21.31-15.67,0-8-5.72-12-17.41-14.68l-17.5-4.06c-15.5-3.48-28.69-12.28-28.69-31.27,0-22.06,18.91-34.25,42.21-34.25,24.3,0,41.71,13.27,42.05,33.59H373.07c-.75-8.46-7.46-16-21.06-16-12,0-19.74,5.72-19.74,14.93,0,6.8,5.31,11.45,15.51,13.69L365.36,436c16.75,3.65,30.43,11.69,30.43,31.93,0,22.22-17.58,35.49-44.86,35.49-32.84,0-43.54-18.57-43.87-34.33Z"/><path class="cls-2" d="M274.34,308.81H187.46a34.78,34.78,0,0,1-34.74-34.74v-164a34.77,34.77,0,0,1,34.74-34.74h86.88a34.77,34.77,0,0,1,34.74,34.74v164A34.78,34.78,0,0,1,274.34,308.81ZM187.46,91a19.08,19.08,0,0,0-19.06,19.06v164a19.08,19.08,0,0,0,19.06,19.05h86.88a19.08,19.08,0,0,0,19.06-19.05v-164A19.08,19.08,0,0,0,274.34,91Z"/><path class="cls-2" d="M260.78,274.84H201a2.62,2.62,0,1,1,0-5.23h59.76a2.62,2.62,0,0,1,0,5.23Z"/><circle class="cls-2" cx="231.56" cy="103.28" r="3.66"/></svg>