<svg id="Layer_1" data-name="Layer 1" xmlns="http://www.w3.org/2000/svg" viewBox="0 0 461.8 599.21"><defs><style>.cls-1{fill:#3cf;opacity:0.5;}.cls-2{fill:#1e1c1c;}</style></defs><rect class="cls-1" x="17.05" y="24.54" width="427.69" height="550.13" rx="49.76"/><path class="cls-2" d="M198,181.91c2.94,1,5.63,2,8.32,2.93a15,15,0,0,1,3.09,1.16c4.11,2.57,7.56.14,11.09-1.42.69-.3,1.15-1.34,1.53-2.13q2.85-5.87,5.59-11.8a2.56,2.56,0,0,1,2.66-1.74c4.87.08,9.75.09,14.62,0a2.54,2.54,0,0,1,2.65,1.75c1.88,4.06,3.75,8.14,5.79,12.12a7.17,7.17,0,0,0,2.57,2.4c3.76,2.41,7.53,2.19,11.49.23,2.54-1.25,5.38-1.91,8-2.94a2.92,2.92,0,0,1,3.63.72q4.92,5.15,10.06,10.06a2.7,2.7,0,0,1,.69,3.3c-1.46,4-2.8,8-4.29,11.91a6.83,6.83,0,0,0,.08,4.63c1.14,4,3.64,6.25,7.43,7.65a71.33,71.33,0,0,1,8.77,4.22,2.82,2.82,0,0,1,1.34,2q.09,8-.17,16c0,.59-.88,1.36-1.54,1.69-4,2-8.06,3.81-12,5.84a6.34,6.34,0,0,0-2.29,2.39,10.87,10.87,0,0,0-.46,11.35c1.37,2.7,2.07,5.74,3.15,8.59a2.83,2.83,0,0,1-.8,3.45c-3.42,3.28-6.76,6.65-10.06,10.05a2.56,2.56,0,0,1-3.24.67c-4.29-1.65-8.65-3.15-13-4.61a5.89,5.89,0,0,0-2.6.08c-.55.09-1.05.56-1.6.67-3.74.76-5.5,3.39-6.81,6.69-1.21,3.08-2.84,6-4.19,9a2.56,2.56,0,0,1-2.75,1.63c-4.8-.05-9.61-.07-14.42,0a2.59,2.59,0,0,1-2.7-1.71c-1.81-4-3.74-7.86-5.56-11.81a6.33,6.33,0,0,0-2.92-2.86c-3.94-2.33-7.62-1.89-11.56,0a70,70,0,0,1-8.79,3.13,2.4,2.4,0,0,1-2-.44c-3.78-3.65-7.51-7.37-11.15-11.16a2.58,2.58,0,0,1-.33-2.2q2.08-6.39,4.43-12.69a6.47,6.47,0,0,0-.05-4.1c-1.13-4.46-4.07-6.73-8.16-8.21-2.78-1-5.36-2.56-8.06-3.78a2.32,2.32,0,0,1-1.52-2.42q.08-7.41,0-14.83a2.4,2.4,0,0,1,1.61-2.54c4.12-1.9,8.24-3.83,12.27-5.91a7,7,0,0,0,2.26-2.42c2.73-4,2-8,.13-12.08a68.85,68.85,0,0,1-3-8.46,2.6,2.6,0,0,1,.46-2.18c3.56-3.7,7.21-7.31,10.86-10.92A6.87,6.87,0,0,1,198,181.91Zm39.68,76c12.49-.14,24.33-9.86,23.12-25.66-.78-10.28-9-20.7-23.3-20.82a23.24,23.24,0,0,0,.18,46.48Z"/><path class="cls-2" d="M311.46,299.64c-6.32,15.11-12.5,29.88-18.84,45a18.8,18.8,0,0,1-1.28-1.64c-1.74-2.89-3.5-5.78-5.17-8.71-.65-1.15-1.18-1.54-2.58-.9-18.56,8.5-38,12-58.3,9.38-35.61-4.58-63.07-22.15-82-52.79-.23-.37-.41-.79-.73-1.44l5.9-3.42c3.93-2.28,7.89-4.51,11.78-6.87,1.38-.84,2.1-.83,3,.69a87,87,0,0,0,91.84,39.94c5.49-1.17,10.81-3.17,16.17-4.92,2.3-.74,2.29-1,1-3.17-1.12-1.9-2.25-3.8-3.37-5.71-1.25-2.13-1.13-2.35,1.42-2.55,3.11-.24,6.22-.45,9.33-.68l30.12-2.3C310.13,299.54,310.51,299.6,311.46,299.64Z"/><path class="cls-2" d="M282.54,173.28l-24.89-36.41,48.74-6.22c-.43.92-.63,1.43-.9,1.91q-2.28,4.08-4.59,8.15c-1.31,2.33-1.32,2.33.81,3.86a109.81,109.81,0,0,1,45.62,84.12c.28,5.84-.45,11.75-.82,17.62-.88,14.35-5.68,27.51-12.27,40.11-1.33,2.54-1.36,2.53-3.88,1.07-5.17-3-10.32-6-15.52-8.95-1.28-.72-1.6-1.28-.82-2.69a79.23,79.23,0,0,0,9.45-27.29c.77-5.44,1.7-11,1.45-16.41-.84-17.61-5.81-34-16.12-48.52a90,90,0,0,0-18.6-19.29c-1.33-1-2.08-1.11-2.92.57C285.91,167.61,284.3,170.19,282.54,173.28Z"/><path class="cls-2" d="M162,225.82,143.72,265c-10.37-13-19.73-26.06-29.32-39,3.72,0,7.45-.07,11.18,0,1.91.05,2.69-.77,2.89-2.58A92.79,92.79,0,0,1,130,211.9,134.88,134.88,0,0,1,135.29,194c11.32-28.57,31.24-49,59.32-61.35a108.18,108.18,0,0,1,41.07-8.84c1.48,0,1.92.48,1.91,1.9-.05,6.24-.08,12.49,0,18.73,0,1.74-.59,2.22-2.24,2.26a83.38,83.38,0,0,0-42,12.08c-20.36,12.32-33.82,30-40,53.07-.95,3.55-1.84,7.14-2.52,10.75-.53,2.76,0,3.22,2.77,3.23Z"/></svg>