<svg id="Layer_1" data-name="Layer 1" xmlns="http://www.w3.org/2000/svg" viewBox="0 0 350 350"><defs><style>.cls-1{fill:#9c3;}</style></defs><rect class="cls-1" x="9.96" y="9.96" width="330.07" height="330.07" rx="49.18"/><path d="M262.89,81.17h0a14.05,14.05,0,0,0-19.87,0L153,171.22,104.72,122.8c-3.29-3.18-7.57-5.69-12.67-5.06a14.19,14.19,0,0,0-12.18,12,13.43,13.43,0,0,0,.61,5.92,17.52,17.52,0,0,0,4.33,6.93l54.31,54.55a.81.81,0,0,0,.09.1l7.64,7.64a8.67,8.67,0,0,0,12.24,0l7.64-7.64a.81.81,0,0,0,.09-.1l96.23-96.23A14.08,14.08,0,0,0,262.89,81.17Z"/></svg>