<svg id="Layer_1" data-name="Layer 1" xmlns="http://www.w3.org/2000/svg" viewBox="0 0 221.8 190.88"><defs><style>.cls-1{fill:#fff;}</style></defs><rect class="cls-1" x="24.71" y="4.73" width="172.38" height="108.32" rx="23.41"/><path d="M155.93,50.42a11.91,11.91,0,0,0-8.48-3.51H103.28l5.39-5.4A11.88,11.88,0,0,0,112.19,33a12,12,0,0,0-20.46-8.47L65.89,50.4a11.88,11.88,0,0,0-3.28,6.08,12.17,12.17,0,0,0-.25,2.41,11.91,11.91,0,0,0,3.53,8.49L91.73,93.22a11.87,11.87,0,0,0,8.48,3.51,12,12,0,0,0,8.47-20.45l-5.4-5.4h44.18a12,12,0,0,0,8.47-20.46Z"/></svg>