<svg id="Layer_1" data-name="Layer 1" xmlns="http://www.w3.org/2000/svg" viewBox="0 0 436.85 119.66"><defs><style>.cls-1{fill:#f33;}</style></defs><rect class="cls-1" x="5.36" y="9.13" width="426.13" height="101.4" rx="21.01"/><g id="K49nk8.tif"><path d="M188.61,82.62c-.23.64-.43,1.29-.68,1.91a16.23,16.23,0,0,1-15.44,10.12,16,16,0,0,1-15.08-11.5c-1.61-5.93-.51-11.34,3.83-15.88a15.53,15.53,0,0,1,13.36-4.92,16.23,16.23,0,0,1,13.92,11.72,2,2,0,0,0,.09.22Zm-15.73,7.49a11.64,11.64,0,1,0-11.62-11.7A11.62,11.62,0,0,0,172.88,90.11Z"/><path d="M149.65,48.22h-25c-.67,0-.62-.1-.61.6,0,5.28,0,10.56,0,15.85,0,4.83,0,9.66,0,14.5a2.58,2.58,0,0,0,.32,1.27A5.92,5.92,0,0,0,127.21,83a1.16,1.16,0,0,0,.52.06q13.29,0,26.59.06c.41,0,.59.1.7.51a19.28,19.28,0,0,0,1.49,3.75c.21.41.2.42-.24.42L140,87.72c-3.46,0-6.91,0-10.37-.07a11.06,11.06,0,0,1-3.49-.29,9.66,9.66,0,0,1-6.09-5.69,1.13,1.13,0,0,1-.08-.48q0-22.5,0-45a3.16,3.16,0,0,1,.62-1.62,9.59,9.59,0,0,1,6.16-4.67c.51-.11,1-.13,1.54-.23.29-.05.34.06.36.32.09,1.42.06,2.85.05,4.28a4.38,4.38,0,0,0,1.53,3.48A4.68,4.68,0,0,0,137.74,36a3.76,3.76,0,0,0,.21-1.45c0-1.51.06-3,.07-4.53,0-.31.1-.39.4-.39q3.11,0,6.21,0c.29,0,.36.09.36.37,0,1.51.1,3,.07,4.53a4.42,4.42,0,0,0,3.84,4.33,4.66,4.66,0,0,0,5-2.51,3.11,3.11,0,0,0,.35-1.49c0-1.61.07-3.21.09-4.82,0-.32.08-.42.41-.42,2,0,4.11,0,6.16,0,.34,0,.41.12.41.43,0,1.51,0,3,0,4.53a4.52,4.52,0,0,0,4,4.32,4.6,4.6,0,0,0,5.21-3.71,18.19,18.19,0,0,0,.06-2.45c0-.93,0-1.85,0-2.78,0-.2,0-.32.29-.3a9.56,9.56,0,0,1,7.26,4,8,8,0,0,1,1.6,4.54c.14,4.55.1,9.1.13,13.64,0,3,0,5.91.05,8.87,0,.36-.07.43-.43.31a20.34,20.34,0,0,0-3.83-1c-.33,0-.42-.17-.42-.49,0-3,0-6.07,0-9.11,0-.56,0-1.12,0-1.67s-.08-.53-.51-.53c-3.91,0-7.82,0-11.73,0Z"/><path d="M149.6,71.6c.87,0,1.74,0,2.61,0a2,2,0,0,1,1.94,1.85,13.17,13.17,0,0,1,0,3,2,2,0,0,1-2,1.89c-1.68.07-3.37.07-5.06,0a2,2,0,0,1-2-1.83,12.48,12.48,0,0,1-.06-2.93,2.3,2.3,0,0,1,2.16-2c.78,0,1.57,0,2.36,0Z"/><path d="M135.68,78.37a20.22,20.22,0,0,1-2.81-.06,1.86,1.86,0,0,1-1.59-1.41,8.62,8.62,0,0,1-.09-3.61,2.21,2.21,0,0,1,2-1.71c1.62-.08,3.24-.07,4.85,0a2.07,2.07,0,0,1,2.18,2.2c0,.8,0,1.6,0,2.4a2.08,2.08,0,0,1-2.2,2.18C137.25,78.39,136.46,78.37,135.68,78.37Z"/><path d="M149.59,62.29c.87,0,1.74,0,2.61,0a1.94,1.94,0,0,1,2,1.87,12.71,12.71,0,0,1,0,3A2,2,0,0,1,152.22,69c-1.71.08-3.42.08-5.14,0a2,2,0,0,1-1.94-1.81,12.49,12.49,0,0,1-.06-2.93,2.28,2.28,0,0,1,2.15-2c.78,0,1.57,0,2.36,0Z"/><path d="M135.67,62.28c.83,0,1.66,0,2.49,0a2,2,0,0,1,2.05,1.87,11.79,11.79,0,0,1,0,3.14,2,2,0,0,1-1.95,1.75c-1.68.07-3.37.06-5.06,0a2,2,0,0,1-2-1.73,9.85,9.85,0,0,1,0-3.25,2.2,2.2,0,0,1,2.05-1.79c.82,0,1.63,0,2.45,0Z"/><path d="M163.59,59.75c-.78,0-1.55,0-2.33,0a2.11,2.11,0,0,1-2.21-2,13,13,0,0,1,0-2.65A2.28,2.28,0,0,1,161.2,53c1.57-.07,3.15-.06,4.73,0a2.07,2.07,0,0,1,2.22,2.19,16.1,16.1,0,0,1,0,2.69,2,2,0,0,1-2.05,1.89C165.25,59.77,164.42,59.75,163.59,59.75Z"/><path d="M135.71,59.75c-.8,0-1.61,0-2.41,0a2.06,2.06,0,0,1-2.13-1.9,11.49,11.49,0,0,1,0-2.81A2.23,2.23,0,0,1,133.31,53c1.54-.07,3.07,0,4.61,0a2.6,2.6,0,0,1,1.07.19,1.94,1.94,0,0,1,1.2,1.58,12.85,12.85,0,0,1,0,3.22,1.94,1.94,0,0,1-2,1.78c-.83,0-1.66,0-2.49,0Z"/><path d="M149.64,59.75c-.79,0-1.58,0-2.37,0a2.05,2.05,0,0,1-2.14-1.92,13.19,13.19,0,0,1-.06-2.81A2.34,2.34,0,0,1,147.2,53c1.6,0,3.21-.06,4.81,0a2,2,0,0,1,2.17,2.07,12.94,12.94,0,0,1,0,2.85,2,2,0,0,1-2,1.84c-.83,0-1.66,0-2.49,0Z"/><path d="M168.15,30.79V34.3a2,2,0,0,1-1.29,2,2.28,2.28,0,0,1-2.48-.35,1.75,1.75,0,0,1-.62-1.28,25.66,25.66,0,0,1-.11-2.77c-.05-1.54-.05-3.07,0-4.61a2.41,2.41,0,0,1,1.62-2.18,2.34,2.34,0,0,1,2.9,2.13A26.27,26.27,0,0,1,168.15,30.79Z"/><path d="M151.92,30.89c0,1.18,0,2.37-.06,3.55a2.06,2.06,0,0,1-1.52,2,2.35,2.35,0,0,1-2.46-.64,1.93,1.93,0,0,1-.39-1.06,35.59,35.59,0,0,1-.14-3.58c0-1.28,0-2.56.06-3.83A2.37,2.37,0,0,1,149.63,25a2.46,2.46,0,0,1,2.29,2.26C152,28.47,151.92,29.68,151.92,30.89Z"/><path d="M135.59,30.79c0,1.15,0,2.31,0,3.47a2,2,0,0,1-1.32,2.05,2.28,2.28,0,0,1-2.51-.41,1.44,1.44,0,0,1-.49-.88,6.68,6.68,0,0,1-.14-1.33c-.06-2.21-.12-4.42,0-6.62a2.24,2.24,0,0,1,1.89-2,2.22,2.22,0,0,1,2.53,2c0,.63,0,1.25,0,1.88s0,1.22,0,1.84Z"/><path d="M176.34,80.73c-1.2,0-2.4,0-3.59-.06a1.94,1.94,0,0,1-2-1.93,65.85,65.85,0,0,1-.07-7.3,2.25,2.25,0,0,1,3.88-1.5,1.79,1.79,0,0,1,.58,1.31c0,1.47.1,2.94.12,4.41,0,.36.1.46.46.46,1.43,0,2.85.07,4.28.13a2.12,2.12,0,0,1,2.07,1.65A2.3,2.3,0,0,1,181,80.43a2,2,0,0,1-.89.24C178.85,80.76,177.59,80.71,176.34,80.73Z"/></g></svg>