<svg id="Layer_1" data-name="Layer 1" xmlns="http://www.w3.org/2000/svg" viewBox="0 0 436.85 119.66"><defs><style>.cls-1{fill:#f93;}</style></defs><rect class="cls-1" x="5.01" y="9.05" width="426.83" height="101.57" rx="21.04"/><path d="M143.68,99.38H115.11A11.45,11.45,0,0,1,103.68,88V34A11.44,11.44,0,0,1,115.11,22.6h28.57A11.43,11.43,0,0,1,155.1,34V88A11.44,11.44,0,0,1,143.68,99.38ZM115.11,27.75A6.28,6.28,0,0,0,108.84,34V88a6.27,6.27,0,0,0,6.27,6.27h28.57A6.28,6.28,0,0,0,150,88V34a6.29,6.29,0,0,0-6.27-6.27Z"/><path d="M139.22,88.21H119.57a.86.86,0,0,1,0-1.72h19.65a.86.86,0,0,1,0,1.72Z"/><circle cx="129.61" cy="31.79" r="1.2"/></svg>