<svg id="Layer_1" data-name="Layer 1" xmlns="http://www.w3.org/2000/svg" viewBox="0 0 350 350"><defs><style>.cls-1{fill:#fff;}</style></defs><path class="cls-1" d="M263.64,123.15l-24.8-24.81a7.38,7.38,0,0,0-9.37-1,7.11,7.11,0,0,0-1,10.93l11.73,11.68a.89.89,0,0,1-.63,1.52H205.43A7.4,7.4,0,0,0,198,127.6a7.2,7.2,0,0,0,7.12,8.23H241.4a.89.89,0,0,1,.68,1.47l-14,16.15a7.27,7.27,0,0,0,.72,10.16,7.11,7.11,0,0,0,4.72,1.78l.5,0a7.12,7.12,0,0,0,4.93-2.45l25-28.81a7.17,7.17,0,0,0-.34-11Z"/><path class="cls-1" d="M213.93,79.27A8.09,8.09,0,0,0,222,71.19v-22a27.17,27.17,0,0,0-27-27H110.43a26.89,26.89,0,0,0-26.79,27V212.11a27.29,27.29,0,0,0,9.8,21,32.41,32.41,0,0,0,17,10.33l57.86,13.66a15.47,15.47,0,0,0,19-15.06V239.3H195a27.15,27.15,0,0,0,27-27.19V189.66a8.09,8.09,0,0,0-16.17,0v22.45a11.09,11.09,0,0,1-10.87,11h-7.59V60.29a15.49,15.49,0,0,0-11.92-15.07l-29.16-6.88H195a10.94,10.94,0,0,1,10.88,10.87v22A8.09,8.09,0,0,0,213.93,79.27Z"/></svg>