<svg id="Layer_1" data-name="Layer 1" xmlns="http://www.w3.org/2000/svg" viewBox="0 0 431.4 68.43"><defs><style>.cls-1{fill:#ccc;opacity:0.8;}.cls-2{fill:#f2f2f2;}.cls-3{fill:#1e1c1c;}.cls-4{fill:none;stroke:#1e1c1c;stroke-miterlimit:10;}</style></defs><path class="cls-1" d="M34.75,4.72H74.7a0,0,0,0,1,0,0v59a0,0,0,0,1,0,0H34.75A29.49,29.49,0,0,1,5.26,34.22v0A29.49,29.49,0,0,1,34.75,4.72Z"/><path class="cls-2" d="M74.67,63.71h322a29.49,29.49,0,0,0,29.5-29.49h0a29.5,29.5,0,0,0-29.5-29.5h-322Z"/><path class="cls-3" d="M51.84,47.28H27.71a1.38,1.38,0,0,1-1-.45,1.34,1.34,0,0,1-.37-1,13.5,13.5,0,0,1,26.93,0,1.38,1.38,0,0,1-.37,1A1.4,1.4,0,0,1,51.84,47.28Zm-12.07-13A12.55,12.55,0,0,0,27.3,45.86a.39.39,0,0,0,.11.29.38.38,0,0,0,.3.13H51.84a.39.39,0,0,0,.3-.13.38.38,0,0,0,.1-.29A12.54,12.54,0,0,0,39.77,34.28Z"/><path class="cls-3" d="M39.77,34.25a7.1,7.1,0,1,1,7.1-7.09A7.1,7.1,0,0,1,39.77,34.25Zm0-13.19a6.1,6.1,0,1,0,6.1,6.1A6.1,6.1,0,0,0,39.77,21.06Z"/><rect class="cls-4" x="5.26" y="4.72" width="420.88" height="58.99" rx="29.49"/></svg>