<svg id="Layer_1" data-name="Layer 1" xmlns="http://www.w3.org/2000/svg" viewBox="0 0 461.8 599.21"><defs><style>.cls-1{fill:#f93;opacity:0.5;}.cls-2{fill:#1e1c1c;}</style></defs><rect class="cls-1" x="17.2" y="24.74" width="427.39" height="549.74" rx="59.92"/><path class="cls-2" d="M126.87,347.89c5.36,0,9.75,3.5,9.75,8.85s-4.39,8.85-9.75,8.85-9.75-3.49-9.75-8.85S121.52,347.89,126.87,347.89Zm-9,24h18v60.2h-18Z"/><path class="cls-2" d="M183.07,355.16c17.7,0,27,12.18,27,26.72,0,14.76-9.41,26.43-27.17,26.43h-13.7V432.1h-18.6V355.16Zm-14,39.12h7.5c9,0,14.53-3.39,14.53-12.4,0-8-4.78-12.4-12.39-12.4H169.1Z"/><path class="cls-2" d="M258.46,393.6l23.61,38.5h-21l-14.54-25.25h-.79L231.18,432.1h-20l23-38.72-22.94-38.22h21.87L247,381.09h.79l13.69-25.93h20.91Z"/><path class="cls-2" d="M302.28,409.55c.34,5,5.07,9.75,14,9.75,8.51,0,12.57-3.72,12.57-8.79,0-4.79-3.89-7-11.39-8.57l-10.87-2.37c-11.39-2.25-20.46-8.45-20.46-21.86,0-15.39,12.85-24,30-24,18.6,0,29.59,10.37,29.76,23.5H328.77c-.34-4.79-4.34-9.47-12.63-9.47-7.27,0-11.44,3.44-11.44,8.51,0,4.12,3.67,6.65,10.31,7.95l11.16,2.25c11.05,2.15,21.08,7.61,21.08,22.21,0,15.05-11.49,24.85-31.61,24.85-23.51,0-30.95-12.79-31.12-23.95Z"/><path class="cls-2" d="M119.49,539.73V462.79h19.28l19.72,43.46h.56l19.79-43.46h19v76.94H181.15V492.1h-.79l-16.23,36H153.19l-16.29-36h-.84v47.63Z"/><path class="cls-2" d="M206,539.73l24.8-76.94h22.77l24.63,76.94H258.4l-5-17.64H229.65l-5,17.64Zm35.23-60.25-8.18,29.14h17l-8-29.14Z"/><path class="cls-2" d="M327.07,501.23l23.62,38.5h-21l-14.54-25.25h-.79L299.8,539.73h-20l23-38.72L279.9,462.79h21.87l13.81,25.93h.79l13.69-25.93H351Z"/><path class="cls-2" d="M274.34,308.81H187.46a34.78,34.78,0,0,1-34.74-34.74v-164a34.77,34.77,0,0,1,34.74-34.74h86.88a34.77,34.77,0,0,1,34.74,34.74v164A34.78,34.78,0,0,1,274.34,308.81ZM187.46,91a19.08,19.08,0,0,0-19.06,19.06v164a19.08,19.08,0,0,0,19.06,19.05h86.88a19.08,19.08,0,0,0,19.06-19.05v-164A19.08,19.08,0,0,0,274.34,91Z"/><path class="cls-2" d="M260.78,274.84H201a2.62,2.62,0,1,1,0-5.23h59.76a2.62,2.62,0,0,1,0,5.23Z"/><circle class="cls-2" cx="231.56" cy="103.28" r="3.66"/></svg>