<svg id="Layer_1" data-name="Layer 1" xmlns="http://www.w3.org/2000/svg" viewBox="0 0 464.59 350.76"><defs><style>.cls-1{fill:#fff;}.cls-2{fill:#e73925;}.cls-3{fill:#f47e20;}</style></defs><path class="cls-1" d="M360.68,324.07V297.75a30.79,30.79,0,0,0,0-61.58H320.42V209.85h40.26a57.11,57.11,0,1,1,0,114.22"/><polyline class="cls-1" points="298.56 188.7 187.11 300.15 179.53 292.56 290.9 181.19"/><path class="cls-1" d="M244.67,51.72l7.53-11.57A152.72,152.72,0,0,0,40.91,84.86C-3.67,153.39,14,244.71,79.61,292L48.87,322.74l12.65,12.64L210.38,186.52l-12.6-12.69L89.53,282.08c-61.22-42.62-78-126.73-37-189.68C94.26,28.19,180.48,10,244.67,51.72Z"/><polyline class="cls-2" points="253.27 143.89 210.36 186.49 197.71 173.85 240.39 131.16"/><polygon class="cls-2" points="353.46 133.72 353.42 133.68 360.99 126.1 379.59 144.7 372.01 152.29 353.45 133.73 353.46 133.72"/><polygon class="cls-3" points="360.95 126.07 353.36 118.49 303.55 168.51 253.01 118.52 240.37 131.16 298.47 188.64 303.41 183.71 303.49 183.78 360.95 126.07"/><rect class="cls-1" x="342.44" y="161.2" width="77.97" height="17.25"/><path class="cls-3" d="M448.34,169.73a9.49,9.49,0,1,1-9.49-9.49,9.49,9.49,0,0,1,9.49,9.49"/><line x1="298.47" y1="188.64" x2="290.9" y2="181.19"/></svg>