<svg id="Layer_1" data-name="Layer 1" xmlns="http://www.w3.org/2000/svg" viewBox="0 0 350 350"><defs><style>.cls-1{fill:#fff;}</style></defs><path class="cls-1" d="M86.24,123.52l24.84-24.84a7.38,7.38,0,0,1,9.38-1,7.11,7.11,0,0,1,1,11l-11.75,11.7a.88.88,0,0,0,.63,1.51h34.18A7.42,7.42,0,0,1,152,128a7.2,7.2,0,0,1-7.13,8.23H108.51a.89.89,0,0,0-.67,1.47l14,16.18a7.26,7.26,0,0,1-.72,10.17,7.15,7.15,0,0,1-4.73,1.78,4.18,4.18,0,0,1-.5,0,7.08,7.08,0,0,1-4.94-2.45l-25-28.84a7.19,7.19,0,0,1,.34-11Z"/><path class="cls-1" d="M258.67,30.37a26.69,26.69,0,0,0-19-8H155a27.18,27.18,0,0,0-27.07,27.06v22a8.1,8.1,0,0,0,16.19,0v-22A11,11,0,0,1,155,38.59h48.73l-29.2,6.9A15.49,15.49,0,0,0,162.6,60.57V223.63H155a11.11,11.11,0,0,1-10.88-11V190.11a8.1,8.1,0,0,0-16.19,0V212.6A27.18,27.18,0,0,0,155,239.82h7.61v2.74a15.5,15.5,0,0,0,19.06,15.09L239.6,244a32.47,32.47,0,0,0,17.07-10.33,27.33,27.33,0,0,0,9.81-21V49.43A26.71,26.71,0,0,0,258.67,30.37Z"/></svg>