<svg id="Layer_1" data-name="Layer 1" xmlns="http://www.w3.org/2000/svg" xmlns:xlink="http://www.w3.org/1999/xlink" viewBox="0 0 355.2 357.8"><defs><style>.cls-1{fill:url(#Yellow_Green);}.cls-2{fill:url(#Yellow_Green-2);}</style><linearGradient id="Yellow_Green" x1="393.12" y1="-62.25" x2="92.79" y2="133.88" gradientUnits="userSpaceOnUse"><stop offset="0" stop-color="#d0e3a4"/><stop offset="0.5" stop-color="#abd378"/><stop offset="1" stop-color="#76b83f"/></linearGradient><linearGradient id="Yellow_Green-2" x1="133.92" y1="86.19" x2="187.03" y2="245.55" xlink:href="#Yellow_Green"/></defs><path class="cls-1" d="M106.65,280.39a14.41,14.41,0,0,0,10.19,4.17h.52a14.55,14.55,0,0,0,10.36-4.94L341.13,35.82a14.49,14.49,0,1,0-21.81-19.08L116,249,39.47,173.57V40.77H259.92a14.49,14.49,0,1,0,0-29H25A14.51,14.51,0,0,0,10.49,26.28V179.64A14.59,14.59,0,0,0,14.82,190Z"/><path class="cls-2" d="M330.22,88.49A14.5,14.5,0,0,0,315.74,103V317H39.47V252.51a14.49,14.49,0,0,0-29,0v79A14.51,14.51,0,0,0,25,346H330.22a14.51,14.51,0,0,0,14.49-14.49V103A14.51,14.51,0,0,0,330.22,88.49Z"/></svg>