<svg id="Layer_1" data-name="Layer 1" xmlns="http://www.w3.org/2000/svg" viewBox="0 0 350 350"><defs><style>.cls-1{fill:#fff;}</style></defs><path class="cls-1" d="M292.2,124.31,255.44,87.56V45.09a13.9,13.9,0,1,0-27.8,0V59.75L200.27,32.38c-13.53-13.52-37.06-13.5-50.56,0L57.8,124.31A13.91,13.91,0,0,0,77.46,144l91.91-91.91a8.21,8.21,0,0,1,11.25,0L272.53,144a13.91,13.91,0,1,0,19.67-19.67Zm0,0"/><path class="cls-1" d="M179.83,78.45a6.83,6.83,0,0,0-9.66,0L89.33,159.27a6.84,6.84,0,0,0-2,4.84v58.95a25,25,0,0,0,25,25h40v-62h45.19v62h40a25,25,0,0,0,25-25V164.11a6.8,6.8,0,0,0-2-4.84Zm0,0"/></svg>