<svg id="Layer_1" data-name="Layer 1" xmlns="http://www.w3.org/2000/svg" viewBox="0 0 461.8 599.21"><defs><style>.cls-1{fill:#f93;opacity:0.5;}.cls-2{fill:#1e1c1c;}</style></defs><rect class="cls-1" x="17.2" y="24.74" width="427.39" height="549.74" rx="59.92"/><path class="cls-2" d="M111.6,379.89c6.8,0,12.35,4.72,12.35,11.52s-5.55,11.45-12.35,11.45-12.36-4.65-12.36-11.45S104.88,379.89,111.6,379.89Zm-10.87,33.34h21.81v88H100.73Z"/><path class="cls-2" d="M191.53,388c24.3,0,38.23,16.51,38.23,37.74,0,21.56-14.1,37.48-38.48,37.48H168.64v38H146.25V388Zm-23,57.64H182c15.59,0,25-4.56,25-19.9,0-12.69-7.38-19.91-19.74-19.91H168.56Z"/><path class="cls-2" d="M267.55,501.22v-92h-.74c-7,4.31-18,11.19-26,16.75V405.51c8.71-6.13,18.58-12.27,27.37-17.5h21.64V501.22Z"/><path class="cls-2" d="M337.2,501.22v-92h-.74c-7,4.31-18,11.19-26,16.75V405.51c8.7-6.13,18.57-12.27,27.36-17.5h21.65V501.22Z"/><path class="cls-2" d="M274.34,308.81H187.46a34.78,34.78,0,0,1-34.74-34.74v-164a34.77,34.77,0,0,1,34.74-34.74h86.88a34.77,34.77,0,0,1,34.74,34.74v164A34.78,34.78,0,0,1,274.34,308.81ZM187.46,91a19.08,19.08,0,0,0-19.06,19.06v164a19.08,19.08,0,0,0,19.06,19.05h86.88a19.08,19.08,0,0,0,19.06-19.05v-164A19.08,19.08,0,0,0,274.34,91Z"/><path class="cls-2" d="M260.78,274.84H201a2.62,2.62,0,1,1,0-5.23h59.76a2.62,2.62,0,0,1,0,5.23Z"/><circle class="cls-2" cx="231.56" cy="103.28" r="3.66"/></svg>