<svg id="Layer_1" data-name="Layer 1" xmlns="http://www.w3.org/2000/svg" viewBox="0 0 458.27 347.71"><defs><style>.cls-1{fill:#e73925;}.cls-2{fill:#f47e20;}</style></defs><path d="M357.52,322.55V296.22a30.79,30.79,0,0,0,0-61.58H317.26V208.32h40.26a57.12,57.12,0,0,1,0,114.23"/><polyline points="295.39 187.17 183.95 298.62 176.37 291.03 287.74 179.66"/><path d="M241.51,50.2,249,38.62A152.73,152.73,0,0,0,37.75,83.33c-44.58,68.53-27,159.86,38.7,207.15L45.71,321.21l12.65,12.64L207.22,185l-12.6-12.69L86.37,280.55c-61.22-42.62-78-126.73-37-189.68C91.1,26.67,177.32,8.42,241.51,50.2Z"/><polyline class="cls-1" points="250.11 142.36 207.2 184.96 194.55 172.32 237.24 129.63"/><polygon class="cls-1" points="350.31 132.19 350.26 132.15 357.83 124.57 376.43 143.17 368.85 150.76 350.29 132.21 350.31 132.19"/><polygon class="cls-2" points="357.79 124.55 350.2 116.96 300.39 166.98 249.85 116.99 237.21 129.63 295.31 187.11 300.25 182.18 300.32 182.25 357.79 124.55"/><rect x="339.28" y="159.67" width="77.97" height="17.25"/><path class="cls-2" d="M445.18,168.2a9.49,9.49,0,1,1-9.49-9.49,9.49,9.49,0,0,1,9.49,9.49"/><line x1="295.31" y1="187.11" x2="287.74" y2="179.66"/></svg>