<svg id="Layer_1" data-name="Layer 1" xmlns="http://www.w3.org/2000/svg" viewBox="0 0 427 316.51"><defs><style>.cls-1{fill:#96c;opacity:0.5;}.cls-2{fill:#1e1c1c;}</style></defs><rect class="cls-1" x="15.71" y="8.41" width="395.59" height="299.69" rx="35.32"/><path class="cls-2" d="M152.28,95.87v20.39L102.15,219.6H76.41l51.85-103.16v-.63H67.08V95.87Z"/><path class="cls-2" d="M165.05,185.61c0-19.67,14.78-28.65,25.93-30.91V154C180.47,150.71,170,142.19,170,126.23c0-18.85,17.13-32.72,43-32.72s43,13.87,43,32.72c0,16.14-10.79,24.57-21,27.74v.73c11.24,2.26,25.92,11.33,25.92,30.82,0,21.48-19.12,36.44-48.13,36.44S165.05,207.09,165.05,185.61ZM236.57,184c0-12.14-10.24-20.48-23.56-20.48s-23.58,8.34-23.58,20.48,10.16,20.31,23.58,20.31S236.57,196.12,236.57,184Zm-4-55c0-10.51-8.34-17.58-19.57-17.58s-19.58,7.07-19.58,17.58,8.34,17.86,19.58,17.86S232.58,139.47,232.58,129Z"/><path class="cls-2" d="M358.48,95.87v20.39L308.35,219.6H282.61l51.85-103.16v-.63H273.27V95.87Z"/></svg>