<svg id="Layer_1" data-name="Layer 1" xmlns="http://www.w3.org/2000/svg" viewBox="0 0 304.48 300.66"><defs><style>.cls-1{fill:#3cf;}</style></defs><rect class="cls-1" x="17.12" y="15.21" width="270.24" height="270.24" rx="40.26"/><path d="M98.43,185.42V105.34a12.25,12.25,0,0,1,.33-3c.69-2.74,3-7.19,10.62-7.19,1.09,0,2.65.33,3.15-.24s.28-2.14.33-3.26c.23-6.47,4.76-10.87,11.24-10.92h3.15c0-1.24,0-2.33,0-3.42a10.35,10.35,0,0,1,4.54-8.9,10,10,0,0,1,1.51-.83,15.8,15.8,0,0,1,6.47-1.31h55a2,2,0,0,0,.45.21,10.73,10.73,0,0,1,9,11q0,39.54,0,79.08a12.37,12.37,0,0,1-.15,2.28,10.82,10.82,0,0,1-10.8,8.91c-1.12,0-2.24,0-3.49,0,.31,4.3,0,8.21-3.16,11.31s-7,3.31-11.2,3.09c0,1.41,0,4,0,5.18-.13,7-3.28,8.52-11.08,8.52H109.83C103,195.9,98.43,196,98.43,185.42ZM107,145.88v39c0,2.51.63,3.14,3.17,3.14H163.6c2.62,0,3.26-.63,3.26-3.19V106.92c0-2.48-.68-3.15-3.18-3.15H110.29c-2.61,0-3.25.63-3.25,3.2Zm68.41,27.77h2.39c2.85,0,3.46-.6,3.46-3.42V92.79c0-2.84-.6-3.44-3.43-3.44h-53a10.7,10.7,0,0,0-1.39.07,1.93,1.93,0,0,0-1.94,1.83c-.1,1.25,0,2.52,0,4h42.33c7,0,11.62,4.55,11.62,11.58v66.87ZM135.82,80.78h27c5.63,0,11.27,0,16.9,0A9.59,9.59,0,0,1,185.54,83c3.1,2.37,4.34,5.57,4.33,9.42q0,32.49,0,65v1.8h2.47c2.8,0,3.33-.53,3.33-3.34V78.28c0-.43,0-.85,0-1.27a2.07,2.07,0,0,0-1.92-2,7.32,7.32,0,0,0-1.15-.06H138.92c-.25,0-.51,0-.76,0a2.24,2.24,0,0,0-2.33,2.34C135.78,78.39,135.82,79.49,135.82,80.78Z"/><path d="M136.86,177.76c-4.78,0-9.57,0-14.36,0a4.27,4.27,0,0,1-4.24-5.52,4.21,4.21,0,0,1,4.09-3.05q14.61,0,29.22,0a4.29,4.29,0,1,1-.09,8.57C146.61,177.79,141.74,177.75,136.86,177.76Z"/><path d="M136.86,143.37H122.75c-2.67,0-4.61-1.73-4.69-4.15a4.34,4.34,0,0,1,4.55-4.44q14.36-.06,28.72,0a4.3,4.3,0,1,1-.12,8.58Z"/><path d="M137,160.5H122.49a4.24,4.24,0,1,1,0-8.47q14.47,0,29,0a4.16,4.16,0,0,1,4.29,3.55,4.21,4.21,0,0,1-2.82,4.7,5.61,5.61,0,0,1-1.74.21C146.45,160.51,141.71,160.5,137,160.5Z"/><path d="M133.53,126.15H122.61a4.23,4.23,0,0,1-4.54-4.12,4.17,4.17,0,0,1,4.19-4.35c3.46-.14,6.93-.08,10.4-.09s7.12,0,10.67,0a17.15,17.15,0,0,1,1.9.11,4.26,4.26,0,0,1,3.72,4.41,4.19,4.19,0,0,1-4.11,4C141.07,126.18,137.3,126.15,133.53,126.15Z"/></svg>