<svg id="Layer_1" data-name="Layer 1" xmlns="http://www.w3.org/2000/svg" viewBox="0 0 461.8 599.21"><defs><style>.cls-1{fill:#f93;opacity:0.5;}.cls-2{fill:#1e1c1c;}</style></defs><rect class="cls-1" x="17.2" y="24.74" width="427.39" height="549.74" rx="59.92"/><path class="cls-2" d="M91.69,379.89c6.8,0,12.36,4.72,12.36,11.52s-5.56,11.45-12.36,11.45-12.35-4.65-12.35-11.45S85,379.89,91.69,379.89ZM80.83,413.23h21.81v88H80.83Z"/><path class="cls-2" d="M171.63,388c24.3,0,38.23,16.51,38.23,37.74,0,21.56-14.1,37.48-38.48,37.48H148.74v38H126.35V388Zm-23,57.64h13.44c15.59,0,25-4.56,25-19.9,0-12.69-7.38-19.91-19.73-19.91H148.65Z"/><path class="cls-2" d="M297.66,388v18.66L251.8,501.21H228.25l47.43-94.37v-.58h-56V388Z"/><path class="cls-2" d="M352.29,499.31H333.55V464.23H301V445.82h32.59V412h18.74v33.84h32.76v18.41H352.29Z"/><path class="cls-2" d="M274.34,308.81H187.46a34.78,34.78,0,0,1-34.74-34.74v-164a34.77,34.77,0,0,1,34.74-34.74h86.88a34.77,34.77,0,0,1,34.74,34.74v164A34.78,34.78,0,0,1,274.34,308.81ZM187.46,91a19.08,19.08,0,0,0-19.06,19.06v164a19.08,19.08,0,0,0,19.06,19.05h86.88a19.08,19.08,0,0,0,19.06-19.05v-164A19.08,19.08,0,0,0,274.34,91Z"/><path class="cls-2" d="M260.78,274.84H201a2.62,2.62,0,1,1,0-5.23h59.76a2.62,2.62,0,0,1,0,5.23Z"/><circle class="cls-2" cx="231.56" cy="103.28" r="3.66"/></svg>