<svg id="Layer_1" data-name="Layer 1" xmlns="http://www.w3.org/2000/svg" viewBox="0 0 436.85 119.66"><defs><style>.cls-1{fill:#3cf;}</style></defs><rect class="cls-1" x="5.01" y="9.05" width="426.83" height="101.57" rx="21.04"/><path d="M103.12,43.21l2.64.93a5.22,5.22,0,0,1,1,.37c1.31.82,2.4,0,3.52-.45.22-.1.37-.43.49-.68.6-1.24,1.2-2.49,1.78-3.75a.8.8,0,0,1,.84-.55c1.55,0,3.1,0,4.64,0a.81.81,0,0,1,.85.55c.59,1.3,1.19,2.59,1.84,3.86a2.28,2.28,0,0,0,.81.76,3.48,3.48,0,0,0,3.65.07c.81-.4,1.71-.6,2.56-.93a.92.92,0,0,1,1.15.23c1,1.08,2.11,2.15,3.2,3.19a.87.87,0,0,1,.22,1c-.47,1.26-.9,2.53-1.37,3.78a2.21,2.21,0,0,0,0,1.48,3.45,3.45,0,0,0,2.36,2.42,24.48,24.48,0,0,1,2.78,1.34.88.88,0,0,1,.43.64c0,1.69,0,3.38-.05,5.07,0,.19-.29.44-.49.54-1.27.63-2.56,1.21-3.82,1.86a2,2,0,0,0-.73.76,3.45,3.45,0,0,0-.15,3.6,27.77,27.77,0,0,1,1,2.73.9.9,0,0,1-.26,1.09c-1.09,1-2.15,2.12-3.2,3.2a.8.8,0,0,1-1,.21c-1.37-.52-2.75-1-4.14-1.46a2,2,0,0,0-.83,0c-.17,0-.33.18-.51.22a3,3,0,0,0-2.16,2.12c-.38,1-.9,1.9-1.33,2.86a.81.81,0,0,1-.87.52c-1.53,0-3.06,0-4.58,0a.82.82,0,0,1-.86-.54c-.58-1.26-1.19-2.5-1.77-3.76a2,2,0,0,0-.92-.9,3.67,3.67,0,0,0-3.68,0,22.58,22.58,0,0,1-2.79,1,.79.79,0,0,1-.65-.14q-1.8-1.74-3.54-3.55a.84.84,0,0,1-.1-.7c.44-1.35.91-2.69,1.41-4a2.07,2.07,0,0,0,0-1.3,3.62,3.62,0,0,0-2.59-2.61c-.88-.32-1.7-.81-2.56-1.2a.73.73,0,0,1-.48-.77c0-1.57,0-3.14,0-4.71a.79.79,0,0,1,.52-.81c1.31-.6,2.61-1.21,3.89-1.87a2.14,2.14,0,0,0,.72-.77,3.62,3.62,0,0,0,0-3.84,23,23,0,0,1-.94-2.68.86.86,0,0,1,.15-.7c1.13-1.17,2.29-2.32,3.45-3.47A2,2,0,0,1,103.12,43.21Zm12.6,24.15a7.33,7.33,0,0,0,7.35-8.15,7.2,7.2,0,0,0-7.41-6.61,7.38,7.38,0,0,0,.06,14.76Z"/><path d="M139.17,80.61l-6,14.3a5.63,5.63,0,0,1-.41-.52c-.55-.92-1.11-1.83-1.64-2.77-.21-.36-.38-.49-.82-.28a33.62,33.62,0,0,1-18.52,3A34.45,34.45,0,0,1,85.74,77.55c-.08-.12-.13-.25-.24-.46L87.38,76c1.25-.72,2.51-1.43,3.74-2.18.44-.27.67-.26,1,.22a27.15,27.15,0,0,0,12.64,11,26.79,26.79,0,0,0,16.54,1.7,53.18,53.18,0,0,0,5.14-1.56c.73-.24.72-.32.32-1l-1.07-1.81c-.4-.68-.36-.75.45-.81l3-.22,9.57-.73C138.75,80.58,138.87,80.6,139.17,80.61Z"/><path d="M130,40.47l-7.9-11.57,15.48-2c-.13.3-.2.46-.28.61l-1.46,2.59c-.42.74-.42.74.25,1.23a34.86,34.86,0,0,1,14.5,26.72,52.59,52.59,0,0,1-.26,5.6,31.59,31.59,0,0,1-3.9,12.74c-.42.81-.43.8-1.23.34-1.65-1-3.28-1.91-4.93-2.84-.41-.23-.51-.41-.26-.86a25.2,25.2,0,0,0,3-8.67,28.67,28.67,0,0,0,.46-5.21,28,28,0,0,0-11-21.54c-.42-.33-.66-.35-.93.18C131.06,38.67,130.54,39.49,130,40.47Z"/><path d="M91.69,57.16,85.88,69.62c-3.29-4.12-6.26-8.28-9.31-12.4,1.18,0,2.37,0,3.55,0a.78.78,0,0,0,.92-.82,29.71,29.71,0,0,1,.49-3.67,41.3,41.3,0,0,1,1.68-5.69,35,35,0,0,1,31.89-22.3c.47,0,.61.15.6.6,0,2,0,4,0,5.95,0,.55-.19.71-.71.72a26.49,26.49,0,0,0-13.35,3.84A27.27,27.27,0,0,0,89,52.72c-.31,1.13-.59,2.27-.81,3.41-.16.88,0,1,.88,1Z"/></svg>