<svg id="Layer_1" data-name="Layer 1" xmlns="http://www.w3.org/2000/svg" viewBox="0 0 305.41 301.58"><defs><style>.cls-1{fill:#9f3;}</style></defs><rect class="cls-1" x="17.72" y="15.61" width="271.37" height="271.37" rx="40.43"/><path d="M125.63,172.07a5.65,5.65,0,0,0,4,1.63h.2a5.69,5.69,0,0,0,4.06-1.93L217.4,76.35a5.68,5.68,0,0,0-.53-8,5.6,5.6,0,0,0-4.11-1.4,5.66,5.66,0,0,0-3.89,1.93l-79.56,90.89-30-29.51v-52h86.28a5.67,5.67,0,0,0,0-11.34H93.67A5.68,5.68,0,0,0,88,72.61v60a5.74,5.74,0,0,0,1.69,4Z"/><path d="M213.13,97a5.68,5.68,0,0,0-5.67,5.67v83.78H99.34V161.15a5.67,5.67,0,1,0-11.34,0v30.93a5.68,5.68,0,0,0,5.67,5.67H213.13a5.68,5.68,0,0,0,5.67-5.67V102.63A5.68,5.68,0,0,0,213.13,97Z"/></svg>