<svg id="Layer_1" data-name="Layer 1" xmlns="http://www.w3.org/2000/svg" viewBox="0 0 350 350"><defs><style>.cls-1{fill:#fff;}</style></defs><path class="cls-1" d="M232.57,75.9a58.13,58.13,0,0,1-28.31,50c-1.11.73-2.25,1.34-3.42,2-1.37.7-2.8,1.43-4.26,2a58.26,58.26,0,0,1-45.12,0c-1.39-.57-2.82-1.3-4.19-2-1.17-.63-2.31-1.24-3.71-2.13a58.47,58.47,0,1,1,89-49.81Z"/><path class="cls-1" d="M302.39,243.33H45.72A129.37,129.37,0,0,1,135.77,134.4a87.94,87.94,0,0,0,76.57,0C261.33,149.73,296.8,192.69,302.39,243.33Z"/></svg>