<svg id="Layer_1" data-name="Layer 1" xmlns="http://www.w3.org/2000/svg" viewBox="0 0 427 316.51"><defs><style>.cls-1{fill:#96c;opacity:0.5;}.cls-2{fill:#1e1c1c;}</style></defs><rect class="cls-1" x="15.71" y="8.41" width="395.59" height="299.69" rx="35.32"/><path class="cls-2" d="M141.36,126.6c-.82-6.35-7.34-13.69-18.31-13.69-15.86,0-25.2,17-25.2,43.42h.91c3.35-8.25,12.78-17.86,29.27-17.86,20.22,0,39.25,14.23,39.25,40.34,0,27.46-19.94,43.15-44.78,43.15-14.68,0-26.55-5.26-34.89-15.6s-12.87-25.65-12.87-45.77c0-43.69,19.31-66.9,49-66.9,25.92,0,39.7,17.68,40.6,32.91ZM122.5,202.65c11.52,0,21.49-7.89,21.49-22.85s-10.24-22.93-21.57-22.93c-12.06,0-21.67,8.61-21.67,22.93C100.75,194.31,110.72,202.65,122.5,202.65Z"/><path class="cls-2" d="M210.87,219.6V119.07h-.81c-7.62,4.72-19.67,12.24-28.46,18.31V115c9.51-6.7,20.3-13.41,29.91-19.12h23.66V219.6Z"/><path class="cls-2" d="M282.57,186.33c1.54,10.06,10.33,16.32,22.48,16.32,11.33,0,23-8.7,23-23.75,0-14.23-10.06-23.48-22.93-23.48-12.33,0-19.31,7.07-22.12,13.14H261.54l5.89-72.78h75.51v19.76H287l-3.08,31.9h.81c2.81-4.07,12.15-10.6,26.56-10.6,21.67,0,40.7,15.77,40.7,41,0,26.92-20.12,44.15-47.59,44.15-28.1,0-43.69-16.32-44.41-35.63Z"/></svg>