<svg id="Layer_1" data-name="Layer 1" xmlns="http://www.w3.org/2000/svg" viewBox="0 0 461.8 599.21"><defs><style>.cls-1{fill:#f93;opacity:0.5;}.cls-2{fill:#1e1c1c;}</style></defs><rect class="cls-1" x="17.2" y="24.74" width="427.39" height="549.74" rx="59.92"/><path class="cls-2" d="M147.68,342.23c5.35,0,9.74,3.5,9.74,8.85s-4.39,8.85-9.74,8.85-9.76-3.49-9.76-8.85S142.32,342.23,147.68,342.23Zm-9,24h18v60.2h-18Z"/><path class="cls-2" d="M203.88,349.5c17.7,0,26.94,12.18,26.94,26.72,0,14.77-9.41,26.43-27.17,26.43H190v23.79h-18.6V349.5Zm-14,39.12h7.5c9,0,14.54-3.38,14.54-12.4,0-8-4.79-12.4-12.4-12.4H189.9Z"/><path class="cls-2" d="M255.42,426.44v-60h-.79c-5.07,3.32-11.84,7.66-17.36,11.5v-16.4c5.92-4.18,12.35-8.29,18.38-12.07h18.2v76.94Z"/><path class="cls-2" d="M304,426.44v-60h-.8c-5.07,3.32-11.83,7.66-17.36,11.5v-16.4c5.92-4.18,12.35-8.29,18.38-12.07h18.2v76.94Z"/><path class="cls-2" d="M84,454.74c13,0,19.82,9,19.82,19.65,0,10.87-6.93,19.45-20,19.45H73.73v17.5H60v-56.6ZM73.69,483.52H79.2c6.59,0,10.7-2.49,10.7-9.13,0-5.89-3.53-9.12-9.13-9.12H73.69Z"/><path class="cls-2" d="M155.77,473.27a17,17,0,0,1-10.11,16l11.28,22.1H141.76l-9.58-20.2h-7.75v20.2H111v-56.6h24C148.89,454.74,155.77,462.62,155.77,473.27Zm-23,8.17c5.31,0,8.88-2.69,8.88-8,0-5.6-3.86-8.38-8.75-8.38h-8.46v16.42Z"/><path class="cls-2" d="M162.11,479.91c0-16.09,9.33-26.17,25.33-26.17s25.21,10.16,25.21,26.17v6.59c0,15.92-9.24,25.88-25.29,25.88s-25.25-10-25.25-25.88Zm14,6.63c0,9.83,4.56,14.68,11.28,14.68s11.24-4.85,11.24-14.68v-6.8c0-9.78-4.57-14.88-11.24-14.88s-11.28,5.1-11.28,14.88Z"/><path class="cls-2" d="M237.89,511.34v-56.6h14.18l14.51,32H267l14.55-32h14v56.6H283.25v-35h-.58l-11.94,26.5h-8l-12-26.5h-.62v35Z"/><path class="cls-2" d="M301.52,511.34l18.25-56.6h16.75l18.12,56.6H340l-3.64-13H318.9l-3.69,13ZM327.44,467l-6,21.44H334L328.06,467Z"/><path class="cls-2" d="M390.54,483l17.37,28.32H392.44l-10.69-18.58h-.58l-10.7,18.58H355.79l16.92-28.49-16.88-28.11h16.09l10.16,19.07h.58l10.07-19.07h15.39Z"/><path class="cls-2" d="M274.34,308.81H187.46a34.78,34.78,0,0,1-34.74-34.74v-164a34.77,34.77,0,0,1,34.74-34.74h86.88a34.77,34.77,0,0,1,34.74,34.74v164A34.78,34.78,0,0,1,274.34,308.81ZM187.46,91a19.08,19.08,0,0,0-19.06,19.06v164a19.08,19.08,0,0,0,19.06,19.05h86.88a19.08,19.08,0,0,0,19.06-19.05v-164A19.08,19.08,0,0,0,274.34,91Z"/><path class="cls-2" d="M260.78,274.84H201a2.62,2.62,0,1,1,0-5.23h59.76a2.62,2.62,0,0,1,0,5.23Z"/><circle class="cls-2" cx="231.56" cy="103.28" r="3.66"/></svg>