<svg id="Layer_1" data-name="Layer 1" xmlns="http://www.w3.org/2000/svg" viewBox="0 0 1055.62 768"><defs><style>.cls-1{opacity:0.08;}.cls-2{fill:#fff;}</style></defs><g class="cls-1"><path class="cls-2" d="M777.57,289.83a3.08,3.08,0,0,0,2.19.9h.11a3.15,3.15,0,0,0,2.23-1.07L828,237.22a3.12,3.12,0,1,0-4.69-4.11l-43.73,50-16.48-16.22V238.28h47.43a3.12,3.12,0,1,0,0-6.23H760a3.12,3.12,0,0,0-3.12,3.11v33a3.13,3.13,0,0,0,.93,2.22Z"/><path class="cls-2" d="M825.66,248.55a3.12,3.12,0,0,0-3.11,3.11v46H763.11V283.83a3.12,3.12,0,0,0-6.23,0v17A3.12,3.12,0,0,0,760,304h65.66a3.12,3.12,0,0,0,3.12-3.12V251.66A3.12,3.12,0,0,0,825.66,248.55Z"/><path class="cls-2" d="M853.36,289.83a3.11,3.11,0,0,0,2.19.9h.12a3.16,3.16,0,0,0,2.23-1.07l45.91-52.44a3.13,3.13,0,0,0-2.56-5.17,3.07,3.07,0,0,0-2.13,1.06l-43.74,50-16.47-16.22V238.28h47.43a3.12,3.12,0,0,0,0-6.23H835.79a3.11,3.11,0,0,0-3.11,3.11v33a3.13,3.13,0,0,0,.93,2.22Z"/><path class="cls-2" d="M901.46,248.55a3.12,3.12,0,0,0-3.12,3.11v46H838.91V283.83a3.12,3.12,0,0,0-6.23,0v17a3.12,3.12,0,0,0,3.11,3.12h65.67a3.12,3.12,0,0,0,3.12-3.12V251.66A3.12,3.12,0,0,0,901.46,248.55Z"/><path class="cls-2" d="M883.89,168.83a3.09,3.09,0,0,0-2.19-.9h-.11a3.13,3.13,0,0,0-2.23,1.07l-45.91,52.44a3.12,3.12,0,1,0,4.69,4.11l43.73-50,16.47,16.22v28.57H850.92a3.12,3.12,0,1,0,0,6.23h50.54a3.12,3.12,0,0,0,3.12-3.11v-33a3.13,3.13,0,0,0-.93-2.22Z"/><path class="cls-2" d="M835.79,210.11a3.12,3.12,0,0,0,3.12-3.12V160.94h59.43v13.89a3.12,3.12,0,0,0,6.24,0v-17a3.12,3.12,0,0,0-3.12-3.12H835.79a3.12,3.12,0,0,0-3.11,3.12V207A3.12,3.12,0,0,0,835.79,210.11Z"/><path class="cls-2" d="M808.09,168.83a3.08,3.08,0,0,0-2.19-.9h-.11a3.15,3.15,0,0,0-2.23,1.07l-45.91,52.44a3.12,3.12,0,1,0,4.69,4.11l43.73-50,16.48,16.22v28.57H775.12a3.12,3.12,0,1,0,0,6.23h50.54a3.12,3.12,0,0,0,3.12-3.11v-33a3.13,3.13,0,0,0-.93-2.22Z"/><path class="cls-2" d="M760,210.11a3.12,3.12,0,0,0,3.11-3.12V160.94h59.44v13.89a3.12,3.12,0,0,0,6.23,0v-17a3.12,3.12,0,0,0-3.12-3.12H760a3.12,3.12,0,0,0-3.12,3.12V207A3.12,3.12,0,0,0,760,210.11Z"/><path class="cls-2" d="M928.61,289.83a3.11,3.11,0,0,0,2.19.9h.11a3.13,3.13,0,0,0,2.23-1.07l45.92-52.44a3.12,3.12,0,1,0-4.7-4.11l-43.73,50-16.47-16.22V238.28h47.43a3.12,3.12,0,0,0,0-6.23H911a3.12,3.12,0,0,0-3.12,3.11v33a3.13,3.13,0,0,0,.93,2.22Z"/><path class="cls-2" d="M976.71,248.55a3.12,3.12,0,0,0-3.12,3.11v46H914.16V283.83a3.12,3.12,0,0,0-6.24,0v17A3.12,3.12,0,0,0,911,304h65.67a3.12,3.12,0,0,0,3.12-3.12V251.66A3.12,3.12,0,0,0,976.71,248.55Z"/><path class="cls-2" d="M1004.41,289.83a3.09,3.09,0,0,0,2.19.9h.11a3.13,3.13,0,0,0,2.23-1.07l45.91-52.44a3.12,3.12,0,1,0-4.69-4.11l-43.73,50L990,266.85V238.28h47.42a3.12,3.12,0,1,0,0-6.23H986.84a3.12,3.12,0,0,0-3.12,3.11v33a3.13,3.13,0,0,0,.93,2.22Z"/><path class="cls-2" d="M1052.51,248.55a3.12,3.12,0,0,0-3.12,3.11v46H990V283.83a3.12,3.12,0,0,0-6.24,0v17a3.12,3.12,0,0,0,3.12,3.12h65.67a3.12,3.12,0,0,0,3.11-3.12V251.66A3.11,3.11,0,0,0,1052.51,248.55Z"/><path class="cls-2" d="M1034.94,168.83a3.11,3.11,0,0,0-2.19-.9h-.12a3.16,3.16,0,0,0-2.23,1.07l-45.91,52.44a3.12,3.12,0,1,0,4.69,4.11l43.74-50,16.47,16.22v28.57H1002a3.12,3.12,0,0,0,0,6.23h50.55a3.11,3.11,0,0,0,3.11-3.11v-33a3.13,3.13,0,0,0-.93-2.22Z"/><path class="cls-2" d="M986.84,210.11A3.12,3.12,0,0,0,990,207V160.94h59.43v13.89a3.12,3.12,0,0,0,6.23,0v-17a3.12,3.12,0,0,0-3.11-3.12H986.84a3.12,3.12,0,0,0-3.12,3.12V207A3.12,3.12,0,0,0,986.84,210.11Z"/><path class="cls-2" d="M959.14,168.83a3.11,3.11,0,0,0-2.19-.9h-.11a3.13,3.13,0,0,0-2.23,1.07L908.7,221.44a3.12,3.12,0,0,0,2.55,5.17,3.15,3.15,0,0,0,2.14-1.06l43.73-50,16.47,16.22v28.57H926.16a3.12,3.12,0,0,0,0,6.23h50.55a3.12,3.12,0,0,0,3.12-3.11v-33a3.13,3.13,0,0,0-.93-2.22Z"/><path class="cls-2" d="M911,210.11a3.12,3.12,0,0,0,3.12-3.12V160.94h59.43v13.89a3.12,3.12,0,0,0,6.24,0v-17a3.12,3.12,0,0,0-3.12-3.12H911a3.12,3.12,0,0,0-3.12,3.12V207A3.12,3.12,0,0,0,911,210.11Z"/><path class="cls-2" d="M474.93,289.83a3.08,3.08,0,0,0,2.19.9h.11a3.16,3.16,0,0,0,2.23-1.07l45.91-52.44a3.12,3.12,0,0,0-2.55-5.17,3.09,3.09,0,0,0-2.14,1.06l-43.74,50-16.47-16.22V238.28H507.9a3.12,3.12,0,1,0,0-6.23H457.36a3.12,3.12,0,0,0-3.12,3.11v33a3.13,3.13,0,0,0,.93,2.22Z"/><path class="cls-2" d="M523,248.55a3.11,3.11,0,0,0-3.11,3.11v46H460.47V283.83a3.12,3.12,0,0,0-6.23,0v17a3.12,3.12,0,0,0,3.12,3.12H523a3.12,3.12,0,0,0,3.12-3.12V251.66A3.12,3.12,0,0,0,523,248.55Z"/><path class="cls-2" d="M550.72,289.83a3.11,3.11,0,0,0,2.19.9H553a3.16,3.16,0,0,0,2.23-1.07l45.91-52.44a3.12,3.12,0,1,0-4.7-4.11l-43.73,50-16.47-16.22V238.28H583.7a3.12,3.12,0,0,0,0-6.23H533.15a3.11,3.11,0,0,0-3.11,3.11v33a3.09,3.09,0,0,0,.93,2.22Z"/><path class="cls-2" d="M598.82,248.55a3.12,3.12,0,0,0-3.12,3.11v46H536.27V283.83a3.12,3.12,0,0,0-6.23,0v17a3.12,3.12,0,0,0,3.11,3.12h65.67a3.12,3.12,0,0,0,3.12-3.12V251.66A3.12,3.12,0,0,0,598.82,248.55Z"/><path class="cls-2" d="M581.25,168.83a3.09,3.09,0,0,0-2.19-.9H579a3.13,3.13,0,0,0-2.23,1.07l-45.91,52.44a3.12,3.12,0,0,0,2.55,5.17,3.15,3.15,0,0,0,2.14-1.06l43.73-50,16.47,16.22v28.57H548.28a3.12,3.12,0,1,0,0,6.23h50.54a3.12,3.12,0,0,0,3.12-3.11v-33a3.13,3.13,0,0,0-.93-2.22Z"/><path class="cls-2" d="M533.15,210.11a3.12,3.12,0,0,0,3.12-3.12V160.94H595.7v13.89a3.12,3.12,0,0,0,6.24,0v-17a3.12,3.12,0,0,0-3.12-3.12H533.15a3.12,3.12,0,0,0-3.11,3.12V207A3.12,3.12,0,0,0,533.15,210.11Z"/><path class="cls-2" d="M505.45,168.83a3.09,3.09,0,0,0-2.19-.9h-.11a3.15,3.15,0,0,0-2.23,1.07L455,221.44a3.12,3.12,0,1,0,4.69,4.11l43.73-50,16.47,16.22v28.57H472.48a3.12,3.12,0,1,0,0,6.23H523a3.12,3.12,0,0,0,3.12-3.11v-33a3.13,3.13,0,0,0-.93-2.22Z"/><path class="cls-2" d="M457.35,210.11a3.12,3.12,0,0,0,3.12-3.12V160.94H519.9v13.89a3.12,3.12,0,0,0,6.24,0v-17a3.12,3.12,0,0,0-3.12-3.12H457.35a3.12,3.12,0,0,0-3.11,3.12V207A3.12,3.12,0,0,0,457.35,210.11Z"/><path class="cls-2" d="M626,289.83a3.09,3.09,0,0,0,2.19.9h.11a3.13,3.13,0,0,0,2.23-1.07l45.91-52.44a3.12,3.12,0,1,0-4.69-4.11l-43.73,50-16.47-16.22V238.28h47.42a3.12,3.12,0,1,0,0-6.23H608.4a3.12,3.12,0,0,0-3.12,3.11v33a3.13,3.13,0,0,0,.93,2.22Z"/><path class="cls-2" d="M674.07,248.55a3.12,3.12,0,0,0-3.12,3.11v46H611.52V283.83a3.12,3.12,0,0,0-6.24,0v17A3.12,3.12,0,0,0,608.4,304h65.67a3.12,3.12,0,0,0,3.12-3.12V251.66A3.12,3.12,0,0,0,674.07,248.55Z"/><path class="cls-2" d="M701.77,289.83a3.08,3.08,0,0,0,2.19.9h.11a3.15,3.15,0,0,0,2.23-1.07l45.91-52.44a3.12,3.12,0,1,0-4.69-4.11l-43.73,50-16.48-16.22V238.28h47.43a3.12,3.12,0,1,0,0-6.23H684.2a3.12,3.12,0,0,0-3.12,3.11v33a3.13,3.13,0,0,0,.93,2.22Z"/><path class="cls-2" d="M749.87,248.55a3.12,3.12,0,0,0-3.12,3.11v46H687.31V283.83a3.12,3.12,0,0,0-6.23,0v17A3.12,3.12,0,0,0,684.2,304h65.67a3.12,3.12,0,0,0,3.11-3.12V251.66A3.12,3.12,0,0,0,749.87,248.55Z"/><path class="cls-2" d="M732.29,168.83a3.08,3.08,0,0,0-2.19-.9H730a3.16,3.16,0,0,0-2.23,1.07l-45.91,52.44a3.12,3.12,0,1,0,4.69,4.11l43.74-50,16.47,16.22v28.57H699.32a3.12,3.12,0,1,0,0,6.23h50.55A3.12,3.12,0,0,0,753,223.5v-33a3.13,3.13,0,0,0-.93-2.22Z"/><path class="cls-2" d="M684.2,210.11a3.12,3.12,0,0,0,3.11-3.12V160.94h59.44v13.89a3.12,3.12,0,0,0,6.23,0v-17a3.12,3.12,0,0,0-3.11-3.12H684.2a3.12,3.12,0,0,0-3.12,3.12V207A3.12,3.12,0,0,0,684.2,210.11Z"/><path class="cls-2" d="M656.5,168.83a3.11,3.11,0,0,0-2.19-.9h-.12A3.16,3.16,0,0,0,652,169l-45.91,52.44a3.12,3.12,0,1,0,4.69,4.11l43.74-50L671,191.81v28.57H623.52a3.12,3.12,0,0,0,0,6.23h50.55a3.11,3.11,0,0,0,3.11-3.11v-33a3.09,3.09,0,0,0-.93-2.22Z"/><path class="cls-2" d="M608.4,210.11a3.12,3.12,0,0,0,3.12-3.12V160.94H671v13.89a3.12,3.12,0,0,0,6.23,0v-17a3.12,3.12,0,0,0-3.11-3.12H608.4a3.12,3.12,0,0,0-3.12,3.12V207A3.12,3.12,0,0,0,608.4,210.11Z"/><path class="cls-2" d="M172.28,289.83a3.12,3.12,0,0,0,2.2.9h.11a3.16,3.16,0,0,0,2.23-1.07l45.91-52.44a3.13,3.13,0,0,0-2.56-5.17,3.07,3.07,0,0,0-2.13,1.06l-43.74,50-16.47-16.22V238.28h47.43a3.12,3.12,0,0,0,0-6.23H154.71a3.11,3.11,0,0,0-3.11,3.11v33a3.13,3.13,0,0,0,.93,2.22Z"/><path class="cls-2" d="M220.38,248.55a3.12,3.12,0,0,0-3.12,3.11v46H157.83V283.83a3.12,3.12,0,0,0-6.23,0v17a3.12,3.12,0,0,0,3.11,3.12h65.67a3.12,3.12,0,0,0,3.12-3.12V251.66A3.12,3.12,0,0,0,220.38,248.55Z"/><path class="cls-2" d="M248.08,289.83a3.09,3.09,0,0,0,2.19.9h.11a3.13,3.13,0,0,0,2.23-1.07l45.91-52.44a3.12,3.12,0,1,0-4.69-4.11l-43.73,50-16.47-16.22V238.28h47.42a3.12,3.12,0,1,0,0-6.23H230.51a3.12,3.12,0,0,0-3.12,3.11v33a3.13,3.13,0,0,0,.93,2.22Z"/><path class="cls-2" d="M296.18,248.55a3.12,3.12,0,0,0-3.12,3.11v46H233.63V283.83a3.12,3.12,0,0,0-6.24,0v17a3.12,3.12,0,0,0,3.12,3.12h65.67a3.12,3.12,0,0,0,3.12-3.12V251.66A3.12,3.12,0,0,0,296.18,248.55Z"/><path class="cls-2" d="M278.61,168.83a3.11,3.11,0,0,0-2.19-.9h-.11a3.13,3.13,0,0,0-2.23,1.07l-45.91,52.44a3.12,3.12,0,0,0,2.55,5.17,3.15,3.15,0,0,0,2.14-1.06l43.73-50,16.47,16.22v28.57H245.63a3.12,3.12,0,0,0,0,6.23h50.55a3.12,3.12,0,0,0,3.12-3.11v-33a3.13,3.13,0,0,0-.93-2.22Z"/><path class="cls-2" d="M230.51,210.11a3.12,3.12,0,0,0,3.12-3.12V160.94h59.43v13.89a3.12,3.12,0,0,0,6.24,0v-17a3.12,3.12,0,0,0-3.12-3.12H230.51a3.12,3.12,0,0,0-3.12,3.12V207A3.12,3.12,0,0,0,230.51,210.11Z"/><path class="cls-2" d="M202.81,168.83a3.09,3.09,0,0,0-2.19-.9h-.11a3.13,3.13,0,0,0-2.23,1.07l-45.91,52.44a3.12,3.12,0,1,0,4.69,4.11l43.73-50,16.47,16.22v28.57H169.84a3.12,3.12,0,1,0,0,6.23h50.54a3.12,3.12,0,0,0,3.12-3.11v-33a3.13,3.13,0,0,0-.93-2.22Z"/><path class="cls-2" d="M154.71,210.11a3.12,3.12,0,0,0,3.12-3.12V160.94h59.43v13.89a3.12,3.12,0,0,0,6.24,0v-17a3.12,3.12,0,0,0-3.12-3.12H154.71a3.12,3.12,0,0,0-3.11,3.12V207A3.12,3.12,0,0,0,154.71,210.11Z"/><path class="cls-2" d="M323.33,289.83a3.09,3.09,0,0,0,2.19.9h.11a3.13,3.13,0,0,0,2.23-1.07l45.91-52.44a3.12,3.12,0,1,0-4.69-4.11l-43.73,50-16.47-16.22V238.28H356.3a3.12,3.12,0,1,0,0-6.23H305.76a3.12,3.12,0,0,0-3.12,3.11v33a3.13,3.13,0,0,0,.93,2.22Z"/><path class="cls-2" d="M371.43,248.55a3.12,3.12,0,0,0-3.12,3.11v46H308.88V283.83a3.12,3.12,0,0,0-6.24,0v17a3.12,3.12,0,0,0,3.12,3.12h65.67a3.12,3.12,0,0,0,3.11-3.12V251.66A3.11,3.11,0,0,0,371.43,248.55Z"/><path class="cls-2" d="M399.13,289.83a3.08,3.08,0,0,0,2.19.9h.11a3.15,3.15,0,0,0,2.23-1.07l45.91-52.44a3.12,3.12,0,1,0-4.69-4.11l-43.73,50-16.48-16.22V238.28H432.1a3.12,3.12,0,1,0,0-6.23H381.56a3.12,3.12,0,0,0-3.12,3.11v33a3.13,3.13,0,0,0,.93,2.22Z"/><path class="cls-2" d="M447.22,248.55a3.12,3.12,0,0,0-3.11,3.11v46H384.67V283.83a3.12,3.12,0,0,0-6.23,0v17a3.12,3.12,0,0,0,3.12,3.12h65.66a3.12,3.12,0,0,0,3.12-3.12V251.66A3.12,3.12,0,0,0,447.22,248.55Z"/><path class="cls-2" d="M429.65,168.83a3.08,3.08,0,0,0-2.19-.9h-.11a3.15,3.15,0,0,0-2.23,1.07l-45.91,52.44a3.12,3.12,0,1,0,4.69,4.11l43.73-50,16.48,16.22v28.57H396.68a3.12,3.12,0,1,0,0,6.23h50.54a3.12,3.12,0,0,0,3.12-3.11v-33a3.13,3.13,0,0,0-.93-2.22Z"/><path class="cls-2" d="M381.56,210.11a3.12,3.12,0,0,0,3.11-3.12V160.94h59.44v13.89a3.12,3.12,0,0,0,6.23,0v-17a3.12,3.12,0,0,0-3.12-3.12H381.56a3.12,3.12,0,0,0-3.12,3.12V207A3.12,3.12,0,0,0,381.56,210.11Z"/><path class="cls-2" d="M353.86,168.83a3.12,3.12,0,0,0-2.2-.9h-.11a3.16,3.16,0,0,0-2.23,1.07l-45.91,52.44a3.12,3.12,0,1,0,4.69,4.11l43.74-50,16.47,16.22v28.57H320.88a3.12,3.12,0,0,0,0,6.23h50.55a3.11,3.11,0,0,0,3.11-3.11v-33a3.13,3.13,0,0,0-.93-2.22Z"/><path class="cls-2" d="M305.76,210.11a3.12,3.12,0,0,0,3.12-3.12V160.94h59.43v13.89a3.12,3.12,0,0,0,6.23,0v-17a3.12,3.12,0,0,0-3.11-3.12H305.76a3.12,3.12,0,0,0-3.12,3.12V207A3.12,3.12,0,0,0,305.76,210.11Z"/><path class="cls-2" d="M883.89,91.49a3.09,3.09,0,0,0-2.19-.89h-.11a3.12,3.12,0,0,0-2.23,1.06l-45.91,52.45a3.13,3.13,0,0,0,.29,4.4,3.12,3.12,0,0,0,4.4-.3l43.73-50,16.47,16.22V143H850.92a3.12,3.12,0,1,0,0,6.24h50.54a3.12,3.12,0,0,0,3.12-3.12v-33a3.13,3.13,0,0,0-.93-2.22Z"/><path class="cls-2" d="M835.79,132.78a3.12,3.12,0,0,0,3.12-3.12v-46h59.43V97.49a3.12,3.12,0,1,0,6.24,0v-17a3.12,3.12,0,0,0-3.12-3.11H835.79a3.11,3.11,0,0,0-3.11,3.11v49.17A3.12,3.12,0,0,0,835.79,132.78Z"/><path class="cls-2" d="M808.09,91.49a3.07,3.07,0,0,0-2.19-.89h-.11a3.14,3.14,0,0,0-2.23,1.06l-45.91,52.45a3.13,3.13,0,0,0,.29,4.4,3.12,3.12,0,0,0,4.4-.3l43.73-50,16.48,16.22V143H775.12a3.12,3.12,0,1,0,0,6.24h50.54a3.12,3.12,0,0,0,3.12-3.12v-33a3.13,3.13,0,0,0-.93-2.22Z"/><path class="cls-2" d="M760,132.78a3.12,3.12,0,0,0,3.11-3.12v-46h59.44V97.49a3.12,3.12,0,1,0,6.23,0v-17a3.12,3.12,0,0,0-3.12-3.11H760a3.12,3.12,0,0,0-3.12,3.11v49.17A3.12,3.12,0,0,0,760,132.78Z"/><path class="cls-2" d="M1034.94,91.49a3.1,3.1,0,0,0-2.19-.89h-.12a3.15,3.15,0,0,0-2.23,1.06l-45.91,52.45a3.12,3.12,0,0,0,.3,4.4,3.11,3.11,0,0,0,4.39-.3l43.74-50,16.47,16.22V143H1002a3.12,3.12,0,0,0,0,6.24h50.55a3.12,3.12,0,0,0,3.11-3.12v-33a3.13,3.13,0,0,0-.93-2.22Z"/><path class="cls-2" d="M986.84,132.78a3.12,3.12,0,0,0,3.12-3.12v-46h59.43V97.49a3.12,3.12,0,1,0,6.23,0v-17a3.11,3.11,0,0,0-3.11-3.11H986.84a3.12,3.12,0,0,0-3.12,3.11v49.17A3.12,3.12,0,0,0,986.84,132.78Z"/><path class="cls-2" d="M959.14,91.49A3.1,3.1,0,0,0,957,90.6h-.11a3.12,3.12,0,0,0-2.23,1.06L908.7,144.11a3.11,3.11,0,0,0,.29,4.4,3.12,3.12,0,0,0,4.4-.3l43.73-50,16.47,16.22V143H926.16a3.12,3.12,0,0,0,0,6.24h50.55a3.12,3.12,0,0,0,3.12-3.12v-33a3.13,3.13,0,0,0-.93-2.22Z"/><path class="cls-2" d="M911,132.78a3.12,3.12,0,0,0,3.12-3.12v-46h59.43V97.49a3.12,3.12,0,1,0,6.24,0v-17a3.12,3.12,0,0,0-3.12-3.11H911a3.12,3.12,0,0,0-3.12,3.11v49.17A3.12,3.12,0,0,0,911,132.78Z"/><path class="cls-2" d="M581.25,91.49a3.09,3.09,0,0,0-2.19-.89H579a3.12,3.12,0,0,0-2.23,1.06l-45.91,52.45a3.12,3.12,0,0,0,.29,4.4,3.12,3.12,0,0,0,4.4-.3l43.73-50,16.47,16.22V143H548.28a3.12,3.12,0,0,0,0,6.24h50.54a3.12,3.12,0,0,0,3.12-3.12v-33A3.13,3.13,0,0,0,601,111Z"/><path class="cls-2" d="M533.15,132.78a3.12,3.12,0,0,0,3.12-3.12v-46H595.7V97.49a3.12,3.12,0,0,0,6.24,0v-17a3.12,3.12,0,0,0-3.12-3.11H533.15A3.11,3.11,0,0,0,530,80.49v49.17A3.12,3.12,0,0,0,533.15,132.78Z"/><path class="cls-2" d="M505.45,91.49a3.09,3.09,0,0,0-2.19-.89h-.11a3.14,3.14,0,0,0-2.23,1.06L455,144.11a3.13,3.13,0,0,0,.29,4.4,3.12,3.12,0,0,0,4.4-.3l43.73-50,16.47,16.22V143H472.48a3.12,3.12,0,0,0,0,6.24H523a3.12,3.12,0,0,0,3.12-3.12v-33a3.13,3.13,0,0,0-.93-2.22Z"/><path class="cls-2" d="M457.35,132.78a3.12,3.12,0,0,0,3.12-3.12v-46H519.9V97.49a3.12,3.12,0,1,0,6.24,0v-17A3.12,3.12,0,0,0,523,77.38H457.35a3.11,3.11,0,0,0-3.11,3.11v49.17A3.12,3.12,0,0,0,457.35,132.78Z"/><path class="cls-2" d="M732.29,91.49a3.07,3.07,0,0,0-2.19-.89H730a3.15,3.15,0,0,0-2.23,1.06l-45.91,52.45a3.13,3.13,0,0,0,.29,4.4,3.07,3.07,0,0,0,2.26.76,3,3,0,0,0,2.14-1.06l43.74-50,16.47,16.22V143H699.32a3.12,3.12,0,1,0,0,6.24h50.55a3.12,3.12,0,0,0,3.11-3.12v-33a3.13,3.13,0,0,0-.93-2.22Z"/><path class="cls-2" d="M684.2,132.78a3.12,3.12,0,0,0,3.11-3.12v-46h59.44V97.49a3.12,3.12,0,1,0,6.23,0v-17a3.11,3.11,0,0,0-3.11-3.11H684.2a3.12,3.12,0,0,0-3.12,3.11v49.17A3.12,3.12,0,0,0,684.2,132.78Z"/><path class="cls-2" d="M656.5,91.49a3.1,3.1,0,0,0-2.19-.89h-.12A3.15,3.15,0,0,0,652,91.66l-45.91,52.45a3.12,3.12,0,0,0,.3,4.4,3.07,3.07,0,0,0,2.26.76,3,3,0,0,0,2.13-1.06l43.74-50L671,114.47V143H623.52a3.12,3.12,0,0,0,0,6.24h50.55a3.12,3.12,0,0,0,3.11-3.12v-33a3.09,3.09,0,0,0-.93-2.22Z"/><path class="cls-2" d="M608.4,132.78a3.12,3.12,0,0,0,3.12-3.12v-46H671V97.49a3.12,3.12,0,1,0,6.23,0v-17a3.11,3.11,0,0,0-3.11-3.11H608.4a3.12,3.12,0,0,0-3.12,3.11v49.17A3.12,3.12,0,0,0,608.4,132.78Z"/><path class="cls-2" d="M278.61,91.49a3.1,3.1,0,0,0-2.19-.89h-.11a3.12,3.12,0,0,0-2.23,1.06l-45.91,52.45a3.11,3.11,0,0,0,.29,4.4,3.12,3.12,0,0,0,4.4-.3l43.73-50,16.47,16.22V143H245.63a3.12,3.12,0,0,0,0,6.24h50.55a3.12,3.12,0,0,0,3.12-3.12v-33a3.13,3.13,0,0,0-.93-2.22Z"/><path class="cls-2" d="M230.51,132.78a3.12,3.12,0,0,0,3.12-3.12v-46h59.43V97.49a3.12,3.12,0,1,0,6.24,0v-17a3.12,3.12,0,0,0-3.12-3.11H230.51a3.12,3.12,0,0,0-3.12,3.11v49.17A3.12,3.12,0,0,0,230.51,132.78Z"/><path class="cls-2" d="M202.81,91.49a3.09,3.09,0,0,0-2.19-.89h-.11a3.12,3.12,0,0,0-2.23,1.06l-45.91,52.45a3.13,3.13,0,0,0,.29,4.4,3.12,3.12,0,0,0,4.4-.3l43.73-50,16.47,16.22V143H169.84a3.12,3.12,0,0,0,0,6.24h50.54a3.12,3.12,0,0,0,3.12-3.12v-33a3.13,3.13,0,0,0-.93-2.22Z"/><path class="cls-2" d="M154.71,132.78a3.12,3.12,0,0,0,3.12-3.12v-46h59.43V97.49a3.12,3.12,0,1,0,6.24,0v-17a3.12,3.12,0,0,0-3.12-3.11H154.71a3.11,3.11,0,0,0-3.11,3.11v49.17A3.12,3.12,0,0,0,154.71,132.78Z"/><path class="cls-2" d="M429.65,91.49a3.07,3.07,0,0,0-2.19-.89h-.11a3.14,3.14,0,0,0-2.23,1.06l-45.91,52.45a3.13,3.13,0,0,0,.29,4.4,3.12,3.12,0,0,0,4.4-.3l43.73-50,16.48,16.22V143H396.68a3.12,3.12,0,0,0,0,6.24h50.54a3.12,3.12,0,0,0,3.12-3.12v-33a3.13,3.13,0,0,0-.93-2.22Z"/><path class="cls-2" d="M381.56,132.78a3.12,3.12,0,0,0,3.11-3.12v-46h59.44V97.49a3.12,3.12,0,1,0,6.23,0v-17a3.12,3.12,0,0,0-3.12-3.11H381.56a3.12,3.12,0,0,0-3.12,3.11v49.17A3.12,3.12,0,0,0,381.56,132.78Z"/><path class="cls-2" d="M353.86,91.49a3.11,3.11,0,0,0-2.2-.89h-.11a3.15,3.15,0,0,0-2.23,1.06l-45.91,52.45a3.12,3.12,0,0,0,.3,4.4,3.11,3.11,0,0,0,4.39-.3l43.74-50,16.47,16.22V143H320.88a3.12,3.12,0,0,0,0,6.24h50.55a3.12,3.12,0,0,0,3.11-3.12v-33a3.13,3.13,0,0,0-.93-2.22Z"/><path class="cls-2" d="M305.76,132.78a3.12,3.12,0,0,0,3.12-3.12v-46h59.43V97.49a3.12,3.12,0,1,0,6.23,0v-17a3.11,3.11,0,0,0-3.11-3.11H305.76a3.12,3.12,0,0,0-3.12,3.11v49.17A3.12,3.12,0,0,0,305.76,132.78Z"/><path class="cls-2" d="M883.89,14.16a3.09,3.09,0,0,0-2.19-.9h-.11a3.12,3.12,0,0,0-2.23,1.06L833.45,66.77a3.12,3.12,0,1,0,4.69,4.11l43.73-50,16.47,16.22V65.71H850.92a3.12,3.12,0,1,0,0,6.23h50.54a3.12,3.12,0,0,0,3.12-3.12v-33a3.13,3.13,0,0,0-.93-2.22Z"/><path class="cls-2" d="M835.79,55.44a3.12,3.12,0,0,0,3.12-3.12v-46h59.43V20.16a3.12,3.12,0,0,0,6.24,0v-17A3.12,3.12,0,0,0,901.46,0H835.79a3.12,3.12,0,0,0-3.11,3.12V52.32A3.12,3.12,0,0,0,835.79,55.44Z"/><path class="cls-2" d="M808.09,14.16a3.08,3.08,0,0,0-2.19-.9h-.11a3.14,3.14,0,0,0-2.23,1.06L757.65,66.77a3.12,3.12,0,1,0,4.69,4.11l43.73-50,16.48,16.22V65.71H775.12a3.12,3.12,0,1,0,0,6.23h50.54a3.12,3.12,0,0,0,3.12-3.12v-33a3.13,3.13,0,0,0-.93-2.22Z"/><path class="cls-2" d="M760,55.44a3.12,3.12,0,0,0,3.11-3.12v-46h59.44V20.16a3.12,3.12,0,0,0,6.23,0v-17A3.12,3.12,0,0,0,825.66,0H760a3.12,3.12,0,0,0-3.12,3.12V52.32A3.12,3.12,0,0,0,760,55.44Z"/><path class="cls-2" d="M1034.94,14.16a3.11,3.11,0,0,0-2.19-.9h-.12a3.15,3.15,0,0,0-2.23,1.06L984.49,66.77a3.12,3.12,0,1,0,4.69,4.11l43.74-50,16.47,16.22V65.71H1002a3.12,3.12,0,0,0,0,6.23h50.55a3.12,3.12,0,0,0,3.11-3.12v-33a3.13,3.13,0,0,0-.93-2.22Z"/><path class="cls-2" d="M986.84,55.44A3.12,3.12,0,0,0,990,52.32v-46h59.43V20.16a3.12,3.12,0,0,0,6.23,0v-17A3.12,3.12,0,0,0,1052.51,0H986.84a3.12,3.12,0,0,0-3.12,3.12V52.32A3.12,3.12,0,0,0,986.84,55.44Z"/><path class="cls-2" d="M959.14,14.16a3.11,3.11,0,0,0-2.19-.9h-.11a3.12,3.12,0,0,0-2.23,1.06L908.7,66.77a3.12,3.12,0,0,0,2.55,5.17,3.15,3.15,0,0,0,2.14-1.06l43.73-50,16.47,16.22V65.71H926.16a3.12,3.12,0,0,0,0,6.23h50.55a3.12,3.12,0,0,0,3.12-3.12v-33a3.13,3.13,0,0,0-.93-2.22Z"/><path class="cls-2" d="M911,55.44a3.12,3.12,0,0,0,3.12-3.12v-46h59.43V20.16a3.12,3.12,0,0,0,6.24,0v-17A3.12,3.12,0,0,0,976.71,0H911a3.12,3.12,0,0,0-3.12,3.12V52.32A3.12,3.12,0,0,0,911,55.44Z"/><path class="cls-2" d="M581.25,14.16a3.09,3.09,0,0,0-2.19-.9H579a3.12,3.12,0,0,0-2.23,1.06L530.81,66.77a3.12,3.12,0,0,0,2.55,5.17,3.15,3.15,0,0,0,2.14-1.06l43.73-50L595.7,37.14V65.71H548.28a3.12,3.12,0,1,0,0,6.23h50.54a3.12,3.12,0,0,0,3.12-3.12v-33a3.13,3.13,0,0,0-.93-2.22Z"/><path class="cls-2" d="M533.15,55.44a3.12,3.12,0,0,0,3.12-3.12v-46H595.7V20.16a3.12,3.12,0,0,0,6.24,0v-17A3.12,3.12,0,0,0,598.82,0H533.15A3.12,3.12,0,0,0,530,3.16V52.32A3.12,3.12,0,0,0,533.15,55.44Z"/><path class="cls-2" d="M505.45,14.16a3.09,3.09,0,0,0-2.19-.9h-.11a3.14,3.14,0,0,0-2.23,1.06L455,66.77a3.12,3.12,0,1,0,4.69,4.11l43.73-50L519.9,37.14V65.71H472.48a3.12,3.12,0,1,0,0,6.23H523a3.12,3.12,0,0,0,3.12-3.12v-33a3.13,3.13,0,0,0-.93-2.22Z"/><path class="cls-2" d="M457.35,55.44a3.12,3.12,0,0,0,3.12-3.12v-46H519.9V20.16a3.12,3.12,0,0,0,6.24,0v-17A3.12,3.12,0,0,0,523,0H457.35a3.12,3.12,0,0,0-3.11,3.12V52.32A3.12,3.12,0,0,0,457.35,55.44Z"/><path class="cls-2" d="M732.29,14.16a3.08,3.08,0,0,0-2.19-.9H730a3.15,3.15,0,0,0-2.23,1.06L681.85,66.77a3.12,3.12,0,1,0,4.69,4.11l43.74-50,16.47,16.22V65.71H699.32a3.12,3.12,0,1,0,0,6.23h50.55A3.12,3.12,0,0,0,753,68.82v-33a3.13,3.13,0,0,0-.93-2.22Z"/><path class="cls-2" d="M684.2,55.44a3.12,3.12,0,0,0,3.11-3.12v-46h59.44V20.16a3.12,3.12,0,0,0,6.23,0v-17A3.12,3.12,0,0,0,749.87,0H684.2a3.12,3.12,0,0,0-3.12,3.12V52.32A3.12,3.12,0,0,0,684.2,55.44Z"/><path class="cls-2" d="M656.5,14.16a3.11,3.11,0,0,0-2.19-.9h-.12A3.15,3.15,0,0,0,652,14.32L606.05,66.77a3.12,3.12,0,1,0,4.69,4.11l43.74-50L671,37.14V65.71H623.52a3.12,3.12,0,0,0,0,6.23h50.55a3.12,3.12,0,0,0,3.11-3.12v-33a3.09,3.09,0,0,0-.93-2.22Z"/><path class="cls-2" d="M608.4,55.44a3.12,3.12,0,0,0,3.12-3.12v-46H671V20.16a3.12,3.12,0,0,0,6.23,0v-17A3.12,3.12,0,0,0,674.07,0H608.4a3.12,3.12,0,0,0-3.12,3.12V52.32A3.12,3.12,0,0,0,608.4,55.44Z"/><path class="cls-2" d="M278.61,14.16a3.11,3.11,0,0,0-2.19-.9h-.11a3.12,3.12,0,0,0-2.23,1.06L228.17,66.77a3.12,3.12,0,0,0,2.55,5.17,3.15,3.15,0,0,0,2.14-1.06l43.73-50,16.47,16.22V65.71H245.63a3.12,3.12,0,0,0,0,6.23h50.55a3.12,3.12,0,0,0,3.12-3.12v-33a3.13,3.13,0,0,0-.93-2.22Z"/><path class="cls-2" d="M230.51,55.44a3.12,3.12,0,0,0,3.12-3.12v-46h59.43V20.16a3.12,3.12,0,0,0,6.24,0v-17A3.12,3.12,0,0,0,296.18,0H230.51a3.12,3.12,0,0,0-3.12,3.12V52.32A3.12,3.12,0,0,0,230.51,55.44Z"/><path class="cls-2" d="M202.81,14.16a3.09,3.09,0,0,0-2.19-.9h-.11a3.12,3.12,0,0,0-2.23,1.06L152.37,66.77a3.12,3.12,0,1,0,4.69,4.11l43.73-50,16.47,16.22V65.71H169.84a3.12,3.12,0,1,0,0,6.23h50.54a3.12,3.12,0,0,0,3.12-3.12v-33a3.13,3.13,0,0,0-.93-2.22Z"/><path class="cls-2" d="M154.71,55.44a3.12,3.12,0,0,0,3.12-3.12v-46h59.43V20.16a3.12,3.12,0,0,0,6.24,0v-17A3.12,3.12,0,0,0,220.38,0H154.71a3.12,3.12,0,0,0-3.11,3.12V52.32A3.12,3.12,0,0,0,154.71,55.44Z"/><path class="cls-2" d="M429.65,14.16a3.08,3.08,0,0,0-2.19-.9h-.11a3.14,3.14,0,0,0-2.23,1.06L379.21,66.77a3.12,3.12,0,1,0,4.69,4.11l43.73-50,16.48,16.22V65.71H396.68a3.12,3.12,0,1,0,0,6.23h50.54a3.12,3.12,0,0,0,3.12-3.12v-33a3.13,3.13,0,0,0-.93-2.22Z"/><path class="cls-2" d="M381.56,55.44a3.12,3.12,0,0,0,3.11-3.12v-46h59.44V20.16a3.12,3.12,0,0,0,6.23,0v-17A3.12,3.12,0,0,0,447.22,0H381.56a3.12,3.12,0,0,0-3.12,3.12V52.32A3.12,3.12,0,0,0,381.56,55.44Z"/><path class="cls-2" d="M353.86,14.16a3.12,3.12,0,0,0-2.2-.9h-.11a3.15,3.15,0,0,0-2.23,1.06L303.41,66.77a3.12,3.12,0,1,0,4.69,4.11l43.74-50,16.47,16.22V65.71H320.88a3.12,3.12,0,0,0,0,6.23h50.55a3.12,3.12,0,0,0,3.11-3.12v-33a3.13,3.13,0,0,0-.93-2.22Z"/><path class="cls-2" d="M305.76,55.44a3.12,3.12,0,0,0,3.12-3.12v-46h59.43V20.16a3.12,3.12,0,0,0,6.23,0v-17A3.12,3.12,0,0,0,371.43,0H305.76a3.12,3.12,0,0,0-3.12,3.12V52.32A3.12,3.12,0,0,0,305.76,55.44Z"/><path class="cls-2" d="M777.57,444.5a3.08,3.08,0,0,0,2.19.9h.11a3.15,3.15,0,0,0,2.23-1.07L828,391.89a3.12,3.12,0,1,0-4.69-4.11l-43.73,50-16.48-16.22V393h47.43a3.12,3.12,0,1,0,0-6.23H760a3.12,3.12,0,0,0-3.12,3.11v33a3.13,3.13,0,0,0,.93,2.22Z"/><path class="cls-2" d="M825.66,403.22a3.12,3.12,0,0,0-3.11,3.12v46H763.11V438.5a3.12,3.12,0,0,0-6.23,0v17a3.12,3.12,0,0,0,3.12,3.12h65.66a3.12,3.12,0,0,0,3.12-3.12V406.34A3.12,3.12,0,0,0,825.66,403.22Z"/><path class="cls-2" d="M853.36,444.5a3.11,3.11,0,0,0,2.19.9h.12a3.16,3.16,0,0,0,2.23-1.07l45.91-52.44a3.13,3.13,0,0,0-2.56-5.17,3.07,3.07,0,0,0-2.13,1.06l-43.74,50-16.47-16.22V393h47.43a3.12,3.12,0,0,0,0-6.23H835.79a3.11,3.11,0,0,0-3.11,3.11v33a3.13,3.13,0,0,0,.93,2.22Z"/><path class="cls-2" d="M901.46,403.22a3.12,3.12,0,0,0-3.12,3.12v46H838.91V438.5a3.12,3.12,0,0,0-6.23,0v17a3.12,3.12,0,0,0,3.11,3.12h65.67a3.12,3.12,0,0,0,3.12-3.12V406.34A3.12,3.12,0,0,0,901.46,403.22Z"/><path class="cls-2" d="M883.89,323.5a3.09,3.09,0,0,0-2.19-.9h-.11a3.13,3.13,0,0,0-2.23,1.07l-45.91,52.44a3.12,3.12,0,1,0,4.69,4.11l43.73-50,16.47,16.22v28.57H850.92a3.12,3.12,0,1,0,0,6.23h50.54a3.12,3.12,0,0,0,3.12-3.11v-33a3.13,3.13,0,0,0-.93-2.22Z"/><path class="cls-2" d="M835.79,364.78a3.12,3.12,0,0,0,3.12-3.12v-46h59.43V329.5a3.12,3.12,0,0,0,6.24,0v-17a3.12,3.12,0,0,0-3.12-3.12H835.79a3.12,3.12,0,0,0-3.11,3.12v49.16A3.12,3.12,0,0,0,835.79,364.78Z"/><path class="cls-2" d="M808.09,323.5a3.08,3.08,0,0,0-2.19-.9h-.11a3.15,3.15,0,0,0-2.23,1.07l-45.91,52.44a3.12,3.12,0,1,0,4.69,4.11l43.73-50,16.48,16.22v28.57H775.12a3.12,3.12,0,1,0,0,6.23h50.54a3.12,3.12,0,0,0,3.12-3.11v-33a3.13,3.13,0,0,0-.93-2.22Z"/><path class="cls-2" d="M760,364.78a3.12,3.12,0,0,0,3.11-3.12v-46h59.44V329.5a3.12,3.12,0,0,0,6.23,0v-17a3.12,3.12,0,0,0-3.12-3.12H760a3.12,3.12,0,0,0-3.12,3.12v49.16A3.12,3.12,0,0,0,760,364.78Z"/><path class="cls-2" d="M928.61,444.5a3.11,3.11,0,0,0,2.19.9h.11a3.13,3.13,0,0,0,2.23-1.07l45.92-52.44a3.12,3.12,0,1,0-4.7-4.11l-43.73,50-16.47-16.22V393h47.43a3.12,3.12,0,0,0,0-6.23H911a3.12,3.12,0,0,0-3.12,3.11v33a3.13,3.13,0,0,0,.93,2.22Z"/><path class="cls-2" d="M976.71,403.22a3.12,3.12,0,0,0-3.12,3.12v46H914.16V438.5a3.12,3.12,0,0,0-6.24,0v17a3.12,3.12,0,0,0,3.12,3.12h65.67a3.12,3.12,0,0,0,3.12-3.12V406.34A3.12,3.12,0,0,0,976.71,403.22Z"/><path class="cls-2" d="M1004.41,444.5a3.09,3.09,0,0,0,2.19.9h.11a3.13,3.13,0,0,0,2.23-1.07l45.91-52.44a3.12,3.12,0,1,0-4.69-4.11l-43.73,50L990,421.52V393h47.42a3.12,3.12,0,1,0,0-6.23H986.84a3.12,3.12,0,0,0-3.12,3.11v33a3.13,3.13,0,0,0,.93,2.22Z"/><path class="cls-2" d="M1052.51,403.22a3.12,3.12,0,0,0-3.12,3.12v46H990V438.5a3.12,3.12,0,0,0-6.24,0v17a3.12,3.12,0,0,0,3.12,3.12h65.67a3.12,3.12,0,0,0,3.11-3.12V406.34A3.12,3.12,0,0,0,1052.51,403.22Z"/><path class="cls-2" d="M1034.94,323.5a3.11,3.11,0,0,0-2.19-.9h-.12a3.16,3.16,0,0,0-2.23,1.07l-45.91,52.44a3.13,3.13,0,0,0,2.56,5.17,3.07,3.07,0,0,0,2.13-1.06l43.74-50,16.47,16.22v28.57H1002a3.12,3.12,0,0,0,0,6.23h50.55a3.11,3.11,0,0,0,3.11-3.11v-33a3.13,3.13,0,0,0-.93-2.22Z"/><path class="cls-2" d="M986.84,364.78a3.12,3.12,0,0,0,3.12-3.12v-46h59.43V329.5a3.12,3.12,0,0,0,6.23,0v-17a3.12,3.12,0,0,0-3.11-3.12H986.84a3.12,3.12,0,0,0-3.12,3.12v49.16A3.12,3.12,0,0,0,986.84,364.78Z"/><path class="cls-2" d="M959.14,323.5a3.11,3.11,0,0,0-2.19-.9h-.11a3.13,3.13,0,0,0-2.23,1.07L908.7,376.11a3.12,3.12,0,1,0,4.69,4.11l43.73-50,16.47,16.22v28.57H926.16a3.12,3.12,0,0,0,0,6.23h50.55a3.12,3.12,0,0,0,3.12-3.11v-33a3.13,3.13,0,0,0-.93-2.22Z"/><path class="cls-2" d="M911,364.78a3.12,3.12,0,0,0,3.12-3.12v-46h59.43V329.5a3.12,3.12,0,0,0,6.24,0v-17a3.12,3.12,0,0,0-3.12-3.12H911a3.12,3.12,0,0,0-3.12,3.12v49.16A3.12,3.12,0,0,0,911,364.78Z"/><path class="cls-2" d="M474.93,444.5a3.08,3.08,0,0,0,2.19.9h.11a3.16,3.16,0,0,0,2.23-1.07l45.91-52.44a3.12,3.12,0,0,0-2.55-5.17,3.09,3.09,0,0,0-2.14,1.06l-43.74,50-16.47-16.22V393H507.9a3.12,3.12,0,1,0,0-6.23H457.36a3.12,3.12,0,0,0-3.12,3.11v33a3.13,3.13,0,0,0,.93,2.22Z"/><path class="cls-2" d="M523,403.22a3.12,3.12,0,0,0-3.11,3.12v46H460.47V438.5a3.12,3.12,0,0,0-6.23,0v17a3.12,3.12,0,0,0,3.12,3.12H523a3.12,3.12,0,0,0,3.12-3.12V406.34A3.12,3.12,0,0,0,523,403.22Z"/><path class="cls-2" d="M550.72,444.5a3.11,3.11,0,0,0,2.19.9H553a3.16,3.16,0,0,0,2.23-1.07l45.91-52.44a3.12,3.12,0,1,0-4.7-4.11l-43.73,50-16.47-16.22V393H583.7a3.12,3.12,0,0,0,0-6.23H533.15a3.11,3.11,0,0,0-3.11,3.11v33a3.09,3.09,0,0,0,.93,2.22Z"/><path class="cls-2" d="M598.82,403.22a3.12,3.12,0,0,0-3.12,3.12v46H536.27V438.5a3.12,3.12,0,0,0-6.23,0v17a3.12,3.12,0,0,0,3.11,3.12h65.67a3.12,3.12,0,0,0,3.12-3.12V406.34A3.12,3.12,0,0,0,598.82,403.22Z"/><path class="cls-2" d="M581.25,323.5a3.09,3.09,0,0,0-2.19-.9H579a3.13,3.13,0,0,0-2.23,1.07l-45.91,52.44a3.12,3.12,0,1,0,4.69,4.11l43.73-50,16.47,16.22v28.57H548.28a3.12,3.12,0,1,0,0,6.23h50.54a3.12,3.12,0,0,0,3.12-3.11v-33A3.13,3.13,0,0,0,601,343Z"/><path class="cls-2" d="M533.15,364.78a3.12,3.12,0,0,0,3.12-3.12v-46H595.7V329.5a3.12,3.12,0,0,0,6.24,0v-17a3.12,3.12,0,0,0-3.12-3.12H533.15A3.12,3.12,0,0,0,530,312.5v49.16A3.12,3.12,0,0,0,533.15,364.78Z"/><path class="cls-2" d="M505.45,323.5a3.09,3.09,0,0,0-2.19-.9h-.11a3.15,3.15,0,0,0-2.23,1.07L455,376.11a3.12,3.12,0,1,0,4.69,4.11l43.73-50,16.47,16.22v28.57H472.48a3.12,3.12,0,1,0,0,6.23H523a3.12,3.12,0,0,0,3.12-3.11v-33a3.13,3.13,0,0,0-.93-2.22Z"/><path class="cls-2" d="M457.35,364.78a3.12,3.12,0,0,0,3.12-3.12v-46H519.9V329.5a3.12,3.12,0,0,0,6.24,0v-17a3.12,3.12,0,0,0-3.12-3.12H457.35a3.12,3.12,0,0,0-3.11,3.12v49.16A3.12,3.12,0,0,0,457.35,364.78Z"/><path class="cls-2" d="M626,444.5a3.09,3.09,0,0,0,2.19.9h.11a3.13,3.13,0,0,0,2.23-1.07l45.91-52.44a3.12,3.12,0,1,0-4.69-4.11l-43.73,50-16.47-16.22V393h47.42a3.12,3.12,0,1,0,0-6.23H608.4a3.12,3.12,0,0,0-3.12,3.11v33a3.13,3.13,0,0,0,.93,2.22Z"/><path class="cls-2" d="M674.07,403.22a3.12,3.12,0,0,0-3.12,3.12v46H611.52V438.5a3.12,3.12,0,0,0-6.24,0v17a3.12,3.12,0,0,0,3.12,3.12h65.67a3.12,3.12,0,0,0,3.12-3.12V406.34A3.12,3.12,0,0,0,674.07,403.22Z"/><path class="cls-2" d="M701.77,444.5a3.08,3.08,0,0,0,2.19.9h.11a3.15,3.15,0,0,0,2.23-1.07l45.91-52.44a3.12,3.12,0,1,0-4.69-4.11l-43.73,50-16.48-16.22V393h47.43a3.12,3.12,0,1,0,0-6.23H684.2a3.12,3.12,0,0,0-3.12,3.11v33a3.13,3.13,0,0,0,.93,2.22Z"/><path class="cls-2" d="M749.87,403.22a3.12,3.12,0,0,0-3.12,3.12v46H687.31V438.5a3.12,3.12,0,0,0-6.23,0v17a3.12,3.12,0,0,0,3.12,3.12h65.67A3.12,3.12,0,0,0,753,455.5V406.34A3.12,3.12,0,0,0,749.87,403.22Z"/><path class="cls-2" d="M732.29,323.5a3.08,3.08,0,0,0-2.19-.9H730a3.16,3.16,0,0,0-2.23,1.07l-45.91,52.44a3.12,3.12,0,0,0,2.55,5.17,3.07,3.07,0,0,0,2.14-1.06l43.74-50,16.47,16.22v28.57H699.32a3.12,3.12,0,1,0,0,6.23h50.55a3.12,3.12,0,0,0,3.11-3.11v-33a3.13,3.13,0,0,0-.93-2.22Z"/><path class="cls-2" d="M684.2,364.78a3.12,3.12,0,0,0,3.11-3.12v-46h59.44V329.5a3.12,3.12,0,0,0,6.23,0v-17a3.12,3.12,0,0,0-3.11-3.12H684.2a3.12,3.12,0,0,0-3.12,3.12v49.16A3.12,3.12,0,0,0,684.2,364.78Z"/><path class="cls-2" d="M656.5,323.5a3.11,3.11,0,0,0-2.19-.9h-.12a3.16,3.16,0,0,0-2.23,1.07l-45.91,52.44a3.13,3.13,0,0,0,2.56,5.17,3.07,3.07,0,0,0,2.13-1.06l43.74-50L671,346.48v28.57H623.52a3.12,3.12,0,0,0,0,6.23h50.55a3.11,3.11,0,0,0,3.11-3.11v-33a3.09,3.09,0,0,0-.93-2.22Z"/><path class="cls-2" d="M608.4,364.78a3.12,3.12,0,0,0,3.12-3.12v-46H671V329.5a3.12,3.12,0,0,0,6.23,0v-17a3.12,3.12,0,0,0-3.11-3.12H608.4a3.12,3.12,0,0,0-3.12,3.12v49.16A3.12,3.12,0,0,0,608.4,364.78Z"/><path class="cls-2" d="M172.28,444.5a3.12,3.12,0,0,0,2.2.9h.11a3.16,3.16,0,0,0,2.23-1.07l45.91-52.44a3.13,3.13,0,0,0-2.56-5.17,3.07,3.07,0,0,0-2.13,1.06l-43.74,50-16.47-16.22V393h47.43a3.12,3.12,0,0,0,0-6.23H154.71a3.12,3.12,0,0,0-3.11,3.11v33a3.13,3.13,0,0,0,.93,2.22Z"/><path class="cls-2" d="M220.38,403.22a3.12,3.12,0,0,0-3.12,3.12v46H157.83V438.5a3.12,3.12,0,0,0-6.23,0v17a3.12,3.12,0,0,0,3.11,3.12h65.67a3.12,3.12,0,0,0,3.12-3.12V406.34A3.12,3.12,0,0,0,220.38,403.22Z"/><path class="cls-2" d="M248.08,444.5a3.09,3.09,0,0,0,2.19.9h.11a3.13,3.13,0,0,0,2.23-1.07l45.91-52.44a3.12,3.12,0,1,0-4.69-4.11l-43.73,50-16.47-16.22V393h47.42a3.12,3.12,0,1,0,0-6.23H230.51a3.12,3.12,0,0,0-3.12,3.11v33a3.13,3.13,0,0,0,.93,2.22Z"/><path class="cls-2" d="M296.18,403.22a3.12,3.12,0,0,0-3.12,3.12v46H233.63V438.5a3.12,3.12,0,0,0-6.24,0v17a3.12,3.12,0,0,0,3.12,3.12h65.67a3.12,3.12,0,0,0,3.12-3.12V406.34A3.12,3.12,0,0,0,296.18,403.22Z"/><path class="cls-2" d="M278.61,323.5a3.11,3.11,0,0,0-2.19-.9h-.11a3.13,3.13,0,0,0-2.23,1.07l-45.91,52.44a3.12,3.12,0,1,0,4.69,4.11l43.73-50,16.47,16.22v28.57H245.63a3.12,3.12,0,0,0,0,6.23h50.55a3.12,3.12,0,0,0,3.12-3.11v-33a3.13,3.13,0,0,0-.93-2.22Z"/><path class="cls-2" d="M230.51,364.78a3.12,3.12,0,0,0,3.12-3.12v-46h59.43V329.5a3.12,3.12,0,0,0,6.24,0v-17a3.12,3.12,0,0,0-3.12-3.12H230.51a3.12,3.12,0,0,0-3.12,3.12v49.16A3.12,3.12,0,0,0,230.51,364.78Z"/><path class="cls-2" d="M202.81,323.5a3.09,3.09,0,0,0-2.19-.9h-.11a3.13,3.13,0,0,0-2.23,1.07l-45.91,52.44a3.12,3.12,0,1,0,4.69,4.11l43.73-50,16.47,16.22v28.57H169.84a3.12,3.12,0,1,0,0,6.23h50.54a3.12,3.12,0,0,0,3.12-3.11v-33a3.13,3.13,0,0,0-.93-2.22Z"/><path class="cls-2" d="M154.71,364.78a3.12,3.12,0,0,0,3.12-3.12v-46h59.43V329.5a3.12,3.12,0,0,0,6.24,0v-17a3.12,3.12,0,0,0-3.12-3.12H154.71a3.12,3.12,0,0,0-3.11,3.12v49.16A3.12,3.12,0,0,0,154.71,364.78Z"/><path class="cls-2" d="M323.33,444.5a3.09,3.09,0,0,0,2.19.9h.11a3.13,3.13,0,0,0,2.23-1.07l45.91-52.44a3.12,3.12,0,1,0-4.69-4.11l-43.73,50-16.47-16.22V393H356.3a3.12,3.12,0,1,0,0-6.23H305.76a3.12,3.12,0,0,0-3.12,3.11v33a3.13,3.13,0,0,0,.93,2.22Z"/><path class="cls-2" d="M371.43,403.22a3.12,3.12,0,0,0-3.12,3.12v46H308.88V438.5a3.12,3.12,0,0,0-6.24,0v17a3.12,3.12,0,0,0,3.12,3.12h65.67a3.12,3.12,0,0,0,3.11-3.12V406.34A3.12,3.12,0,0,0,371.43,403.22Z"/><path class="cls-2" d="M399.13,444.5a3.08,3.08,0,0,0,2.19.9h.11a3.15,3.15,0,0,0,2.23-1.07l45.91-52.44a3.12,3.12,0,1,0-4.69-4.11l-43.73,50-16.48-16.22V393H432.1a3.12,3.12,0,1,0,0-6.23H381.56a3.12,3.12,0,0,0-3.12,3.11v33a3.13,3.13,0,0,0,.93,2.22Z"/><path class="cls-2" d="M447.22,403.22a3.12,3.12,0,0,0-3.11,3.12v46H384.67V438.5a3.12,3.12,0,0,0-6.23,0v17a3.12,3.12,0,0,0,3.12,3.12h65.66a3.12,3.12,0,0,0,3.12-3.12V406.34A3.12,3.12,0,0,0,447.22,403.22Z"/><path class="cls-2" d="M429.65,323.5a3.08,3.08,0,0,0-2.19-.9h-.11a3.15,3.15,0,0,0-2.23,1.07l-45.91,52.44a3.12,3.12,0,1,0,4.69,4.11l43.73-50,16.48,16.22v28.57H396.68a3.12,3.12,0,1,0,0,6.23h50.54a3.12,3.12,0,0,0,3.12-3.11v-33a3.13,3.13,0,0,0-.93-2.22Z"/><path class="cls-2" d="M381.56,364.78a3.12,3.12,0,0,0,3.11-3.12v-46h59.44V329.5a3.12,3.12,0,0,0,6.23,0v-17a3.12,3.12,0,0,0-3.12-3.12H381.56a3.12,3.12,0,0,0-3.12,3.12v49.16A3.12,3.12,0,0,0,381.56,364.78Z"/><path class="cls-2" d="M353.86,323.5a3.12,3.12,0,0,0-2.2-.9h-.11a3.16,3.16,0,0,0-2.23,1.07l-45.91,52.44a3.13,3.13,0,0,0,2.56,5.17,3.07,3.07,0,0,0,2.13-1.06l43.74-50,16.47,16.22v28.57H320.88a3.12,3.12,0,0,0,0,6.23h50.55a3.11,3.11,0,0,0,3.11-3.11v-33a3.13,3.13,0,0,0-.93-2.22Z"/><path class="cls-2" d="M305.76,364.78a3.12,3.12,0,0,0,3.12-3.12v-46h59.43V329.5a3.12,3.12,0,0,0,6.23,0v-17a3.12,3.12,0,0,0-3.11-3.12H305.76a3.12,3.12,0,0,0-3.12,3.12v49.16A3.12,3.12,0,0,0,305.76,364.78Z"/><path class="cls-2" d="M777.57,599.17a3.08,3.08,0,0,0,2.19.9h.11A3.15,3.15,0,0,0,782.1,599L828,546.56a3.12,3.12,0,1,0-4.69-4.11l-43.73,50-16.48-16.22V547.62h47.43a3.12,3.12,0,1,0,0-6.23H760a3.12,3.12,0,0,0-3.12,3.11v33a3.13,3.13,0,0,0,.93,2.22Z"/><path class="cls-2" d="M825.66,557.89a3.12,3.12,0,0,0-3.11,3.12v46H763.11V593.17a3.12,3.12,0,0,0-6.23,0v17a3.12,3.12,0,0,0,3.12,3.12h65.66a3.12,3.12,0,0,0,3.12-3.12V561A3.12,3.12,0,0,0,825.66,557.89Z"/><path class="cls-2" d="M853.36,599.17a3.11,3.11,0,0,0,2.19.9h.12A3.16,3.16,0,0,0,857.9,599l45.91-52.44a3.12,3.12,0,1,0-4.69-4.11l-43.74,50-16.47-16.22V547.62h47.43a3.12,3.12,0,0,0,0-6.23H835.79a3.11,3.11,0,0,0-3.11,3.11v33a3.13,3.13,0,0,0,.93,2.22Z"/><path class="cls-2" d="M901.46,557.89a3.12,3.12,0,0,0-3.12,3.12v46H838.91V593.17a3.12,3.12,0,0,0-6.23,0v17a3.12,3.12,0,0,0,3.11,3.12h65.67a3.12,3.12,0,0,0,3.12-3.12V561A3.12,3.12,0,0,0,901.46,557.89Z"/><path class="cls-2" d="M883.89,478.17a3.09,3.09,0,0,0-2.19-.9h-.11a3.13,3.13,0,0,0-2.23,1.07l-45.91,52.44a3.12,3.12,0,1,0,4.69,4.11l43.73-50,16.47,16.22v28.57H850.92a3.12,3.12,0,1,0,0,6.23h50.54a3.12,3.12,0,0,0,3.12-3.11v-33a3.13,3.13,0,0,0-.93-2.22Z"/><path class="cls-2" d="M835.79,519.45a3.12,3.12,0,0,0,3.12-3.11V470.29h59.43v13.88a3.12,3.12,0,0,0,6.24,0v-17a3.12,3.12,0,0,0-3.12-3.12H835.79a3.12,3.12,0,0,0-3.11,3.12v49.17A3.11,3.11,0,0,0,835.79,519.45Z"/><path class="cls-2" d="M808.09,478.17a3.08,3.08,0,0,0-2.19-.9h-.11a3.15,3.15,0,0,0-2.23,1.07l-45.91,52.44a3.12,3.12,0,1,0,4.69,4.11l43.73-50,16.48,16.22v28.57H775.12a3.12,3.12,0,1,0,0,6.23h50.54a3.12,3.12,0,0,0,3.12-3.11v-33a3.13,3.13,0,0,0-.93-2.22Z"/><path class="cls-2" d="M760,519.45a3.12,3.12,0,0,0,3.11-3.11V470.29h59.44v13.88a3.12,3.12,0,0,0,6.23,0v-17a3.12,3.12,0,0,0-3.12-3.12H760a3.12,3.12,0,0,0-3.12,3.12v49.17A3.12,3.12,0,0,0,760,519.45Z"/><path class="cls-2" d="M928.61,599.17a3.11,3.11,0,0,0,2.19.9h.11a3.13,3.13,0,0,0,2.23-1.07l45.92-52.44a3.13,3.13,0,0,0-2.56-5.17,3.15,3.15,0,0,0-2.14,1.06l-43.73,50-16.47-16.22V547.62h47.43a3.12,3.12,0,0,0,0-6.23H911a3.12,3.12,0,0,0-3.12,3.11v33a3.13,3.13,0,0,0,.93,2.22Z"/><path class="cls-2" d="M976.71,557.89a3.12,3.12,0,0,0-3.12,3.12v46H914.16V593.17a3.12,3.12,0,0,0-6.24,0v17a3.12,3.12,0,0,0,3.12,3.12h65.67a3.12,3.12,0,0,0,3.12-3.12V561A3.12,3.12,0,0,0,976.71,557.89Z"/><path class="cls-2" d="M1004.41,599.17a3.09,3.09,0,0,0,2.19.9h.11a3.13,3.13,0,0,0,2.23-1.07l45.91-52.44a3.12,3.12,0,1,0-4.69-4.11l-43.73,50L990,576.19V547.62h47.42a3.12,3.12,0,1,0,0-6.23H986.84a3.12,3.12,0,0,0-3.12,3.11v33a3.13,3.13,0,0,0,.93,2.22Z"/><path class="cls-2" d="M1052.51,557.89a3.12,3.12,0,0,0-3.12,3.12v46H990V593.17a3.12,3.12,0,0,0-6.24,0v17a3.12,3.12,0,0,0,3.12,3.12h65.67a3.12,3.12,0,0,0,3.11-3.12V561A3.12,3.12,0,0,0,1052.51,557.89Z"/><path class="cls-2" d="M1034.94,478.17a3.11,3.11,0,0,0-2.19-.9h-.12a3.16,3.16,0,0,0-2.23,1.07l-45.91,52.44a3.13,3.13,0,0,0,2.56,5.17,3.07,3.07,0,0,0,2.13-1.06l43.74-50,16.47,16.22v28.57H1002a3.12,3.12,0,0,0,0,6.23h50.55a3.11,3.11,0,0,0,3.11-3.11v-33a3.13,3.13,0,0,0-.93-2.22Z"/><path class="cls-2" d="M986.84,519.45a3.12,3.12,0,0,0,3.12-3.11V470.29h59.43v13.88a3.12,3.12,0,0,0,6.23,0v-17a3.12,3.12,0,0,0-3.11-3.12H986.84a3.12,3.12,0,0,0-3.12,3.12v49.17A3.12,3.12,0,0,0,986.84,519.45Z"/><path class="cls-2" d="M959.14,478.17a3.11,3.11,0,0,0-2.19-.9h-.11a3.13,3.13,0,0,0-2.23,1.07L908.7,530.78a3.12,3.12,0,1,0,4.69,4.11l43.73-50,16.47,16.22v28.57H926.16a3.12,3.12,0,0,0,0,6.23h50.55a3.12,3.12,0,0,0,3.12-3.11v-33a3.13,3.13,0,0,0-.93-2.22Z"/><path class="cls-2" d="M911,519.45a3.12,3.12,0,0,0,3.12-3.11V470.29h59.43v13.88a3.12,3.12,0,0,0,6.24,0v-17a3.12,3.12,0,0,0-3.12-3.12H911a3.12,3.12,0,0,0-3.12,3.12v49.17A3.12,3.12,0,0,0,911,519.45Z"/><path class="cls-2" d="M474.93,599.17a3.08,3.08,0,0,0,2.19.9h.11a3.16,3.16,0,0,0,2.23-1.07l45.91-52.44a3.12,3.12,0,1,0-4.69-4.11l-43.74,50-16.47-16.22V547.62H507.9a3.12,3.12,0,1,0,0-6.23H457.36a3.12,3.12,0,0,0-3.12,3.11v33a3.13,3.13,0,0,0,.93,2.22Z"/><path class="cls-2" d="M523,557.89a3.12,3.12,0,0,0-3.11,3.12v46H460.47V593.17a3.12,3.12,0,0,0-6.23,0v17a3.12,3.12,0,0,0,3.12,3.12H523a3.12,3.12,0,0,0,3.12-3.12V561A3.12,3.12,0,0,0,523,557.89Z"/><path class="cls-2" d="M550.72,599.17a3.11,3.11,0,0,0,2.19.9H553a3.16,3.16,0,0,0,2.23-1.07l45.91-52.44a3.13,3.13,0,0,0-2.56-5.17,3.15,3.15,0,0,0-2.14,1.06l-43.73,50-16.47-16.22V547.62H583.7a3.12,3.12,0,0,0,0-6.23H533.15A3.11,3.11,0,0,0,530,544.5v33a3.09,3.09,0,0,0,.93,2.22Z"/><path class="cls-2" d="M598.82,557.89A3.12,3.12,0,0,0,595.7,561v46H536.27V593.17a3.12,3.12,0,0,0-6.23,0v17a3.12,3.12,0,0,0,3.11,3.12h65.67a3.12,3.12,0,0,0,3.12-3.12V561A3.12,3.12,0,0,0,598.82,557.89Z"/><path class="cls-2" d="M581.25,478.17a3.09,3.09,0,0,0-2.19-.9H579a3.13,3.13,0,0,0-2.23,1.07l-45.91,52.44a3.12,3.12,0,1,0,4.69,4.11l43.73-50,16.47,16.22v28.57H548.28a3.12,3.12,0,1,0,0,6.23h50.54a3.12,3.12,0,0,0,3.12-3.11v-33a3.13,3.13,0,0,0-.93-2.22Z"/><path class="cls-2" d="M533.15,519.45a3.12,3.12,0,0,0,3.12-3.11V470.29H595.7v13.88a3.12,3.12,0,0,0,6.24,0v-17a3.12,3.12,0,0,0-3.12-3.12H533.15a3.12,3.12,0,0,0-3.11,3.12v49.17A3.11,3.11,0,0,0,533.15,519.45Z"/><path class="cls-2" d="M505.45,478.17a3.09,3.09,0,0,0-2.19-.9h-.11a3.15,3.15,0,0,0-2.23,1.07L455,530.78a3.12,3.12,0,1,0,4.69,4.11l43.73-50,16.47,16.22v28.57H472.48a3.12,3.12,0,1,0,0,6.23H523a3.12,3.12,0,0,0,3.12-3.11v-33a3.13,3.13,0,0,0-.93-2.22Z"/><path class="cls-2" d="M457.35,519.45a3.12,3.12,0,0,0,3.12-3.11V470.29H519.9v13.88a3.12,3.12,0,0,0,6.24,0v-17a3.12,3.12,0,0,0-3.12-3.12H457.35a3.12,3.12,0,0,0-3.11,3.12v49.17A3.12,3.12,0,0,0,457.35,519.45Z"/><path class="cls-2" d="M626,599.17a3.09,3.09,0,0,0,2.19.9h.11A3.13,3.13,0,0,0,630.5,599l45.91-52.44a3.12,3.12,0,0,0-2.55-5.17,3.15,3.15,0,0,0-2.14,1.06l-43.73,50-16.47-16.22V547.62h47.42a3.12,3.12,0,1,0,0-6.23H608.4a3.12,3.12,0,0,0-3.12,3.11v33a3.13,3.13,0,0,0,.93,2.22Z"/><path class="cls-2" d="M674.07,557.89A3.12,3.12,0,0,0,671,561v46H611.52V593.17a3.12,3.12,0,0,0-6.24,0v17a3.12,3.12,0,0,0,3.12,3.12h65.67a3.12,3.12,0,0,0,3.12-3.12V561A3.12,3.12,0,0,0,674.07,557.89Z"/><path class="cls-2" d="M701.77,599.17a3.08,3.08,0,0,0,2.19.9h.11A3.15,3.15,0,0,0,706.3,599l45.91-52.44a3.12,3.12,0,1,0-4.69-4.11l-43.73,50-16.48-16.22V547.62h47.43a3.12,3.12,0,1,0,0-6.23H684.2a3.12,3.12,0,0,0-3.12,3.11v33a3.13,3.13,0,0,0,.93,2.22Z"/><path class="cls-2" d="M749.87,557.89a3.12,3.12,0,0,0-3.12,3.12v46H687.31V593.17a3.12,3.12,0,0,0-6.23,0v17a3.12,3.12,0,0,0,3.12,3.12h65.67a3.12,3.12,0,0,0,3.11-3.12V561A3.12,3.12,0,0,0,749.87,557.89Z"/><path class="cls-2" d="M732.29,478.17a3.08,3.08,0,0,0-2.19-.9H730a3.16,3.16,0,0,0-2.23,1.07l-45.91,52.44A3.12,3.12,0,0,0,684.4,536a3.07,3.07,0,0,0,2.14-1.06l43.74-50,16.47,16.22v28.57H699.32a3.12,3.12,0,1,0,0,6.23h50.55a3.11,3.11,0,0,0,3.11-3.11v-33a3.13,3.13,0,0,0-.93-2.22Z"/><path class="cls-2" d="M684.2,519.45a3.11,3.11,0,0,0,3.11-3.11V470.29h59.44v13.88a3.12,3.12,0,0,0,6.23,0v-17a3.12,3.12,0,0,0-3.11-3.12H684.2a3.12,3.12,0,0,0-3.12,3.12v49.17A3.12,3.12,0,0,0,684.2,519.45Z"/><path class="cls-2" d="M656.5,478.17a3.11,3.11,0,0,0-2.19-.9h-.12a3.16,3.16,0,0,0-2.23,1.07l-45.91,52.44a3.13,3.13,0,0,0,2.56,5.17,3.07,3.07,0,0,0,2.13-1.06l43.74-50L671,501.15v28.57H623.52a3.12,3.12,0,0,0,0,6.23h50.55a3.11,3.11,0,0,0,3.11-3.11v-33a3.09,3.09,0,0,0-.93-2.22Z"/><path class="cls-2" d="M608.4,519.45a3.12,3.12,0,0,0,3.12-3.11V470.29H671v13.88a3.12,3.12,0,0,0,6.23,0v-17a3.12,3.12,0,0,0-3.11-3.12H608.4a3.12,3.12,0,0,0-3.12,3.12v49.17A3.12,3.12,0,0,0,608.4,519.45Z"/><path class="cls-2" d="M172.28,599.17a3.12,3.12,0,0,0,2.2.9h.11a3.16,3.16,0,0,0,2.23-1.07l45.91-52.44a3.12,3.12,0,1,0-4.69-4.11l-43.74,50-16.47-16.22V547.62h47.43a3.12,3.12,0,0,0,0-6.23H154.71a3.12,3.12,0,0,0-3.11,3.11v33a3.13,3.13,0,0,0,.93,2.22Z"/><path class="cls-2" d="M220.38,557.89a3.12,3.12,0,0,0-3.12,3.12v46H157.83V593.17a3.12,3.12,0,0,0-6.23,0v17a3.12,3.12,0,0,0,3.11,3.12h65.67a3.12,3.12,0,0,0,3.12-3.12V561A3.12,3.12,0,0,0,220.38,557.89Z"/><path class="cls-2" d="M248.08,599.17a3.09,3.09,0,0,0,2.19.9h.11a3.13,3.13,0,0,0,2.23-1.07l45.91-52.44a3.12,3.12,0,0,0-2.55-5.17,3.15,3.15,0,0,0-2.14,1.06l-43.73,50-16.47-16.22V547.62h47.42a3.12,3.12,0,1,0,0-6.23H230.51a3.12,3.12,0,0,0-3.12,3.11v33a3.13,3.13,0,0,0,.93,2.22Z"/><path class="cls-2" d="M296.18,557.89a3.12,3.12,0,0,0-3.12,3.12v46H233.63V593.17a3.12,3.12,0,0,0-6.24,0v17a3.12,3.12,0,0,0,3.12,3.12h65.67a3.12,3.12,0,0,0,3.12-3.12V561A3.12,3.12,0,0,0,296.18,557.89Z"/><path class="cls-2" d="M278.61,478.17a3.11,3.11,0,0,0-2.19-.9h-.11a3.13,3.13,0,0,0-2.23,1.07l-45.91,52.44a3.12,3.12,0,1,0,4.69,4.11l43.73-50,16.47,16.22v28.57H245.63a3.12,3.12,0,0,0,0,6.23h50.55a3.12,3.12,0,0,0,3.12-3.11v-33a3.13,3.13,0,0,0-.93-2.22Z"/><path class="cls-2" d="M230.51,519.45a3.12,3.12,0,0,0,3.12-3.11V470.29h59.43v13.88a3.12,3.12,0,0,0,6.24,0v-17a3.12,3.12,0,0,0-3.12-3.12H230.51a3.12,3.12,0,0,0-3.12,3.12v49.17A3.12,3.12,0,0,0,230.51,519.45Z"/><path class="cls-2" d="M202.81,478.17a3.09,3.09,0,0,0-2.19-.9h-.11a3.13,3.13,0,0,0-2.23,1.07l-45.91,52.44a3.12,3.12,0,1,0,4.69,4.11l43.73-50,16.47,16.22v28.57H169.84a3.12,3.12,0,1,0,0,6.23h50.54a3.12,3.12,0,0,0,3.12-3.11v-33a3.13,3.13,0,0,0-.93-2.22Z"/><path class="cls-2" d="M154.71,519.45a3.12,3.12,0,0,0,3.12-3.11V470.29h59.43v13.88a3.12,3.12,0,0,0,6.24,0v-17a3.12,3.12,0,0,0-3.12-3.12H154.71a3.12,3.12,0,0,0-3.11,3.12v49.17A3.11,3.11,0,0,0,154.71,519.45Z"/><path class="cls-2" d="M323.33,599.17a3.09,3.09,0,0,0,2.19.9h.11a3.13,3.13,0,0,0,2.23-1.07l45.91-52.44a3.12,3.12,0,1,0-4.69-4.11l-43.73,50-16.47-16.22V547.62H356.3a3.12,3.12,0,1,0,0-6.23H305.76a3.12,3.12,0,0,0-3.12,3.11v33a3.13,3.13,0,0,0,.93,2.22Z"/><path class="cls-2" d="M371.43,557.89a3.12,3.12,0,0,0-3.12,3.12v46H308.88V593.17a3.12,3.12,0,0,0-6.24,0v17a3.12,3.12,0,0,0,3.12,3.12h65.67a3.12,3.12,0,0,0,3.11-3.12V561A3.12,3.12,0,0,0,371.43,557.89Z"/><path class="cls-2" d="M399.13,599.17a3.08,3.08,0,0,0,2.19.9h.11a3.15,3.15,0,0,0,2.23-1.07l45.91-52.44a3.12,3.12,0,1,0-4.69-4.11l-43.73,50-16.48-16.22V547.62H432.1a3.12,3.12,0,1,0,0-6.23H381.56a3.12,3.12,0,0,0-3.12,3.11v33a3.13,3.13,0,0,0,.93,2.22Z"/><path class="cls-2" d="M447.22,557.89a3.12,3.12,0,0,0-3.11,3.12v46H384.67V593.17a3.12,3.12,0,0,0-6.23,0v17a3.12,3.12,0,0,0,3.12,3.12h65.66a3.12,3.12,0,0,0,3.12-3.12V561A3.12,3.12,0,0,0,447.22,557.89Z"/><path class="cls-2" d="M429.65,478.17a3.08,3.08,0,0,0-2.19-.9h-.11a3.15,3.15,0,0,0-2.23,1.07l-45.91,52.44a3.12,3.12,0,1,0,4.69,4.11l43.73-50,16.48,16.22v28.57H396.68a3.12,3.12,0,1,0,0,6.23h50.54a3.12,3.12,0,0,0,3.12-3.11v-33a3.13,3.13,0,0,0-.93-2.22Z"/><path class="cls-2" d="M381.56,519.45a3.12,3.12,0,0,0,3.11-3.11V470.29h59.44v13.88a3.12,3.12,0,0,0,6.23,0v-17a3.12,3.12,0,0,0-3.12-3.12H381.56a3.12,3.12,0,0,0-3.12,3.12v49.17A3.12,3.12,0,0,0,381.56,519.45Z"/><path class="cls-2" d="M353.86,478.17a3.12,3.12,0,0,0-2.2-.9h-.11a3.16,3.16,0,0,0-2.23,1.07l-45.91,52.44A3.13,3.13,0,0,0,306,536a3.07,3.07,0,0,0,2.13-1.06l43.74-50,16.47,16.22v28.57H320.88a3.12,3.12,0,0,0,0,6.23h50.55a3.11,3.11,0,0,0,3.11-3.11v-33a3.13,3.13,0,0,0-.93-2.22Z"/><path class="cls-2" d="M305.76,519.45a3.12,3.12,0,0,0,3.12-3.11V470.29h59.43v13.88a3.12,3.12,0,0,0,6.23,0v-17a3.12,3.12,0,0,0-3.11-3.12H305.76a3.12,3.12,0,0,0-3.12,3.12v49.17A3.12,3.12,0,0,0,305.76,519.45Z"/><path class="cls-2" d="M777.57,753.84a3.08,3.08,0,0,0,2.19.9h.11a3.14,3.14,0,0,0,2.23-1.06L828,701.23a3.12,3.12,0,1,0-4.69-4.11l-43.73,50-16.48-16.22V702.29h47.43a3.12,3.12,0,1,0,0-6.23H760a3.12,3.12,0,0,0-3.12,3.12v33a3.13,3.13,0,0,0,.93,2.22Z"/><path class="cls-2" d="M825.66,712.56a3.12,3.12,0,0,0-3.11,3.12v46.05H763.11V747.84a3.12,3.12,0,0,0-6.23,0v17A3.12,3.12,0,0,0,760,768h65.66a3.12,3.12,0,0,0,3.12-3.12V715.68A3.12,3.12,0,0,0,825.66,712.56Z"/><path class="cls-2" d="M853.36,753.84a3.11,3.11,0,0,0,2.19.9h.12a3.15,3.15,0,0,0,2.23-1.06l45.91-52.45a3.12,3.12,0,1,0-4.69-4.11l-43.74,50-16.47-16.22V702.29h47.43a3.12,3.12,0,0,0,0-6.23H835.79a3.12,3.12,0,0,0-3.11,3.12v33a3.13,3.13,0,0,0,.93,2.22Z"/><path class="cls-2" d="M901.46,712.56a3.12,3.12,0,0,0-3.12,3.12v46.05H838.91V747.84a3.12,3.12,0,0,0-6.23,0v17a3.12,3.12,0,0,0,3.11,3.12h65.67a3.12,3.12,0,0,0,3.12-3.12V715.68A3.12,3.12,0,0,0,901.46,712.56Z"/><path class="cls-2" d="M883.89,632.84a3.09,3.09,0,0,0-2.19-.9h-.11a3.08,3.08,0,0,0-2.23,1.06l-45.91,52.44a3.12,3.12,0,1,0,4.69,4.11l43.73-50,16.47,16.22v28.57H850.92a3.12,3.12,0,1,0,0,6.23h50.54a3.12,3.12,0,0,0,3.12-3.11v-33a3.13,3.13,0,0,0-.93-2.22Z"/><path class="cls-2" d="M835.79,674.12a3.12,3.12,0,0,0,3.12-3.11V625h59.43v13.88a3.12,3.12,0,0,0,6.24,0v-17a3.12,3.12,0,0,0-3.12-3.12H835.79a3.12,3.12,0,0,0-3.11,3.12V671A3.11,3.11,0,0,0,835.79,674.12Z"/><path class="cls-2" d="M808.09,632.84a3.08,3.08,0,0,0-2.19-.9h-.11a3.1,3.1,0,0,0-2.23,1.06l-45.91,52.44a3.12,3.12,0,1,0,4.69,4.11l43.73-50,16.48,16.22v28.57H775.12a3.12,3.12,0,1,0,0,6.23h50.54a3.12,3.12,0,0,0,3.12-3.11v-33a3.13,3.13,0,0,0-.93-2.22Z"/><path class="cls-2" d="M760,674.12a3.12,3.12,0,0,0,3.11-3.11V625h59.44v13.88a3.12,3.12,0,0,0,6.23,0v-17a3.12,3.12,0,0,0-3.12-3.12H760a3.12,3.12,0,0,0-3.12,3.12V671A3.12,3.12,0,0,0,760,674.12Z"/><path class="cls-2" d="M928.61,753.84a3.11,3.11,0,0,0,2.19.9h.11a3.12,3.12,0,0,0,2.23-1.06l45.92-52.45a3.13,3.13,0,0,0-2.56-5.17,3.15,3.15,0,0,0-2.14,1.06l-43.73,50-16.47-16.22V702.29h47.43a3.12,3.12,0,0,0,0-6.23H911a3.12,3.12,0,0,0-3.12,3.12v33a3.13,3.13,0,0,0,.93,2.22Z"/><path class="cls-2" d="M976.71,712.56a3.12,3.12,0,0,0-3.12,3.12v46.05H914.16V747.84a3.12,3.12,0,0,0-6.24,0v17A3.12,3.12,0,0,0,911,768h65.67a3.12,3.12,0,0,0,3.12-3.12V715.68A3.12,3.12,0,0,0,976.71,712.56Z"/><path class="cls-2" d="M1004.41,753.84a3.09,3.09,0,0,0,2.19.9h.11a3.12,3.12,0,0,0,2.23-1.06l45.91-52.45a3.12,3.12,0,1,0-4.69-4.11l-43.73,50L990,730.86V702.29h47.42a3.12,3.12,0,1,0,0-6.23H986.84a3.12,3.12,0,0,0-3.12,3.12v33a3.13,3.13,0,0,0,.93,2.22Z"/><path class="cls-2" d="M1052.51,712.56a3.12,3.12,0,0,0-3.12,3.12v46.05H990V747.84a3.12,3.12,0,0,0-6.24,0v17a3.12,3.12,0,0,0,3.12,3.12h65.67a3.12,3.12,0,0,0,3.11-3.12V715.68A3.12,3.12,0,0,0,1052.51,712.56Z"/><path class="cls-2" d="M1034.94,632.84a3.11,3.11,0,0,0-2.19-.9h-.12a3.12,3.12,0,0,0-2.23,1.06l-45.91,52.44a3.13,3.13,0,0,0,2.56,5.17,3.07,3.07,0,0,0,2.13-1.06l43.74-50,16.47,16.22v28.57H1002a3.12,3.12,0,0,0,0,6.23h50.55a3.11,3.11,0,0,0,3.11-3.11v-33a3.13,3.13,0,0,0-.93-2.22Z"/><path class="cls-2" d="M986.84,674.12A3.12,3.12,0,0,0,990,671V625h59.43v13.88a3.12,3.12,0,0,0,6.23,0v-17a3.12,3.12,0,0,0-3.11-3.12H986.84a3.12,3.12,0,0,0-3.12,3.12V671A3.12,3.12,0,0,0,986.84,674.12Z"/><path class="cls-2" d="M959.14,632.84a3.11,3.11,0,0,0-2.19-.9h-.11a3.08,3.08,0,0,0-2.23,1.06L908.7,685.45a3.12,3.12,0,1,0,4.69,4.11l43.73-50,16.47,16.22v28.57H926.16a3.12,3.12,0,0,0,0,6.23h50.55a3.12,3.12,0,0,0,3.12-3.11v-33a3.13,3.13,0,0,0-.93-2.22Z"/><path class="cls-2" d="M911,674.12a3.12,3.12,0,0,0,3.12-3.11V625h59.43v13.88a3.12,3.12,0,0,0,6.24,0v-17a3.12,3.12,0,0,0-3.12-3.12H911a3.12,3.12,0,0,0-3.12,3.12V671A3.12,3.12,0,0,0,911,674.12Z"/><path class="cls-2" d="M474.93,753.84a3.08,3.08,0,0,0,2.19.9h.11a3.15,3.15,0,0,0,2.23-1.06l45.91-52.45a3.12,3.12,0,1,0-4.69-4.11l-43.74,50-16.47-16.22V702.29H507.9a3.12,3.12,0,1,0,0-6.23H457.36a3.12,3.12,0,0,0-3.12,3.12v33a3.13,3.13,0,0,0,.93,2.22Z"/><path class="cls-2" d="M523,712.56a3.12,3.12,0,0,0-3.11,3.12v46.05H460.47V747.84a3.12,3.12,0,0,0-6.23,0v17a3.12,3.12,0,0,0,3.12,3.12H523a3.12,3.12,0,0,0,3.12-3.12V715.68A3.12,3.12,0,0,0,523,712.56Z"/><path class="cls-2" d="M550.72,753.84a3.11,3.11,0,0,0,2.19.9H553a3.15,3.15,0,0,0,2.23-1.06l45.91-52.45a3.13,3.13,0,0,0-2.56-5.17,3.15,3.15,0,0,0-2.14,1.06l-43.73,50-16.47-16.22V702.29H583.7a3.12,3.12,0,0,0,0-6.23H533.15a3.12,3.12,0,0,0-3.11,3.12v33a3.09,3.09,0,0,0,.93,2.22Z"/><path class="cls-2" d="M598.82,712.56a3.12,3.12,0,0,0-3.12,3.12v46.05H536.27V747.84a3.12,3.12,0,0,0-6.23,0v17a3.12,3.12,0,0,0,3.11,3.12h65.67a3.12,3.12,0,0,0,3.12-3.12V715.68A3.12,3.12,0,0,0,598.82,712.56Z"/><path class="cls-2" d="M581.25,632.84a3.09,3.09,0,0,0-2.19-.9H579a3.08,3.08,0,0,0-2.23,1.06l-45.91,52.44a3.12,3.12,0,1,0,4.69,4.11l43.73-50,16.47,16.22v28.57H548.28a3.12,3.12,0,1,0,0,6.23h50.54a3.12,3.12,0,0,0,3.12-3.11v-33a3.13,3.13,0,0,0-.93-2.22Z"/><path class="cls-2" d="M533.15,674.12a3.12,3.12,0,0,0,3.12-3.11V625H595.7v13.88a3.12,3.12,0,0,0,6.24,0v-17a3.12,3.12,0,0,0-3.12-3.12H533.15a3.12,3.12,0,0,0-3.11,3.12V671A3.11,3.11,0,0,0,533.15,674.12Z"/><path class="cls-2" d="M505.45,632.84a3.09,3.09,0,0,0-2.19-.9h-.11a3.1,3.1,0,0,0-2.23,1.06L455,685.45a3.12,3.12,0,1,0,4.69,4.11l43.73-50,16.47,16.22v28.57H472.48a3.12,3.12,0,1,0,0,6.23H523a3.12,3.12,0,0,0,3.12-3.11v-33a3.13,3.13,0,0,0-.93-2.22Z"/><path class="cls-2" d="M457.35,674.12a3.12,3.12,0,0,0,3.12-3.11V625H519.9v13.88a3.12,3.12,0,0,0,6.24,0v-17a3.12,3.12,0,0,0-3.12-3.12H457.35a3.12,3.12,0,0,0-3.11,3.12V671A3.12,3.12,0,0,0,457.35,674.12Z"/><path class="cls-2" d="M626,753.84a3.09,3.09,0,0,0,2.19.9h.11a3.12,3.12,0,0,0,2.23-1.06l45.91-52.45a3.12,3.12,0,0,0-2.55-5.17,3.15,3.15,0,0,0-2.14,1.06l-43.73,50-16.47-16.22V702.29h47.42a3.12,3.12,0,1,0,0-6.23H608.4a3.12,3.12,0,0,0-3.12,3.12v33a3.13,3.13,0,0,0,.93,2.22Z"/><path class="cls-2" d="M674.07,712.56a3.12,3.12,0,0,0-3.12,3.12v46.05H611.52V747.84a3.12,3.12,0,0,0-6.24,0v17A3.12,3.12,0,0,0,608.4,768h65.67a3.12,3.12,0,0,0,3.12-3.12V715.68A3.12,3.12,0,0,0,674.07,712.56Z"/><path class="cls-2" d="M701.77,753.84a3.08,3.08,0,0,0,2.19.9h.11a3.14,3.14,0,0,0,2.23-1.06l45.91-52.45a3.12,3.12,0,1,0-4.69-4.11l-43.73,50-16.48-16.22V702.29h47.43a3.12,3.12,0,1,0,0-6.23H684.2a3.12,3.12,0,0,0-3.12,3.12v33a3.13,3.13,0,0,0,.93,2.22Z"/><path class="cls-2" d="M749.87,712.56a3.12,3.12,0,0,0-3.12,3.12v46.05H687.31V747.84a3.12,3.12,0,0,0-6.23,0v17A3.12,3.12,0,0,0,684.2,768h65.67a3.12,3.12,0,0,0,3.11-3.12V715.68A3.12,3.12,0,0,0,749.87,712.56Z"/><path class="cls-2" d="M732.29,632.84a3.08,3.08,0,0,0-2.19-.9H730a3.12,3.12,0,0,0-2.23,1.06l-45.91,52.44a3.12,3.12,0,0,0,2.55,5.17,3.07,3.07,0,0,0,2.14-1.06l43.74-50,16.47,16.22v28.57H699.32a3.12,3.12,0,1,0,0,6.23h50.55a3.11,3.11,0,0,0,3.11-3.11v-33a3.13,3.13,0,0,0-.93-2.22Z"/><path class="cls-2" d="M684.2,674.12a3.11,3.11,0,0,0,3.11-3.11V625h59.44v13.88a3.12,3.12,0,0,0,6.23,0v-17a3.12,3.12,0,0,0-3.11-3.12H684.2a3.12,3.12,0,0,0-3.12,3.12V671A3.12,3.12,0,0,0,684.2,674.12Z"/><path class="cls-2" d="M656.5,632.84a3.11,3.11,0,0,0-2.19-.9h-.12A3.12,3.12,0,0,0,652,633l-45.91,52.44a3.13,3.13,0,0,0,2.56,5.17,3.07,3.07,0,0,0,2.13-1.06l43.74-50L671,655.82v28.57H623.52a3.12,3.12,0,0,0,0,6.23h50.55a3.11,3.11,0,0,0,3.11-3.11v-33a3.09,3.09,0,0,0-.93-2.22Z"/><path class="cls-2" d="M608.4,674.12a3.12,3.12,0,0,0,3.12-3.11V625H671v13.88a3.12,3.12,0,0,0,6.23,0v-17a3.12,3.12,0,0,0-3.11-3.12H608.4a3.12,3.12,0,0,0-3.12,3.12V671A3.12,3.12,0,0,0,608.4,674.12Z"/><path class="cls-2" d="M172.28,753.84a3.12,3.12,0,0,0,2.2.9h.11a3.15,3.15,0,0,0,2.23-1.06l45.91-52.45a3.12,3.12,0,1,0-4.69-4.11l-43.74,50-16.47-16.22V702.29h47.43a3.12,3.12,0,0,0,0-6.23H154.71a3.12,3.12,0,0,0-3.11,3.12v33a3.13,3.13,0,0,0,.93,2.22Z"/><path class="cls-2" d="M220.38,712.56a3.12,3.12,0,0,0-3.12,3.12v46.05H157.83V747.84a3.12,3.12,0,0,0-6.23,0v17a3.12,3.12,0,0,0,3.11,3.12h65.67a3.12,3.12,0,0,0,3.12-3.12V715.68A3.12,3.12,0,0,0,220.38,712.56Z"/><path class="cls-2" d="M248.08,753.84a3.09,3.09,0,0,0,2.19.9h.11a3.12,3.12,0,0,0,2.23-1.06l45.91-52.45a3.12,3.12,0,0,0-2.55-5.17,3.15,3.15,0,0,0-2.14,1.06l-43.73,50-16.47-16.22V702.29h47.42a3.12,3.12,0,1,0,0-6.23H230.51a3.12,3.12,0,0,0-3.12,3.12v33a3.13,3.13,0,0,0,.93,2.22Z"/><path class="cls-2" d="M296.18,712.56a3.12,3.12,0,0,0-3.12,3.12v46.05H233.63V747.84a3.12,3.12,0,0,0-6.24,0v17a3.12,3.12,0,0,0,3.12,3.12h65.67a3.12,3.12,0,0,0,3.12-3.12V715.68A3.12,3.12,0,0,0,296.18,712.56Z"/><path class="cls-2" d="M278.61,632.84a3.11,3.11,0,0,0-2.19-.9h-.11a3.08,3.08,0,0,0-2.23,1.06l-45.91,52.44a3.12,3.12,0,1,0,4.69,4.11l43.73-50,16.47,16.22v28.57H245.63a3.12,3.12,0,0,0,0,6.23h50.55a3.12,3.12,0,0,0,3.12-3.11v-33a3.13,3.13,0,0,0-.93-2.22Z"/><path class="cls-2" d="M230.51,674.12a3.12,3.12,0,0,0,3.12-3.11V625h59.43v13.88a3.12,3.12,0,0,0,6.24,0v-17a3.12,3.12,0,0,0-3.12-3.12H230.51a3.12,3.12,0,0,0-3.12,3.12V671A3.12,3.12,0,0,0,230.51,674.12Z"/><path class="cls-2" d="M202.81,632.84a3.09,3.09,0,0,0-2.19-.9h-.11a3.08,3.08,0,0,0-2.23,1.06l-45.91,52.44a3.12,3.12,0,1,0,4.69,4.11l43.73-50,16.47,16.22v28.57H169.84a3.12,3.12,0,1,0,0,6.23h50.54a3.12,3.12,0,0,0,3.12-3.11v-33a3.13,3.13,0,0,0-.93-2.22Z"/><path class="cls-2" d="M154.71,674.12a3.12,3.12,0,0,0,3.12-3.11V625h59.43v13.88a3.12,3.12,0,0,0,6.24,0v-17a3.12,3.12,0,0,0-3.12-3.12H154.71a3.12,3.12,0,0,0-3.11,3.12V671A3.11,3.11,0,0,0,154.71,674.12Z"/><path class="cls-2" d="M20.69,289.83a3.09,3.09,0,0,0,2.19.9H23a3.13,3.13,0,0,0,2.23-1.07l45.91-52.44a3.12,3.12,0,1,0-4.69-4.11l-43.73,50L6.24,266.85V238.28H53.66a3.12,3.12,0,1,0,0-6.23H3.12A3.12,3.12,0,0,0,0,235.16v33a3.13,3.13,0,0,0,.93,2.22Z"/><path class="cls-2" d="M68.79,248.55a3.12,3.12,0,0,0-3.12,3.11v46H6.24V283.83a3.12,3.12,0,0,0-6.24,0v17A3.12,3.12,0,0,0,3.12,304H68.79a3.12,3.12,0,0,0,3.11-3.12V251.66A3.12,3.12,0,0,0,68.79,248.55Z"/><path class="cls-2" d="M96.49,289.83a3.08,3.08,0,0,0,2.19.9h.11a3.16,3.16,0,0,0,2.23-1.07l45.91-52.44a3.12,3.12,0,0,0-2.55-5.17,3.09,3.09,0,0,0-2.14,1.06l-43.74,50L82,266.85V238.28h47.43a3.12,3.12,0,1,0,0-6.23H78.92a3.12,3.12,0,0,0-3.12,3.11v33a3.13,3.13,0,0,0,.93,2.22Z"/><path class="cls-2" d="M144.58,248.55a3.11,3.11,0,0,0-3.11,3.11v46H82V283.83a3.12,3.12,0,0,0-6.23,0v17A3.12,3.12,0,0,0,78.92,304h65.66a3.12,3.12,0,0,0,3.12-3.12V251.66A3.12,3.12,0,0,0,144.58,248.55Z"/><path class="cls-2" d="M127,168.83a3.08,3.08,0,0,0-2.19-.9h-.11a3.15,3.15,0,0,0-2.23,1.07L76.57,221.44a3.12,3.12,0,1,0,4.69,4.11l43.73-50,16.48,16.22v28.57H94a3.12,3.12,0,1,0,0,6.23h50.54a3.12,3.12,0,0,0,3.12-3.11v-33a3.13,3.13,0,0,0-.93-2.22Z"/><path class="cls-2" d="M78.91,210.11A3.12,3.12,0,0,0,82,207V160.94h59.44v13.89a3.12,3.12,0,0,0,6.23,0v-17a3.12,3.12,0,0,0-3.12-3.12H78.91a3.12,3.12,0,0,0-3.11,3.12V207A3.12,3.12,0,0,0,78.91,210.11Z"/><path class="cls-2" d="M51.21,168.83a3.08,3.08,0,0,0-2.19-.9h-.11A3.16,3.16,0,0,0,46.68,169L.77,221.44a3.12,3.12,0,1,0,4.69,4.11l43.74-50,16.47,16.22v28.57H18.24a3.12,3.12,0,1,0,0,6.23H68.78a3.12,3.12,0,0,0,3.12-3.11v-33a3.13,3.13,0,0,0-.93-2.22Z"/><path class="cls-2" d="M3.12,210.11A3.12,3.12,0,0,0,6.23,207V160.94H65.67v13.89a3.12,3.12,0,0,0,6.23,0v-17a3.12,3.12,0,0,0-3.12-3.12H3.12A3.12,3.12,0,0,0,0,157.83V207A3.12,3.12,0,0,0,3.12,210.11Z"/><path class="cls-2" d="M127,91.49a3.07,3.07,0,0,0-2.19-.89h-.11a3.14,3.14,0,0,0-2.23,1.06L76.57,144.11a3.13,3.13,0,0,0,.29,4.4,3.12,3.12,0,0,0,4.4-.3l43.73-50,16.48,16.22V143H94a3.12,3.12,0,1,0,0,6.24h50.54a3.12,3.12,0,0,0,3.12-3.12v-33a3.13,3.13,0,0,0-.93-2.22Z"/><path class="cls-2" d="M78.91,132.78A3.12,3.12,0,0,0,82,129.66v-46h59.44V97.49a3.12,3.12,0,1,0,6.23,0v-17a3.12,3.12,0,0,0-3.12-3.11H78.91a3.11,3.11,0,0,0-3.11,3.11v49.17A3.12,3.12,0,0,0,78.91,132.78Z"/><path class="cls-2" d="M51.21,91.49A3.07,3.07,0,0,0,49,90.6h-.11a3.15,3.15,0,0,0-2.23,1.06L.77,144.11a3.13,3.13,0,0,0,.29,4.4,3.07,3.07,0,0,0,2.26.76,3.05,3.05,0,0,0,2.14-1.06l43.74-50,16.47,16.22V143H18.24a3.12,3.12,0,1,0,0,6.24H68.78a3.12,3.12,0,0,0,3.12-3.12v-33A3.13,3.13,0,0,0,71,111Z"/><path class="cls-2" d="M3.12,132.78a3.12,3.12,0,0,0,3.11-3.12v-46H65.67V97.49a3.12,3.12,0,1,0,6.23,0v-17a3.12,3.12,0,0,0-3.12-3.11H3.12A3.12,3.12,0,0,0,0,80.49v49.17A3.12,3.12,0,0,0,3.12,132.78Z"/><path class="cls-2" d="M127,14.16a3.08,3.08,0,0,0-2.19-.9h-.11a3.14,3.14,0,0,0-2.23,1.06L76.57,66.77a3.12,3.12,0,1,0,4.69,4.11l43.73-50,16.48,16.22V65.71H94a3.12,3.12,0,1,0,0,6.23h50.54a3.12,3.12,0,0,0,3.12-3.12v-33a3.13,3.13,0,0,0-.93-2.22Z"/><path class="cls-2" d="M78.91,55.44A3.12,3.12,0,0,0,82,52.32v-46h59.44V20.16a3.12,3.12,0,0,0,6.23,0v-17A3.12,3.12,0,0,0,144.58,0H78.91A3.12,3.12,0,0,0,75.8,3.16V52.32A3.12,3.12,0,0,0,78.91,55.44Z"/><path class="cls-2" d="M51.21,14.16a3.08,3.08,0,0,0-2.19-.9h-.11a3.15,3.15,0,0,0-2.23,1.06L.77,66.77a3.12,3.12,0,1,0,4.69,4.11l43.74-50L65.67,37.14V65.71H18.24a3.12,3.12,0,1,0,0,6.23H68.78a3.12,3.12,0,0,0,3.12-3.12v-33A3.13,3.13,0,0,0,71,33.61Z"/><path class="cls-2" d="M3.12,55.44a3.12,3.12,0,0,0,3.11-3.12v-46H65.67V20.16a3.12,3.12,0,0,0,6.23,0v-17A3.12,3.12,0,0,0,68.78,0H3.12A3.12,3.12,0,0,0,0,3.16V52.32A3.12,3.12,0,0,0,3.12,55.44Z"/><path class="cls-2" d="M20.69,444.5a3.09,3.09,0,0,0,2.19.9H23a3.13,3.13,0,0,0,2.23-1.07l45.91-52.44a3.12,3.12,0,1,0-4.69-4.11l-43.73,50L6.24,421.52V393H53.66a3.12,3.12,0,1,0,0-6.23H3.12A3.12,3.12,0,0,0,0,389.83v33a3.13,3.13,0,0,0,.93,2.22Z"/><path class="cls-2" d="M68.79,403.22a3.12,3.12,0,0,0-3.12,3.12v46H6.24V438.5a3.12,3.12,0,0,0-6.24,0v17a3.12,3.12,0,0,0,3.12,3.12H68.79a3.12,3.12,0,0,0,3.11-3.12V406.34A3.12,3.12,0,0,0,68.79,403.22Z"/><path class="cls-2" d="M96.49,444.5a3.08,3.08,0,0,0,2.19.9h.11a3.16,3.16,0,0,0,2.23-1.07l45.91-52.44a3.12,3.12,0,0,0-2.55-5.17,3.09,3.09,0,0,0-2.14,1.06l-43.74,50L82,421.52V393h47.43a3.12,3.12,0,1,0,0-6.23H78.92a3.12,3.12,0,0,0-3.12,3.11v33a3.13,3.13,0,0,0,.93,2.22Z"/><path class="cls-2" d="M144.58,403.22a3.12,3.12,0,0,0-3.11,3.12v46H82V438.5a3.12,3.12,0,0,0-6.23,0v17a3.12,3.12,0,0,0,3.12,3.12h65.66a3.12,3.12,0,0,0,3.12-3.12V406.34A3.12,3.12,0,0,0,144.58,403.22Z"/><path class="cls-2" d="M127,323.5a3.08,3.08,0,0,0-2.19-.9h-.11a3.15,3.15,0,0,0-2.23,1.07L76.57,376.11a3.12,3.12,0,1,0,4.69,4.11l43.73-50,16.48,16.22v28.57H94a3.12,3.12,0,1,0,0,6.23h50.54a3.12,3.12,0,0,0,3.12-3.11v-33a3.13,3.13,0,0,0-.93-2.22Z"/><path class="cls-2" d="M78.91,364.78A3.12,3.12,0,0,0,82,361.66v-46h59.44V329.5a3.12,3.12,0,0,0,6.23,0v-17a3.12,3.12,0,0,0-3.12-3.12H78.91a3.12,3.12,0,0,0-3.11,3.12v49.16A3.12,3.12,0,0,0,78.91,364.78Z"/><path class="cls-2" d="M51.21,323.5a3.08,3.08,0,0,0-2.19-.9h-.11a3.16,3.16,0,0,0-2.23,1.07L.77,376.11a3.12,3.12,0,0,0,2.55,5.17,3.09,3.09,0,0,0,2.14-1.06l43.74-50,16.47,16.22v28.57H18.24a3.12,3.12,0,1,0,0,6.23H68.78a3.12,3.12,0,0,0,3.12-3.11v-33A3.13,3.13,0,0,0,71,343Z"/><path class="cls-2" d="M3.12,364.78a3.12,3.12,0,0,0,3.11-3.12v-46H65.67V329.5a3.12,3.12,0,0,0,6.23,0v-17a3.12,3.12,0,0,0-3.12-3.12H3.12A3.12,3.12,0,0,0,0,312.5v49.16A3.12,3.12,0,0,0,3.12,364.78Z"/><path class="cls-2" d="M20.69,599.17a3.09,3.09,0,0,0,2.19.9H23A3.13,3.13,0,0,0,25.22,599l45.91-52.44a3.12,3.12,0,1,0-4.69-4.11l-43.73,50L6.24,576.19V547.62H53.66a3.12,3.12,0,1,0,0-6.23H3.12A3.12,3.12,0,0,0,0,544.5v33a3.13,3.13,0,0,0,.93,2.22Z"/><path class="cls-2" d="M68.79,557.89A3.12,3.12,0,0,0,65.67,561v46H6.24V593.17a3.12,3.12,0,0,0-6.24,0v17a3.12,3.12,0,0,0,3.12,3.12H68.79a3.12,3.12,0,0,0,3.11-3.12V561A3.12,3.12,0,0,0,68.79,557.89Z"/><path class="cls-2" d="M96.49,599.17a3.08,3.08,0,0,0,2.19.9h.11A3.16,3.16,0,0,0,101,599l45.91-52.44a3.12,3.12,0,1,0-4.69-4.11l-43.74,50L82,576.19V547.62h47.43a3.12,3.12,0,1,0,0-6.23H78.92a3.12,3.12,0,0,0-3.12,3.11v33a3.13,3.13,0,0,0,.93,2.22Z"/><path class="cls-2" d="M144.58,557.89a3.12,3.12,0,0,0-3.11,3.12v46H82V593.17a3.12,3.12,0,0,0-6.23,0v17a3.12,3.12,0,0,0,3.12,3.12h65.66a3.12,3.12,0,0,0,3.12-3.12V561A3.12,3.12,0,0,0,144.58,557.89Z"/><path class="cls-2" d="M127,478.17a3.08,3.08,0,0,0-2.19-.9h-.11a3.15,3.15,0,0,0-2.23,1.07L76.57,530.78a3.12,3.12,0,1,0,4.69,4.11l43.73-50,16.48,16.22v28.57H94A3.12,3.12,0,1,0,94,536h50.54a3.12,3.12,0,0,0,3.12-3.11v-33a3.13,3.13,0,0,0-.93-2.22Z"/><path class="cls-2" d="M78.91,519.45A3.12,3.12,0,0,0,82,516.34V470.29h59.44v13.88a3.12,3.12,0,0,0,6.23,0v-17a3.12,3.12,0,0,0-3.12-3.12H78.91a3.12,3.12,0,0,0-3.11,3.12v49.17A3.12,3.12,0,0,0,78.91,519.45Z"/><path class="cls-2" d="M51.21,478.17a3.08,3.08,0,0,0-2.19-.9h-.11a3.16,3.16,0,0,0-2.23,1.07L.77,530.78A3.12,3.12,0,0,0,3.32,536a3.09,3.09,0,0,0,2.14-1.06l43.74-50,16.47,16.22v28.57H18.24a3.12,3.12,0,1,0,0,6.23H68.78a3.12,3.12,0,0,0,3.12-3.11v-33a3.13,3.13,0,0,0-.93-2.22Z"/><path class="cls-2" d="M3.12,519.45a3.11,3.11,0,0,0,3.11-3.11V470.29H65.67v13.88a3.12,3.12,0,0,0,6.23,0v-17a3.12,3.12,0,0,0-3.12-3.12H3.12A3.12,3.12,0,0,0,0,467.17v49.17A3.12,3.12,0,0,0,3.12,519.45Z"/><path class="cls-2" d="M20.69,753.84a3.09,3.09,0,0,0,2.19.9H23a3.12,3.12,0,0,0,2.23-1.06l45.91-52.45a3.12,3.12,0,1,0-4.69-4.11l-43.73,50L6.24,730.86V702.29H53.66a3.12,3.12,0,1,0,0-6.23H3.12A3.12,3.12,0,0,0,0,699.18v33a3.13,3.13,0,0,0,.93,2.22Z"/><path class="cls-2" d="M68.79,712.56a3.12,3.12,0,0,0-3.12,3.12v46.05H6.24V747.84a3.12,3.12,0,0,0-6.24,0v17A3.12,3.12,0,0,0,3.12,768H68.79a3.12,3.12,0,0,0,3.11-3.12V715.68A3.12,3.12,0,0,0,68.79,712.56Z"/><path class="cls-2" d="M96.49,753.84a3.08,3.08,0,0,0,2.19.9h.11a3.15,3.15,0,0,0,2.23-1.06l45.91-52.45a3.12,3.12,0,1,0-4.69-4.11l-43.74,50L82,730.86V702.29h47.43a3.12,3.12,0,1,0,0-6.23H78.92a3.12,3.12,0,0,0-3.12,3.12v33a3.13,3.13,0,0,0,.93,2.22Z"/><path class="cls-2" d="M144.58,712.56a3.12,3.12,0,0,0-3.11,3.12v46.05H82V747.84a3.12,3.12,0,0,0-6.23,0v17A3.12,3.12,0,0,0,78.92,768h65.66a3.12,3.12,0,0,0,3.12-3.12V715.68A3.12,3.12,0,0,0,144.58,712.56Z"/><path class="cls-2" d="M127,632.84a3.08,3.08,0,0,0-2.19-.9h-.11a3.1,3.1,0,0,0-2.23,1.06L76.57,685.45a3.12,3.12,0,1,0,4.69,4.11l43.73-50,16.48,16.22v28.57H94a3.12,3.12,0,1,0,0,6.23h50.54a3.12,3.12,0,0,0,3.12-3.11v-33a3.13,3.13,0,0,0-.93-2.22Z"/><path class="cls-2" d="M78.91,674.12A3.12,3.12,0,0,0,82,671V625h59.44v13.88a3.12,3.12,0,0,0,6.23,0v-17a3.12,3.12,0,0,0-3.12-3.12H78.91a3.12,3.12,0,0,0-3.11,3.12V671A3.12,3.12,0,0,0,78.91,674.12Z"/><path class="cls-2" d="M51.21,632.84a3.08,3.08,0,0,0-2.19-.9h-.11A3.12,3.12,0,0,0,46.68,633L.77,685.45a3.12,3.12,0,0,0,2.55,5.17,3.09,3.09,0,0,0,2.14-1.06l43.74-50,16.47,16.22v28.57H18.24a3.12,3.12,0,1,0,0,6.23H68.78a3.12,3.12,0,0,0,3.12-3.11v-33a3.13,3.13,0,0,0-.93-2.22Z"/><path class="cls-2" d="M3.12,674.12A3.11,3.11,0,0,0,6.23,671V625H65.67v13.88a3.12,3.12,0,0,0,6.23,0v-17a3.12,3.12,0,0,0-3.12-3.12H3.12A3.12,3.12,0,0,0,0,621.84V671A3.12,3.12,0,0,0,3.12,674.12Z"/><path class="cls-2" d="M323.33,753.84a3.09,3.09,0,0,0,2.19.9h.11a3.12,3.12,0,0,0,2.23-1.06l45.91-52.45a3.12,3.12,0,1,0-4.69-4.11l-43.73,50-16.47-16.22V702.29H356.3a3.12,3.12,0,1,0,0-6.23H305.76a3.12,3.12,0,0,0-3.12,3.12v33a3.13,3.13,0,0,0,.93,2.22Z"/><path class="cls-2" d="M371.43,712.56a3.12,3.12,0,0,0-3.12,3.12v46.05H308.88V747.84a3.12,3.12,0,0,0-6.24,0v17a3.12,3.12,0,0,0,3.12,3.12h65.67a3.12,3.12,0,0,0,3.11-3.12V715.68A3.12,3.12,0,0,0,371.43,712.56Z"/><path class="cls-2" d="M399.13,753.84a3.08,3.08,0,0,0,2.19.9h.11a3.14,3.14,0,0,0,2.23-1.06l45.91-52.45a3.12,3.12,0,1,0-4.69-4.11l-43.73,50-16.48-16.22V702.29H432.1a3.12,3.12,0,1,0,0-6.23H381.56a3.12,3.12,0,0,0-3.12,3.12v33a3.13,3.13,0,0,0,.93,2.22Z"/><path class="cls-2" d="M447.22,712.56a3.12,3.12,0,0,0-3.11,3.12v46.05H384.67V747.84a3.12,3.12,0,0,0-6.23,0v17a3.12,3.12,0,0,0,3.12,3.12h65.66a3.12,3.12,0,0,0,3.12-3.12V715.68A3.12,3.12,0,0,0,447.22,712.56Z"/><path class="cls-2" d="M429.65,632.84a3.08,3.08,0,0,0-2.19-.9h-.11a3.1,3.1,0,0,0-2.23,1.06l-45.91,52.44a3.12,3.12,0,1,0,4.69,4.11l43.73-50,16.48,16.22v28.57H396.68a3.12,3.12,0,1,0,0,6.23h50.54a3.12,3.12,0,0,0,3.12-3.11v-33a3.13,3.13,0,0,0-.93-2.22Z"/><path class="cls-2" d="M381.56,674.12a3.12,3.12,0,0,0,3.11-3.11V625h59.44v13.88a3.12,3.12,0,0,0,6.23,0v-17a3.12,3.12,0,0,0-3.12-3.12H381.56a3.12,3.12,0,0,0-3.12,3.12V671A3.12,3.12,0,0,0,381.56,674.12Z"/><path class="cls-2" d="M353.86,632.84a3.12,3.12,0,0,0-2.2-.9h-.11a3.12,3.12,0,0,0-2.23,1.06l-45.91,52.44a3.13,3.13,0,0,0,2.56,5.17,3.07,3.07,0,0,0,2.13-1.06l43.74-50,16.47,16.22v28.57H320.88a3.12,3.12,0,0,0,0,6.23h50.55a3.11,3.11,0,0,0,3.11-3.11v-33a3.13,3.13,0,0,0-.93-2.22Z"/><path class="cls-2" d="M305.76,674.12a3.12,3.12,0,0,0,3.12-3.11V625h59.43v13.88a3.12,3.12,0,0,0,6.23,0v-17a3.12,3.12,0,0,0-3.11-3.12H305.76a3.12,3.12,0,0,0-3.12,3.12V671A3.12,3.12,0,0,0,305.76,674.12Z"/></g></svg>