<svg id="Layer_1" data-name="Layer 1" xmlns="http://www.w3.org/2000/svg" xmlns:xlink="http://www.w3.org/1999/xlink" viewBox="0 0 1064.07 166.26"><defs><style>.cls-1{fill:url(#Yellow_Green);}.cls-2{fill:url(#Yellow_Green-2);}.cls-3{fill:#fff;}</style><linearGradient id="Yellow_Green" x1="170.62" y1="-10.98" x2="52.29" y2="66.3" gradientUnits="userSpaceOnUse"><stop offset="0" stop-color="#d0e3a4"/><stop offset="0.5" stop-color="#abd378"/><stop offset="1" stop-color="#76b83f"/></linearGradient><linearGradient id="Yellow_Green-2" x1="68.49" y1="47.51" x2="89.42" y2="110.3" xlink:href="#Yellow_Green"/></defs><path class="cls-1" d="M57.75,124a5.67,5.67,0,0,0,4,1.64H62a5.73,5.73,0,0,0,4.08-2l84.09-96.06a5.71,5.71,0,0,0-.54-8,5.71,5.71,0,0,0-8,.53l-80.1,91.51L31.28,81.94V29.61h86.86a5.71,5.71,0,0,0,0-11.42H25.57a5.71,5.71,0,0,0-5.71,5.71V84.33a5.76,5.76,0,0,0,1.7,4.07Z"/><path class="cls-2" d="M145.84,48.42a5.71,5.71,0,0,0-5.71,5.71v84.34H31.28V113a5.71,5.71,0,0,0-11.42,0v31.14a5.72,5.72,0,0,0,5.71,5.71H145.84a5.72,5.72,0,0,0,5.71-5.71V54.13A5.71,5.71,0,0,0,145.84,48.42Z"/><path class="cls-3" d="M207,96.12c0,11.19,4.72,17.39,13.07,17.39,7.25,0,11.84-4.76,12-11.45h11.36v1.14c0,12-9.87,20.28-23.42,20.28-15.91,0-25-10.45-25-27.45V89.21c0-17.13,9.05-27.66,25-27.66,13.59,0,23.42,8.52,23.42,21v1.09H232.06c-.13-7.08-4.72-12.11-12-12.11-8.35,0-13.07,6.3-13.07,17.66Z"/><path class="cls-3" d="M290.19,122.34V96.77H265.14v25.57h-11.8V62.69h11.8V86.94h25.05V62.69H302v59.65Z"/><path class="cls-3" d="M353.12,122.34H314.7V62.69h38.42v9.65H326.41v15.3H351.5v9H326.41v16h26.71Z"/><path class="cls-3" d="M373.53,96.12c0,11.19,4.72,17.39,13.06,17.39,7.26,0,11.85-4.76,12-11.45h11.36v1.14c0,12-9.88,20.28-23.42,20.28-15.91,0-25-10.45-25-27.45V89.21c0-17.13,9.05-27.66,25-27.66,13.59,0,23.42,8.52,23.42,21v1.09H398.57c-.13-7.08-4.72-12.11-12-12.11-8.34,0-13.06,6.3-13.06,17.66Z"/><path class="cls-3" d="M446.47,88.38l22.2,34h-14.2l-16.7-26.09-6.12,7v19.14h-11.8V62.69h11.8v26.7h.53l22.59-26.7h13Z"/><path class="cls-3" d="M498.69,62.69c12.81,0,20.15,8.69,20.15,19.88,0,11.36-7.43,19.75-20.28,19.75H486.63v20h-11.8V62.69Zm-12.1,30.37h7.08c8.21,0,13.15-2.4,13.15-10.49,0-6.69-3.89-10.49-10.4-10.49h-9.83Z"/><path class="cls-3" d="M524.74,88.91c0-17,9.7-27.36,25.61-27.36S575.87,72,575.87,88.91v7.65c0,16.82-9.65,26.92-25.61,26.92s-25.52-10.1-25.52-26.92Zm12,7.69c0,11.49,5.68,17,13.55,17s13.59-5.55,13.59-17V88.82c0-11.49-5.68-17.44-13.59-17.44s-13.55,6-13.55,17.44Z"/><path class="cls-3" d="M586.14,122.34V62.69h11.8v59.65Z"/><path class="cls-3" d="M610.62,122.34V62.69h9.83l26.44,39.68h.39V62.69h11v59.65h-9.79L622,82.44h-.35v39.9Z"/><path class="cls-3" d="M682.25,122.34V72.56h-17V62.69H711v9.87h-17v49.78Z"/><path class="cls-3" d="M743.26,105.38c.39,4.64,4.54,8.74,12.36,8.74,7.26,0,11.24-3.32,11.24-8.26,0-4.19-3-6.33-9.18-7.73L748.46,96c-8.18-1.84-15.12-6.47-15.12-16.48,0-11.62,10-18.05,22.24-18.05,12.8,0,22,7,22.16,17.7h-11.1c-.4-4.46-3.93-8.43-11.1-8.43-6.34,0-10.41,3-10.41,7.86,0,3.59,2.8,6,8.18,7.21L762.57,88c8.83,1.92,16,6.16,16,16.82,0,11.71-9.26,18.71-23.64,18.71-17.31,0-23-9.79-23.12-18.1Z"/><path class="cls-3" d="M800.9,122.34V99.66l-20-37H794L806.71,88h.44l12.76-25.3h12.76l-20,36.75v22.9Z"/><path class="cls-3" d="M845.08,105.38c.4,4.64,4.55,8.74,12.37,8.74,7.26,0,11.23-3.32,11.23-8.26,0-4.19-3-6.33-9.17-7.73L850.29,96c-8.18-1.84-15.13-6.47-15.13-16.48,0-11.62,10-18.05,22.25-18.05,12.81,0,22,7,22.16,17.7h-11.1c-.4-4.46-3.94-8.43-11.11-8.43-6.33,0-10.39,3-10.39,7.86,0,3.59,2.79,6,8.17,7.21L864.4,88c8.83,1.92,16,6.16,16,16.82,0,11.71-9.27,18.71-23.64,18.71-17.31,0-22.95-9.79-23.12-18.1Z"/><path class="cls-3" d="M901.46,122.34V72.56h-17V62.69h45.71v9.87h-17v49.78Z"/><path class="cls-3" d="M975.63,122.34H937.21V62.69h38.42v9.65H948.92v15.3H974v9H948.92v16h26.71Z"/><path class="cls-3" d="M986.6,122.34V62.69h12l17,38.5h.35l17-38.5h11.93v59.65h-10.62V82.92h-.48l-14.25,32h-7.69L997.61,82.92h-.48v39.42Z"/></svg>