<svg id="Layer_1" data-name="Layer 1" xmlns="http://www.w3.org/2000/svg" viewBox="0 0 461.8 599.21"><defs><style>.cls-1{fill:#f93;opacity:0.5;}.cls-2{fill:#1e1c1c;}</style></defs><rect class="cls-1" x="17.2" y="24.74" width="427.39" height="549.74" rx="59.92"/><path class="cls-2" d="M147.67,342.23c5.36,0,9.75,3.5,9.75,8.85s-4.39,8.85-9.75,8.85-9.75-3.49-9.75-8.85S142.32,342.23,147.67,342.23Zm-9,24h18v60.2h-18Z"/><path class="cls-2" d="M203.88,349.5c17.7,0,26.94,12.18,26.94,26.72,0,14.77-9.41,26.43-27.17,26.43H190v23.79h-18.6V349.5Zm-14,39.12h7.5c9,0,14.54-3.38,14.54-12.4,0-8-4.79-12.4-12.4-12.4H189.9Z"/><path class="cls-2" d="M255.42,426.44v-60h-.79c-5.07,3.32-11.84,7.66-17.36,11.5v-16.4c5.92-4.18,12.35-8.29,18.37-12.07h18.21v76.94Z"/><path class="cls-2" d="M304,426.44v-60h-.79c-5.07,3.32-11.83,7.66-17.36,11.5v-16.4c5.92-4.18,12.35-8.29,18.38-12.07h18.2v76.94Z"/><path class="cls-2" d="M166,456.65c16.49,0,25.1,11.34,25.1,24.88,0,13.76-8.77,24.63-25.31,24.63H153.05v22.16H135.73V456.65Zm-13,36.44h7c8.35,0,13.55-3.15,13.55-11.56,0-7.45-4.46-11.55-11.55-11.55h-9Z"/><path class="cls-2" d="M257,480.12a21.57,21.57,0,0,1-12.81,20.21l14.28,28H239.22l-12.13-25.57h-9.82v25.57H200.21V456.65h30.35C248.25,456.65,257,466.62,257,480.12Zm-29.14,10.34c6.72,0,11.24-3.41,11.24-10.19,0-7.09-4.89-10.6-11.08-10.6H217.27v20.79Z"/><path class="cls-2" d="M265,488.52c0-20.38,11.81-33.14,32.08-33.14S329,468.25,329,488.52v8.35c0,20.16-11.72,32.76-32,32.76s-32-12.6-32-32.76Zm17.74,8.4c0,12.44,5.78,18.59,14.29,18.59s14.23-6.15,14.23-18.59v-8.61c0-12.39-5.78-18.85-14.23-18.85s-14.29,6.46-14.29,18.85Z"/><path class="cls-2" d="M274.34,308.81H187.46a34.78,34.78,0,0,1-34.74-34.74v-164a34.77,34.77,0,0,1,34.74-34.74h86.88a34.77,34.77,0,0,1,34.74,34.74v164A34.78,34.78,0,0,1,274.34,308.81ZM187.46,91a19.08,19.08,0,0,0-19.06,19.06v164a19.08,19.08,0,0,0,19.06,19.05h86.88a19.08,19.08,0,0,0,19.06-19.05v-164A19.08,19.08,0,0,0,274.34,91Z"/><path class="cls-2" d="M260.78,274.84H201a2.62,2.62,0,1,1,0-5.23h59.76a2.62,2.62,0,0,1,0,5.23Z"/><circle class="cls-2" cx="231.56" cy="103.28" r="3.66"/></svg>