<svg id="Layer_1" data-name="Layer 1" xmlns="http://www.w3.org/2000/svg" viewBox="0 0 461.8 599.21"><defs><style>.cls-1{fill:#f93;opacity:0.5;}.cls-2{fill:#1e1c1c;}</style></defs><rect class="cls-1" x="17.2" y="24.74" width="427.39" height="549.74" rx="59.92"/><path class="cls-2" d="M79.55,379.89c6.8,0,12.35,4.72,12.35,11.52s-5.55,11.45-12.35,11.45-12.36-4.65-12.36-11.45S72.83,379.89,79.55,379.89ZM68.69,413.22H90.5v88H68.69Z"/><path class="cls-2" d="M159.48,388c24.3,0,38.24,16.51,38.24,37.74,0,21.56-14.1,37.48-38.48,37.48H136.6v38H114.2V388Zm-23,57.64H150c15.59,0,25-4.56,25-19.9,0-12.69-7.38-19.91-19.74-19.91H136.51Z"/><path class="cls-2" d="M264.46,444.82,300,501.21H274.24l-24.13-40h-1l-24.05,40H200.68l35.08-57L200.93,388h26.45l23.47,40.72h1.08L275.15,388h25.3Z"/><path class="cls-2" d="M397.29,423.84c0,18.58-12,28.36-20.65,31.76l22.8,45.61h-25L354.58,459H334.43v42.21H312.36V388h45.2C384.43,388,397.29,403.85,397.29,423.84ZM354,442.17c12.6,0,20.15-6.22,20.15-17.92,0-12.44-8.29-18.66-19.82-18.66h-19.9v36.58Z"/><path class="cls-2" d="M274.34,308.81H187.46a34.78,34.78,0,0,1-34.74-34.74v-164a34.77,34.77,0,0,1,34.74-34.74h86.88a34.77,34.77,0,0,1,34.74,34.74v164A34.78,34.78,0,0,1,274.34,308.81ZM187.46,91a19.08,19.08,0,0,0-19.06,19.06v164a19.08,19.08,0,0,0,19.06,19.05h86.88a19.08,19.08,0,0,0,19.06-19.05v-164A19.08,19.08,0,0,0,274.34,91Z"/><path class="cls-2" d="M260.78,274.84H201a2.62,2.62,0,1,1,0-5.23h59.76a2.62,2.62,0,0,1,0,5.23Z"/><circle class="cls-2" cx="231.56" cy="103.28" r="3.66"/></svg>