<svg id="Layer_1" data-name="Layer 1" xmlns="http://www.w3.org/2000/svg" viewBox="0 0 461.8 599.21"><defs><style>.cls-1{fill:#f93;opacity:0.5;}.cls-2{fill:#1e1c1c;}</style></defs><rect class="cls-1" x="17.2" y="24.74" width="427.39" height="549.74" rx="59.92"/><path class="cls-2" d="M81.08,379.89c6.8,0,12.36,4.72,12.36,11.52s-5.56,11.45-12.36,11.45-12.36-4.65-12.36-11.45S74.36,379.89,81.08,379.89ZM70.22,413.23H92v88H70.22Z"/><path class="cls-2" d="M161,388c24.3,0,38.23,16.51,38.23,37.74,0,21.56-14.1,37.48-38.48,37.48H138.13v38H115.74V388Zm-23,57.64h13.44c15.59,0,25-4.56,25-19.9,0-12.69-7.38-19.91-19.74-19.91H138Z"/><path class="cls-2" d="M209.59,470.12c0-18,13.52-26.21,23.72-28.28v-.67c-9.62-3-19.16-10.78-19.16-25.37,0-17.25,15.67-29.94,39.31-29.94s39.31,12.69,39.31,29.94c0,14.76-9.87,22.47-19.24,25.37v.67c10.28,2.07,23.72,10.36,23.72,28.19,0,19.66-17.5,33.34-44,33.34S209.59,489.77,209.59,470.12Zm65.43-1.5c0-11.11-9.37-18.74-21.56-18.74s-21.56,7.63-21.56,18.74,9.29,18.58,21.56,18.58S275,479.74,275,468.62Zm-3.64-50.34c0-9.62-7.63-16.09-17.92-16.09s-17.91,6.47-17.91,16.09,7.63,16.34,17.91,16.34S271.38,427.9,271.38,418.28Z"/><path class="cls-2" d="M362.91,499.31H344.17V464.23h-32.6V445.82h32.6V412h18.74v33.84h32.76v18.41H362.91Z"/><path class="cls-2" d="M274.34,308.81H187.46a34.78,34.78,0,0,1-34.74-34.74v-164a34.77,34.77,0,0,1,34.74-34.74h86.88a34.77,34.77,0,0,1,34.74,34.74v164A34.78,34.78,0,0,1,274.34,308.81ZM187.46,91a19.08,19.08,0,0,0-19.06,19.06v164a19.08,19.08,0,0,0,19.06,19.05h86.88a19.08,19.08,0,0,0,19.06-19.05v-164A19.08,19.08,0,0,0,274.34,91Z"/><path class="cls-2" d="M260.78,274.84H201a2.62,2.62,0,1,1,0-5.23h59.76a2.62,2.62,0,0,1,0,5.23Z"/><circle class="cls-2" cx="231.56" cy="103.28" r="3.66"/></svg>