<svg id="Layer_1" data-name="Layer 1" xmlns="http://www.w3.org/2000/svg" viewBox="0 0 427 316.51"><defs><style>.cls-1{fill:#96c;opacity:0.5;}.cls-2{fill:#1e1c1c;}</style></defs><rect class="cls-1" x="15.71" y="8.41" width="395.59" height="299.69" rx="35.32"/><path class="cls-2" d="M84.57,186.33c1.54,10.06,10.33,16.32,22.48,16.32,11.33,0,23-8.7,23-23.75,0-14.23-10.06-23.48-22.93-23.48-12.33,0-19.31,7.07-22.12,13.14H63.54l5.89-72.78h75.51v19.76H89l-3.08,31.9h.82c2.81-4.07,12.14-10.6,26.55-10.6,21.67,0,40.7,15.77,40.7,41,0,26.92-20.12,44.15-47.58,44.15-28.1,0-43.7-16.32-44.42-35.63Z"/><path class="cls-2" d="M168.5,153.43c0-36,16.95-59.92,47-59.92,30.28,0,46.59,23.75,46.59,59.92V162c0,34.44-15.86,59.92-47,59.92-30.19,0-46.59-24-46.59-59.92Zm24.38,8.43c0,26.47,8.79,40.15,22.39,40.15s22.39-13.78,22.39-40.15v-8.34c0-26.29-8.7-40-22.39-40s-22.39,13.6-22.39,40Z"/><path class="cls-2" d="M343,126.6c-.82-6.35-7.35-13.69-18.31-13.69-15.87,0-25.2,17-25.2,43.42h.9c3.36-8.25,12.78-17.86,29.28-17.86,20.22,0,39.25,14.23,39.25,40.34C368.9,206.27,349,222,324.12,222c-14.68,0-26.56-5.26-34.9-15.6s-12.86-25.65-12.86-45.77c0-43.69,19.3-66.9,48.94-66.9,25.93,0,39.71,17.68,40.61,32.91Zm-18.86,76.05c11.51,0,21.49-7.89,21.49-22.85S335.36,156.87,324,156.87c-12,0-21.66,8.61-21.66,22.93C302.37,194.31,312.34,202.65,324.12,202.65Z"/></svg>