<svg id="Layer_1" data-name="Layer 1" xmlns="http://www.w3.org/2000/svg" viewBox="0 0 266.86 263.51"><path d="M84.05,202.4a10,10,0,0,0,7.09,2.9h.36a10.16,10.16,0,0,0,7.22-3.44L247.25,32.17A10.08,10.08,0,0,0,239,15.47a10,10,0,0,0-6.92,3.42L90.58,180.52,37.29,128.05V35.62H190.73a10.09,10.09,0,0,0,0-20.17H27.21A10.1,10.1,0,0,0,17.12,25.53V132.27a10.15,10.15,0,0,0,3,7.19Z"/><path d="M239.66,68.83a10.11,10.11,0,0,0-10.09,10.09v149H37.29V183a10.09,10.09,0,0,0-20.17,0v55a10.11,10.11,0,0,0,10.09,10.09H239.66A10.1,10.1,0,0,0,249.74,238V78.92A10.1,10.1,0,0,0,239.66,68.83Z"/></svg>