<svg id="Layer_1" data-name="Layer 1" xmlns="http://www.w3.org/2000/svg" viewBox="0 0 266.86 263.51"><path d="M133.43,143.37a58.38,58.38,0,0,1-22.82-4.61c-1.44-.6-2.91-1.33-4.31-2.07s-2.59-1.39-3.86-2.21a59.11,59.11,0,1,1,61.79.12c-1.07.7-2.33,1.4-3.66,2.09s-2.88,1.47-4.35,2.08A58.29,58.29,0,0,1,133.43,143.37Zm0-102.46a43.28,43.28,0,0,0-22.57,80.24c1,.66,1.86,1.11,2.74,1.57s2.06,1.06,3.11,1.5a43.12,43.12,0,0,0,33.41,0c1.09-.45,2.14-1,3.15-1.51s1.72-.91,2.55-1.46a43.27,43.27,0,0,0-22.39-80.35Z"/><path d="M231.89,238.36H35a12.65,12.65,0,0,1-12.66-13.23,111.71,111.71,0,0,1,81.48-99.28l3.13-.87,2.84,1.59a49.22,49.22,0,0,0,47.35,0l2.83-1.6,3.14.88c45.29,12.62,78,52.41,81.46,99v.27a12.64,12.64,0,0,1-12.66,13.23ZM38.36,222.6H228.5a96,96,0,0,0-66.7-80.7,65.14,65.14,0,0,1-56.74,0A95.87,95.87,0,0,0,38.36,222.6Z"/></svg>