<svg id="Layer_1" data-name="Layer 1" xmlns="http://www.w3.org/2000/svg" viewBox="0 0 266.86 263.51"><path d="M39.35,228.34V85.93a21.56,21.56,0,0,1,.58-5.25c1.23-4.87,5.26-12.79,18.88-12.79,1.94,0,4.71.58,5.61-.43,1-1.17.5-3.8.57-5.8.42-11.51,8.47-19.33,20-19.41h5.61c0-2.2,0-4.14,0-6.08.07-6.62,2.64-12.1,8.08-15.83a16.3,16.3,0,0,1,2.69-1.48,28,28,0,0,1,11.5-2.32h97.89a4.46,4.46,0,0,0,.81.36c9.87,2.07,15.95,9.49,15.95,19.54q0,70.32,0,140.65a21.78,21.78,0,0,1-.27,4A19.27,19.27,0,0,1,208,197h-6.21c.55,7.64,0,14.58-5.6,20.11s-12.54,5.89-19.92,5.49c0,2.51,0,7,0,9.21-.23,12.54-5.84,15.16-19.72,15.16l-97,0C47.43,247,39.35,247.06,39.35,228.34ZM54.65,158q0,34.71,0,69.43c0,4.46,1.13,5.58,5.65,5.59h94.94c4.66,0,5.8-1.13,5.8-5.68V88.73c0-4.4-1.22-5.61-5.67-5.61H60.43c-4.63,0-5.78,1.14-5.78,5.7Q54.64,123.43,54.65,158ZM176.3,207.4h4.27c5.05,0,6.14-1.07,6.14-6.07V63.6c0-5.05-1.06-6.11-6.1-6.12H86.34a20.49,20.49,0,0,0-2.48.12c-2,.22-3.3,1.27-3.45,3.26-.17,2.22,0,4.47,0,7h75.27c12.55,0,20.66,8.1,20.66,20.6V207.4ZM105.84,42.25h2.94q22.5,0,45,0,15,0,30.07.07a17.15,17.15,0,0,1,10.41,3.83c5.51,4.22,7.72,9.91,7.71,16.75q-.09,57.8,0,115.57v3.2h4.4c5,0,5.92-.93,5.92-5.92V37.8c0-.76,0-1.51-.05-2.26A3.69,3.69,0,0,0,208.78,32a11.51,11.51,0,0,0-2-.1h-95.4c-.45,0-.91,0-1.36,0-2.59.21-4,1.57-4.13,4.17C105.76,38,105.84,40,105.84,42.25Z"/><path d="M107.69,214.7c-8.51,0-17,.08-25.54,0-5.46-.06-9-4.85-7.54-9.82a7.47,7.47,0,0,1,7.26-5.43q26-.08,52,0a7.62,7.62,0,1,1-.17,15.23C125,214.77,116.36,214.7,107.69,214.7Z"/><path d="M107.68,153.55H82.59c-4.74,0-8.2-3.08-8.33-7.37s3.28-7.88,8.08-7.9q25.55-.1,51.07,0c4.72,0,8.06,3.44,8,7.75s-3.48,7.5-8.19,7.51C124.7,153.57,116.19,153.55,107.68,153.55Z"/><path d="M107.87,184c-8.58,0-17.16,0-25.75,0a7.54,7.54,0,1,1,0-15.06q25.75,0,51.49,0a7.54,7.54,0,0,1,2.62,14.67,10.09,10.09,0,0,1-3.11.38C124.73,184,116.3,184,107.87,184Z"/><path d="M101.76,122.94c-6.47,0-13,0-19.42,0-4.64,0-7.93-3-8.08-7.33a7.42,7.42,0,0,1,7.45-7.73c6.16-.25,12.34-.14,18.51-.16q9.5,0,19,0a27.08,27.08,0,0,1,3.37.18,7.57,7.57,0,0,1,6.61,7.85,7.45,7.45,0,0,1-7.31,7.17C115.17,123,108.46,122.94,101.76,122.94Z"/></svg>