<svg id="Layer_1" data-name="Layer 1" xmlns="http://www.w3.org/2000/svg" viewBox="0 0 266.86 263.51"><g id="BFrehf.tif"><path d="M199.82,97.2c-.88,0-1.76-.13-2.64-.13q-83.82,0-167.64-.07c-2.95,0-3.48.94-3.48,3.66q.14,58.65,0,117.31c0,2.82.47,3.83,3.64,3.82q75.84-.18,151.66-.08c7.79,0,12.26-4.44,12.28-12.17,0-3.63.12-7.26,0-10.88-.09-2.13.68-2.76,2.72-2.67,3.17.14,6.35,0,9.52,0,1.31,0,2.17.24,2.14,1.85-.13,5.55.39,11.18-.37,16.63C205.83,227.34,195.28,236,182,236q-63.93.08-127.85,0c-12.81,0-25.62-.08-38.43.07-3,0-4-.59-4-3.84q.16-86,.07-172.06c0-4.88.16-9.76-.05-14.62-.13-2.77.6-3.67,3.51-3.62,10,.19,20,0,29.92.12,2.59,0,3.38-.73,3.21-3.25-.21-2.94,0-5.9-.07-8.84-.07-1.88.54-2.67,2.5-2.6,3.06.11,6.12.11,9.18,0,2-.08,2.86.58,2.77,2.7-.13,3.17.07,6.35,0,9.52-.07,2,.7,2.49,2.58,2.48q17.34-.12,34.68,0c2,0,2.87-.48,2.76-2.64-.16-3.16.07-6.35-.06-9.51-.09-2,.71-2.57,2.57-2.52,3.17.09,6.35.09,9.52,0,1.81-.05,2.36.7,2.32,2.42-.08,3.29.06,6.58,0,9.86,0,1.71.47,2.41,2.3,2.4q17.68-.11,35.36,0c1.75,0,2.43-.5,2.37-2.31-.11-3.17.14-6.35-.07-9.51-.15-2.36.81-2.93,2.93-2.85,2.94.13,5.9.14,8.84,0,2.15-.12,2.76.73,2.66,2.77-.14,2.71.17,5.45-.07,8.15-.27,2.92.55,3.89,3.67,3.82,9.86-.22,19.72,0,29.58-.15,2.92-.06,3.51.84,3.48,3.61-.15,13.48-.07,27-.05,40.46a5.05,5.05,0,0,0,.69,3.55c2.27-2.4,4.35-4.73,6.56-6.91,3.71-3.67,7.57-3.65,11.3,0q12.9,12.82,25.73,25.72c3.92,4,3.94,7.89,0,11.82Q213.58,159,174.86,197.73a12,12,0,0,1-4.55,2.85q-19.86,7-39.68,14.07c-3.25,1.17-6.25,1.25-8.8-1.35s-2.35-5.58-1.18-8.82q7-19.48,13.79-39a15.27,15.27,0,0,1,3.88-5.87q29.6-29.55,59.18-59.12a25.37,25.37,0,0,1,3-2.24ZM110,82.7c26.51,0,53-.06,79.54.07,3.11,0,4.37-.52,4.19-4-.32-6.33-.2-12.69,0-19,.07-2.55-.48-3.57-3.29-3.44-5.2.25-10.43.25-15.63,0-3-.14-3.57.9-3.5,3.64.17,6.7,0,6.7-6.65,6.7-7.47,0-7.57,0-7.58-7.5,0-2.25-.67-2.83-2.87-2.81-11.22.11-22.43.14-33.65,0-2.78,0-3.68.64-3.6,3.53.18,6.8,0,6.8-6.9,6.8-7.32,0-7.43,0-7.33-7.09,0-2.48-.54-3.27-3.16-3.23-10.87.15-21.75.19-32.63,0-3.32-.06-4.53.62-4.33,4.21.32,6.13.08,6.19-6.19,6.11-2.57,0-5.79,1.09-7.54-.52s-.52-4.73-.52-7.18c0-1.83-.41-2.62-2.45-2.57q-8.65.18-17.33,0c-2,0-2.48.7-2.46,2.56.09,6.68.18,13.37,0,20.05-.1,3,.68,3.83,3.74,3.82C56.53,82.64,83.27,82.7,110,82.7Zm127.67,31.76a10.37,10.37,0,0,0-.87-1.13c-4.88-4.9-9.8-9.75-14.63-14.69-1.36-1.39-2.09-.52-3,.41q-32.81,32.82-65.65,65.6c-1.25,1.25-1.27,2,0,3.19q6.94,6.75,13.7,13.71c1.29,1.33,2.08,1.51,3.49.08q32.76-32.87,65.6-65.64C236.75,115.52,237.18,115,237.67,114.46Zm-98.93,82,16.14-5.71L144.5,180.1C142.71,185.21,140.85,190.48,138.74,196.48Z"/><path d="M106,165.89c-3.17,0-6.35-.12-9.51,0-2.15.11-2.75-.7-2.65-2.73.14-3,.08-6.12,0-9.18,0-1.6.26-2.51,2.2-2.48,6.58.09,13.15.07,19.72,0,1.69,0,2.15.68,2.12,2.22-.06,3.29-.09,6.58,0,9.86,0,1.79-.63,2.36-2.38,2.3C112.34,165.8,109.17,165.88,106,165.89Z"/><path d="M61.77,195.81c-3.28,0-6.57-.06-9.85,0-1.61,0-2.52-.25-2.45-2.19.14-3.39.09-6.79,0-10.19,0-1.46.49-2,2-2,6.91,0,13.81.05,20.72,0,1.51,0,2,.63,1.9,2,0,.11,0,.22,0,.34-.24,3.9,1.71,9.29-.81,11.31s-7.55.41-11.49.41Z"/><path d="M105.81,134.43c-3,0-6.1-.09-9.15,0-1.94.07-2.94-.42-2.84-2.61.14-3.16.11-6.33,0-9.49,0-1.83.74-2.34,2.43-2.32q9.66.08,19.32,0c1.51,0,2.32.43,2.29,2.1-.06,3.39,0,6.78,0,10.17,0,1.62-.68,2.18-2.25,2.15C112.37,134.39,109.09,134.43,105.81,134.43Z"/><path d="M61.7,120.06c2.71,0,5.44.17,8.13,0s3.92.54,3.65,3.49a63,63,0,0,0,0,8.47c.09,2-.71,2.51-2.58,2.49-6.33-.09-12.66-.07-19,0-1.69,0-2.47-.43-2.4-2.29q.17-4.91,0-9.83c-.06-1.83.7-2.34,2.4-2.3C55.14,120.11,58.42,120.05,61.7,120.06Z"/><path d="M61.34,165.89c-3.17,0-6.35-.08-9.51,0-1.74.06-2.43-.47-2.36-2.29.13-3.29.09-6.58,0-9.86,0-1.54.37-2.24,2.07-2.22q9.86.09,19.71,0c1.61,0,2.2.52,2.16,2.14-.08,3.39-.08,6.79,0,10.19,0,1.72-.74,2.08-2.25,2-3.29-.07-6.57,0-9.86,0Z"/></g></svg>