<svg id="Layer_1" data-name="Layer 1" xmlns="http://www.w3.org/2000/svg" viewBox="0 0 266.86 263.51"><g id="K49nk8.tif"><path d="M238.28,201.4c-.69,1.95-1.31,3.93-2.08,5.85A49.61,49.61,0,0,1,189,238.17c-24.29-.58-41.39-17.77-46.1-35.14-4.92-18.13-1.54-34.65,11.71-48.53,11.12-11.64,24.9-16.64,40.84-15,20.2,2,36.76,16.19,42.52,35.8a6.4,6.4,0,0,0,.27.68Zm-48.06,22.88a35.5,35.5,0,0,0,35.66-35.55c.22-19.52-16.49-36-36.09-35.6-19.25.41-35.14,16.12-35.08,35.4A35.56,35.56,0,0,0,190.22,224.28Z"/><path d="M119.23,96.29H43c-2.06,0-1.89-.29-1.88,1.83q0,24.23.09,48.43c0,14.77.09,29.54.1,44.31a7.83,7.83,0,0,0,1,3.9,18,18,0,0,0,8.4,7.71,3.46,3.46,0,0,0,1.59.2q40.62.12,81.25.2c1.24,0,1.82.3,2.15,1.54a59.2,59.2,0,0,0,4.54,11.46c.63,1.26.61,1.29-.74,1.28L89.79,217c-10.57,0-21.14-.06-31.7-.21-3.56-.05-7.2.27-10.65-.89A29.58,29.58,0,0,1,28.81,198.5a3.74,3.74,0,0,1-.23-1.47q0-68.78,0-137.55a9.46,9.46,0,0,1,1.91-4.93C35,47.41,40.85,42.1,49.33,40.27c1.54-.33,3.14-.42,4.69-.7.88-.17,1,.17,1.09,1,.3,4.36.2,8.73.18,13.1a13.35,13.35,0,0,0,4.65,10.63c7,6,18.48,4.77,22.91-5.42a11.38,11.38,0,0,0,.64-4.42c.09-4.62.19-9.23.22-13.85,0-1,.3-1.18,1.21-1.18q9.49.06,19,0c.89,0,1.1.3,1.11,1.15,0,4.61.28,9.23.19,13.85-.14,6.89,5.61,12.45,11.76,13.22,6.58.83,12-1.83,15.14-7.66a9.82,9.82,0,0,0,1.09-4.56c.09-4.91.2-9.82.24-14.73,0-1,.26-1.28,1.26-1.27q9.42.06,18.85,0c1,0,1.25.34,1.24,1.29,0,4.61-.07,9.24.09,13.85a13.77,13.77,0,0,0,12.19,13.2c7.66,1,14.84-4.09,15.92-11.34a54.89,54.89,0,0,0,.18-7.48c0-2.83,0-5.66,0-8.49,0-.63.06-1,.89-.92,9.2.83,16.73,4.68,22.2,12.24a24.49,24.49,0,0,1,4.89,13.89c.41,13.89.3,27.79.41,41.68.07,9,.06,18.06.12,27.09,0,1.1-.2,1.32-1.31.95a62,62,0,0,0-11.69-3c-1-.13-1.28-.51-1.28-1.49,0-9.28,0-18.56,0-27.84,0-1.71-.08-3.42,0-5.12.06-1.21-.24-1.62-1.56-1.61-11.94,0-23.88,0-35.82,0Z"/><path d="M119.09,167.71c2.66,0,5.32-.11,8,0a6,6,0,0,1,5.93,5.63,39.87,39.87,0,0,1,0,9.2c-.41,3.47-2.57,5.64-6.07,5.79-5.14.21-10.3.22-15.45,0a6.16,6.16,0,0,1-6-5.59,37.84,37.84,0,0,1-.19-9c.22-2.63,2.91-6.27,6.6-6.16,2.41.07,4.82,0,7.23,0Z"/><path d="M76.53,188.41c-2.86-.06-5.74.29-8.58-.2a5.65,5.65,0,0,1-4.85-4.29,26.42,26.42,0,0,1-.28-11A6.72,6.72,0,0,1,69,167.67a143.84,143.84,0,0,1,14.83,0c4.2.2,6.45,2.53,6.64,6.71.11,2.46.12,4.91,0,7.36-.22,4.13-2.61,6.52-6.73,6.63C81.36,188.46,79,188.41,76.53,188.41Z"/><path d="M119.06,139.28c2.65,0,5.32-.12,8,0,3.46.2,5.57,2.27,6,5.72a39.32,39.32,0,0,1,0,9.2,6,6,0,0,1-5.9,5.67c-5.23.26-10.47.23-15.7,0a6.16,6.16,0,0,1-6-5.55,38.29,38.29,0,0,1-.19-9c.23-2.79,3-6.31,6.57-6.2,2.41.08,4.82,0,7.23,0Z"/><path d="M76.52,139.25c2.53,0,5.07-.09,7.6,0,3.59.16,5.84,2.18,6.26,5.72a35.66,35.66,0,0,1-.06,9.57,6,6,0,0,1-5.95,5.34c-5.14.22-10.3.21-15.45,0a6.09,6.09,0,0,1-6.05-5.29,30.09,30.09,0,0,1-.1-9.93A6.72,6.72,0,0,1,69,139.25c2.49-.07,5,0,7.48,0Z"/><path d="M161.82,131.52c-2.36,0-4.73,0-7.1,0-3.93-.1-6.34-2.33-6.76-6.25a39.77,39.77,0,0,1-.09-8.09,7,7,0,0,1,6.65-6.37c4.82-.23,9.64-.18,14.46,0,4.31.18,6.54,2.43,6.79,6.71a47,47,0,0,1-.1,8.22,6.12,6.12,0,0,1-6.24,5.76C166.9,131.58,164.36,131.52,161.82,131.52Z"/><path d="M76.63,131.52c-2.45,0-4.9,0-7.35,0a6.29,6.29,0,0,1-6.5-5.81,35.71,35.71,0,0,1-.15-8.58,6.86,6.86,0,0,1,6.67-6.34c4.7-.21,9.39-.14,14.09,0a7.73,7.73,0,0,1,3.29.61,5.94,5.94,0,0,1,3.66,4.82,39.83,39.83,0,0,1,0,9.82,6,6,0,0,1-6.1,5.45c-2.53.09-5.06,0-7.6,0Z"/><path d="M119.21,131.52c-2.41,0-4.82,0-7.23,0-3.7-.08-6-2.2-6.57-5.88a40.35,40.35,0,0,1-.16-8.58c.2-2.89,3.07-6.26,6.49-6.31,4.91-.06,9.81-.16,14.71.07,4.11.19,6.26,2.22,6.62,6.31a40.26,40.26,0,0,1-.07,8.71,6.06,6.06,0,0,1-6.19,5.65c-2.53.08-5.07,0-7.6,0Z"/><path d="M175.77,43V53.74a6.24,6.24,0,0,1-3.93,6.1,7,7,0,0,1-7.59-1,5.48,5.48,0,0,1-1.89-3.93,82.42,82.42,0,0,1-.36-8.46c-.13-4.7-.12-9.39.11-14.08a7.37,7.37,0,0,1,4.94-6.67,7.15,7.15,0,0,1,8.86,6.52A75.44,75.44,0,0,1,175.77,43Z"/><path d="M126.19,43.32c0,3.61,0,7.23-.2,10.84a6.34,6.34,0,0,1-4.63,6,7.11,7.11,0,0,1-7.52-2,5.61,5.61,0,0,1-1.2-3.21,102.77,102.77,0,0,1-.42-11c0-3.9-.06-7.81.16-11.71s3.27-7,6.81-7a7.48,7.48,0,0,1,7,6.9C126.28,35.92,126.19,39.62,126.19,43.32Z"/><path d="M76.27,43c0,3.54,0,7.08,0,10.61a6.28,6.28,0,0,1-4,6.28c-2.82,1.24-5.35.6-7.67-1.27A4.45,4.45,0,0,1,63.07,56a22.52,22.52,0,0,1-.42-4.09c-.18-6.74-.37-13.48.05-20.21a6.9,6.9,0,0,1,5.79-6.16c3.12-.4,7.69,1.74,7.74,6.16,0,1.91.09,3.83.11,5.74s0,3.74,0,5.61Z"/><path d="M200.8,195.61c-3.66,0-7.32,0-11-.17s-5.91-2.24-6.17-5.89a205.38,205.38,0,0,1-.21-22.33A6.69,6.69,0,0,1,188,160.9c2.74-1.05,5.24-.22,7.34,1.76a5.58,5.58,0,0,1,1.77,4c.15,4.49.3,9,.36,13.48,0,1.08.32,1.39,1.4,1.4q6.55.11,13.1.38a6.51,6.51,0,0,1,6.33,5A7.09,7.09,0,0,1,215,194.7a6.12,6.12,0,0,1-2.74.73C208.45,195.71,204.63,195.57,200.8,195.61Z"/></g></svg>