<svg id="Layer_1" data-name="Layer 1" xmlns="http://www.w3.org/2000/svg" viewBox="0 0 356.68 126.02"><defs><style>.cls-1{fill:#010101;}.cls-2{fill:#e83b25;}.cls-3{fill:#f57f20;}.cls-4{fill:#020202;}.cls-5{fill:#231f20;}</style></defs><path class="cls-1" d="M121.65,110.25v-8.4a9.83,9.83,0,0,0,0-19.66H108.8v-8.4h12.85a18.23,18.23,0,0,1,0,36.46"/><polyline class="cls-1" points="101.82 67.04 66.25 102.61 63.83 100.19 99.38 64.64"/><path class="cls-1" d="M84.62,23.31,87,19.62A48.75,48.75,0,0,0,31.93,100l-9.81,9.81,4,4L73.68,66.34l-4-4.05L35.1,96.85A44.33,44.33,0,0,1,84.62,23.31Z"/><polyline class="cls-2" points="87.37 52.73 73.67 66.33 69.63 62.3 83.26 48.67"/><polygon class="cls-2" points="119.35 49.49 119.34 49.48 121.75 47.06 127.69 52.99 125.27 55.42 119.35 49.49 119.35 49.49"/><polygon class="cls-3" points="121.74 47.05 119.32 44.63 103.42 60.59 87.29 44.64 83.25 48.67 101.8 67.02 103.37 65.44 103.4 65.47 121.74 47.05"/><rect class="cls-1" x="115.83" y="58.26" width="24.89" height="5.51"/><path class="cls-3" d="M149.64,61a3,3,0,1,1-3-3,3,3,0,0,1,3,3"/><path class="cls-4" d="M164.52,89.18l2.18-.6.05,1.11c-2.05.58-4.27,1.17-5.82,1.57l-.19-1.15,1-.23V83.62h.75v6.07l1.27-.34V82.42h.78v2.23h1.87v1.08h-1.87Zm3.1-7.32c.24,5,.94,8.51,1.93,8.51.27,0,.4-.9.46-3a2.31,2.31,0,0,0,.68.62c-.14,2.76-.41,3.57-1.22,3.57-1.62,0-2.37-4.13-2.63-9.68h-6V80.73h5.93c-.05-1.22-.08-2.48-.08-3.8h.81c0,1.35,0,2.62.05,3.8h2.9v1.13Zm-1.76-3h-4.12V77.83h4.12Zm3.83,1.22a14.24,14.24,0,0,0-1.63-2.34l.56-.61a12.19,12.19,0,0,1,1.66,2.26Z"/><path class="cls-4" d="M174.18,84.07a9.86,9.86,0,0,0-2-1.76l.4-.85a11,11,0,0,1,2,1.65Zm.87,2.06c-.56,1.68-1.32,3.69-2,5.17l-.63-.79a52.23,52.23,0,0,0,2-5.14Zm-.33-6.36a9.3,9.3,0,0,0-2-1.81l.41-.84a9.32,9.32,0,0,1,2.05,1.74Zm6.79-1.49a24.63,24.63,0,0,1-2.34,8.86,8.79,8.79,0,0,0,3,3.37,4.57,4.57,0,0,0-.53.95,9.16,9.16,0,0,1-3-3.41,10.18,10.18,0,0,1-3.45,3.46,4.21,4.21,0,0,0-.46-1,9.13,9.13,0,0,0,3.44-3.42,29.64,29.64,0,0,1-2.14-7.88h-.46V78.09h5.28L181,78Zm-4.7,1a26.61,26.61,0,0,0,1.89,6.93,21.55,21.55,0,0,0,1.94-6.93Z"/><path class="cls-4" d="M188.9,80.37v2.16h3.53v5.62c0,.69-.11,1-.46,1.25a4.55,4.55,0,0,1-1.9.21,6.67,6.67,0,0,0-.29-1.19c.74,0,1.39,0,1.58,0s.25-.1.25-.33V83.7H188.9v7.79h-.81V83.7h-2.55v6h-.81V82.53h3.36V80.37h-4.41V79.19h4.63c-.17-.62-.46-1.46-.71-2.1l.77-.35a19.17,19.17,0,0,1,.85,2.37l-.14.08h4.31v1.18Z"/><path class="cls-4" d="M199.06,86.3l.07,1.14c-1.42.5-2.93,1-4,1.37l-.18-1.21c.48-.12,1.08-.32,1.73-.52v-7H195V79h3.91v1.17h-1.48v6.71ZM201.43,79c-.21,1.39-.44,3-.64,4.23h3.86s0,.41,0,.58c-.21,4.5-.42,6.23-.85,6.87a1.11,1.11,0,0,1-1,.58,11.52,11.52,0,0,1-2,0A3.62,3.62,0,0,0,200.5,90a15.54,15.54,0,0,0,2,.13c.25,0,.4,0,.53-.19.35-.4.53-2,.73-5.54h-4.06c.28-1.4.62-3.56.87-5.39H199V77.85h5.92V79Z"/><path class="cls-4" d="M206.54,77.73h3.8v1.09h-1.68c-.18,1.32-.4,2.62-.68,3.81h2.17V89.5H208v1.28h-.68V85a12.08,12.08,0,0,1-.58,1.3,8,8,0,0,0-.36-1.27,20.2,20.2,0,0,0,1.56-6.2h-1.36Zm2.89,6H208v4.73h1.47Zm6.93.91h-1.23v6.91h-.77V84.6h-1.77c0,2.44-.32,5.11-1.55,7a3.11,3.11,0,0,0-.61-.69c1.11-1.72,1.35-4.15,1.38-6.3h-1.18V83.46h1.19v-4.6h-.89V77.73h5.21v1.13h-1v4.6h1.23Zm-2-1.14v-4.6H212.6v4.6Z"/><path class="cls-4" d="M226.2,90c.61,0,.72-.51.8-2.6a2.15,2.15,0,0,0,.8.53c-.14,2.41-.4,3.26-1.55,3.26h-2.39c-1.21,0-1.57-.46-1.57-2.34V87.2h-2.67v1h-.83v-9h3.5v-2.3h.85v2.3h3.6v8h-3.6v1.72c0,.93.12,1.12.78,1.12Zm-6.58-9.71v2.3h2.67v-2.3Zm2.67,5.7V83.74h-2.67V86Zm.85-5.7v2.3h2.8v-2.3Zm2.8,5.7V83.74h-2.8V86Z"/><path class="cls-4" d="M239.14,85.15H234.7v4.78c0,.8-.14,1.17-.55,1.35a5.37,5.37,0,0,1-2.14.23,5.66,5.66,0,0,0-.34-1.22c.88,0,1.67,0,1.91,0s.29-.09.29-.38V85.15h-4.48V84h4.48V81.65a13.79,13.79,0,0,0,2.72-2.54h-6.12V77.94h7l.18-.06.61.67a17.22,17.22,0,0,1-3.56,3.71V84h4.44Z"/><path class="cls-4" d="M244.38,86.45c-.19-.53-.65-1.57-1-2.39v7.43h-.8v-7.1A20.09,20.09,0,0,1,241,88.58a5.91,5.91,0,0,0-.4-1.07,19.37,19.37,0,0,0,1.87-5h-1.72V81.34h1.83V78.92c-.5.14-1,.27-1.49.37a6.36,6.36,0,0,0-.24-.93,12.49,12.49,0,0,0,3.46-1.29l.49,1a7.16,7.16,0,0,1-1.42.64v2.68H245v1.13h-1.59v.29c.33.56,1.27,2.32,1.5,2.76Zm4.91.85v4.19h-.79v-4l-3.55.87-.13-1.14,3.68-.87v-9.5h.79v9.31l1.28-.29.12,1.09Zm-2.1-2.14a11.29,11.29,0,0,0-1.91-2.34l.5-.71a11.23,11.23,0,0,1,1.95,2.27Zm.24-4.23a10.25,10.25,0,0,0-1.73-2.28l.52-.69a9.89,9.89,0,0,1,1.77,2.2Z"/><path class="cls-4" d="M255.73,85l-1.31.57v4.55c0,.67-.12,1-.4,1.18a2.52,2.52,0,0,1-1.47.21,5.73,5.73,0,0,0-.26-1.09,9.75,9.75,0,0,0,1.12,0c.16,0,.22-.08.22-.3V85.89l-1.31.56-.23-1.17c.44-.15,1-.34,1.54-.58V81.2h-1.39V80.08h1.39V76.87h.79v3.21h1.21V81.2h-1.21v3.18l1.21-.52Zm5.79-1.8a13.46,13.46,0,0,1-2.21,5.28,6.89,6.89,0,0,0,2.8,2.07,5.51,5.51,0,0,0-.52,1,7.65,7.65,0,0,1-2.9-2.33,9.52,9.52,0,0,1-3.09,2.3,5.54,5.54,0,0,0-.44-1.08,8.06,8.06,0,0,0,3-2,14.77,14.77,0,0,1-1.78-4.4H256V82.87h2.33V80.48h-2.55V79.37h2.55V76.85h.79v2.52h2.6v1.11h-2.6v2.39h1.73l.13-.05Zm-4.4.82a12.41,12.41,0,0,0,1.6,3.69A10.72,10.72,0,0,0,260.47,84Z"/><path class="cls-4" d="M267.41,80c-.21.63-.43,1.27-.67,1.87H272V90c0,.72-.11,1.08-.46,1.27a4.65,4.65,0,0,1-1.89.21,5.23,5.23,0,0,0-.27-1.17c.73.05,1.38,0,1.58,0s.25-.1.25-.34V88.34h-4.67a7.08,7.08,0,0,1-1.11,3.26,3.8,3.8,0,0,0-.57-.93,7.93,7.93,0,0,0,1-4.57V83.75a12,12,0,0,1-1.76,2.46,8.4,8.4,0,0,0-.51-.93A13.41,13.41,0,0,0,266.53,80h-2.71V78.92h3.05q.28-1,.48-2.07l.81.29c-.12.59-.26,1.2-.43,1.78h5.55V80Zm3.81,7.28V85.65h-4.54v.48c0,.38,0,.77,0,1.19Zm0-4.34h-4.54V84.6h4.54Z"/><path class="cls-4" d="M278.8,77.93c-.32,1.3-.72,2.87-1.09,4.14a6.61,6.61,0,0,1,1,3.5,3,3,0,0,1-.42,1.84,1,1,0,0,1-.58.31,3.39,3.39,0,0,1-.72,0,3.55,3.55,0,0,0-.2-1.06,2.29,2.29,0,0,0,.63,0,.53.53,0,0,0,.34-.15,1.93,1.93,0,0,0,.23-1.11,6.2,6.2,0,0,0-1-3.26c.31-1.15.64-2.53.85-3.59h-1.57V91.49h-.72v-14h2.6l.12-.05Zm5.94,8a17.84,17.84,0,0,1-1.87,1.91,5.7,5.7,0,0,0,2.1,2.55,6.43,6.43,0,0,0-.55,1c-1.7-1.18-2.71-3.64-3.26-6.82h-1v5.28l1.91-.69a8.88,8.88,0,0,0,.05,1.09c-2.24.9-2.57,1.06-2.79,1.27a4.27,4.27,0,0,0-.36-1,1.32,1.32,0,0,0,.41-1.12V77.56h4.75v7h-2.22a14.32,14.32,0,0,0,.64,2.41,21.1,21.1,0,0,0,1.7-1.9Zm-4.62-7.3v1.92h3.19V78.62Zm0,4.91h3.19v-2h-3.19Z"/><path class="cls-4" d="M290.28,77.73a23.59,23.59,0,0,1-3.18,6.83,8.1,8.1,0,0,0-.72-1,17.91,17.91,0,0,0,3-6.26Zm3.06,7.63a55.89,55.89,0,0,1,2.44,5.39l-.81.66c-.15-.45-.36-1-.58-1.54-5.64.58-6.24.62-6.66.85a9.43,9.43,0,0,0-.32-1.27c.3-.1.61-.63,1-1.38a41,41,0,0,0,2.75-6.32l.9.56a47.05,47.05,0,0,1-3.19,6.88l5-.41c-.43-1-.92-2-1.35-2.89Zm.23-8.09a12.77,12.77,0,0,0,2.88,6.18,6.46,6.46,0,0,0-.63,1.11A14.7,14.7,0,0,1,293,78.47h-2v-1.2Z"/><path class="cls-4" d="M307,89.74c0,.82-.12,1.24-.49,1.44a4.87,4.87,0,0,1-2,.23,6.25,6.25,0,0,0-.29-1.28c.75,0,1.51,0,1.72,0s.26-.1.26-.4V79h-7.82V77.89H307Zm-2.06-8h-6.5V80.7h6.5Zm-5,6.82v1.17h-.8V83.5h5.08v5.1Zm0-4v3h3.49v-3Z"/><path class="cls-5" d="M162.59,53.68l-2.67-9.76H161l2,8h0l2.1-8h1.07l2.09,8h0l2-8h1.12l-2.68,9.76h-.91l-2.2-8h0l-2.2,8Z"/><path class="cls-5" d="M178.56,53.68h-1V52.62h0a2.27,2.27,0,0,1-2.23,1.19,2.42,2.42,0,0,1-2.64-2.58v-5h1V51a1.73,1.73,0,0,0,1.9,1.95,1.93,1.93,0,0,0,2-2.08V46.2h1Z"/><path class="cls-5" d="M180.86,43.4h1v3.88h0a2.41,2.41,0,0,1,2.24-1.2,2.56,2.56,0,0,1,2.68,2.79v4.81h-1V49a1.83,1.83,0,0,0-1.95-2,1.93,1.93,0,0,0-2,2.11v4.58h-1Z"/><path class="cls-5" d="M191,53.81a2.22,2.22,0,0,1-2.44-2.26c0-1.29.89-2.12,2.6-2.12h2.06v-.85a1.74,1.74,0,0,0-3.43-.32h-.94c.09-1.28,1-2.18,2.69-2.18a2.37,2.37,0,0,1,2.67,2.38v5.22h-1v-1h0A2.41,2.41,0,0,1,191,53.81Zm2.22-2.62v-1h-2c-1.13,0-1.61.54-1.61,1.29A1.47,1.47,0,0,0,191.2,53,1.82,1.82,0,0,0,193.19,51.19Z"/><path class="cls-5" d="M196.4,46.2h1v1.08h0a2.39,2.39,0,0,1,2.24-1.2,2.55,2.55,0,0,1,2.67,2.79v4.81h-1V49a1.82,1.82,0,0,0-1.94-2,1.93,1.93,0,0,0-2,2.11v4.58h-1Z"/><path class="cls-5" d="M207.17,48c0-2.72,1.48-4.33,3.82-4.33s3.83,1.61,3.83,4.33v1.51A4.44,4.44,0,0,1,213.54,53l1.34,1.85h-1.15l-1-1.33a4,4,0,0,1-1.77.38c-2.34,0-3.82-1.6-3.82-4.33Zm1,1.51c0,2.24,1.19,3.42,2.83,3.42a2.76,2.76,0,0,0,1.18-.25l-1.35-1.83H212l.95,1.28a3.67,3.67,0,0,0,.88-2.62V48c0-2.24-1.2-3.42-2.84-3.42s-2.83,1.18-2.83,3.42Z"/><path class="cls-5" d="M217.38,43.67a.69.69,0,1,1-.69.69A.69.69,0,0,1,217.38,43.67Zm-.5,2.53h1v7.48h-1Z"/><path class="cls-5" d="M222.22,53.81a2.23,2.23,0,0,1-2.44-2.26c0-1.29.9-2.12,2.6-2.12h2.07v-.85a1.52,1.52,0,0,0-1.72-1.64A1.5,1.5,0,0,0,221,48.26h-.94c.09-1.28,1-2.18,2.69-2.18a2.37,2.37,0,0,1,2.67,2.38v5.22h-1v-1h0A2.44,2.44,0,0,1,222.22,53.81Zm2.23-2.62v-1h-2c-1.13,0-1.61.54-1.61,1.29A1.46,1.46,0,0,0,222.45,53,1.83,1.83,0,0,0,224.45,51.19Z"/><path class="cls-5" d="M233.64,49.55v.78c0,2-1.14,3.48-3.14,3.48s-3.15-1.45-3.15-3.48v-.78c0-2,1.14-3.47,3.15-3.47S233.64,47.53,233.64,49.55Zm-5.3.05v.68c0,1.65.8,2.64,2.16,2.64s2.15-1,2.15-2.64V49.6c0-1.66-.81-2.65-2.15-2.65S228.34,47.94,228.34,49.6Z"/><path class="cls-5" d="M238.38,53.75l-.23.61c-.54,1.45-1.23,1.91-2.37,1.91a3.28,3.28,0,0,1-.63-.05v-.84a4.27,4.27,0,0,0,.54,0,1.36,1.36,0,0,0,1.49-1.11l.16-.5-2.79-7.6h1.09l2.18,6.35h0L240,46.2h1.05Z"/><path class="cls-5" d="M244.31,53.81a2.22,2.22,0,0,1-2.44-2.26c0-1.29.89-2.12,2.6-2.12h2.06v-.85a1.74,1.74,0,0,0-3.43-.32h-.94c.09-1.28,1-2.18,2.69-2.18a2.37,2.37,0,0,1,2.67,2.38v5.22h-1v-1h0A2.41,2.41,0,0,1,244.31,53.81Zm2.22-2.62v-1h-2c-1.13,0-1.61.54-1.61,1.29A1.47,1.47,0,0,0,244.54,53,1.82,1.82,0,0,0,246.53,51.19Z"/><path class="cls-5" d="M249.74,46.2h1v1.08h0a2.39,2.39,0,0,1,2.24-1.2,2.55,2.55,0,0,1,2.67,2.79v4.81h-1V49a1.82,1.82,0,0,0-1.94-2,1.93,1.93,0,0,0-2,2.11v4.58h-1Z"/><path class="cls-5" d="M266.63,53.68H260.9V43.92h5.73v.92H261.9v3.4h4.47v.91H261.9v3.62h4.73Z"/><path class="cls-5" d="M268.68,43.4h1V53.68h-1Z"/><path class="cls-5" d="M271.7,50.33v-.85c0-2,1.1-3.4,3-3.4s3,1.37,3,3.47v.63h-5v.18c0,1.56.78,2.59,2.1,2.59a1.76,1.76,0,0,0,1.82-1.23h1a2.71,2.71,0,0,1-2.85,2.09C272.85,53.81,271.7,52.44,271.7,50.33Zm5-1v0a2,2,0,1,0-4,0v0Z"/><path class="cls-5" d="M279.37,49.49c0-2,1.15-3.41,3-3.41a2.62,2.62,0,0,1,2.81,2.25h-1A1.78,1.78,0,0,0,282.46,47c-1.31,0-2.11,1-2.11,2.57v.78c0,1.58.83,2.57,2.14,2.57a1.66,1.66,0,0,0,1.78-1.22h1a2.61,2.61,0,0,1-2.84,2.13c-1.94,0-3-1.47-3-3.48Z"/><path class="cls-5" d="M287.68,44.34h1V46.2h1.58v.85h-1.58v4.71c0,.91.32,1.15,1.27,1.15l.38,0v.81a3.17,3.17,0,0,1-.63,0c-1.66,0-2-.64-2-2.06V47.05h-1.05V46.2h1.05Z"/><path class="cls-5" d="M292.13,46.2h1v1h0a2,2,0,0,1,1.92-1.13c.17,0,.33,0,.47,0V47a4.2,4.2,0,0,0-.58,0c-1.35,0-1.83.9-1.83,2.06v4.61h-1Z"/><path class="cls-5" d="M303,49.55v.78c0,2-1.14,3.48-3.14,3.48s-3.15-1.45-3.15-3.48v-.78c0-2,1.14-3.47,3.15-3.47S303,47.53,303,49.55Zm-5.3.05v.68c0,1.65.81,2.64,2.16,2.64s2.15-1,2.15-2.64V49.6c0-1.66-.81-2.65-2.15-2.65S297.65,47.94,297.65,49.6Z"/><path class="cls-5" d="M304.92,46.2h1v1.08h0a2.42,2.42,0,0,1,2.24-1.2,2.55,2.55,0,0,1,2.68,2.79v4.81h-1V49a1.82,1.82,0,0,0-1.94-2,1.94,1.94,0,0,0-2,2.11v4.58h-1Z"/><path class="cls-5" d="M313.59,43.67a.69.69,0,1,1-.69.69A.69.69,0,0,1,313.59,43.67Zm-.49,2.53h1v7.48h-1Z"/><path class="cls-5" d="M316.13,49.49c0-2,1.16-3.41,3-3.41a2.61,2.61,0,0,1,2.8,2.25h-1A1.78,1.78,0,0,0,319.23,47c-1.31,0-2.11,1-2.11,2.57v.78c0,1.58.83,2.57,2.13,2.57A1.68,1.68,0,0,0,321,51.68h1a2.61,2.61,0,0,1-2.84,2.13c-1.94,0-3.05-1.47-3.05-3.48Z"/><path class="cls-5" d="M163,68.28V59.43h-3v-.91H167v.91h-3v8.85Z"/><path class="cls-5" d="M166.64,64.93v-.86c0-2,1.1-3.39,3-3.39s3,1.37,3,3.47v.63h-5V65c0,1.57.78,2.6,2.1,2.6a1.76,1.76,0,0,0,1.82-1.23h1a2.7,2.7,0,0,1-2.85,2.08C167.8,68.4,166.64,67,166.64,64.93Zm5-1v0a2,2,0,1,0-4,0v0Z"/><path class="cls-5" d="M174.31,64.09c0-2,1.15-3.41,3-3.41a2.61,2.61,0,0,1,2.81,2.25h-1a1.78,1.78,0,0,0-1.75-1.35c-1.32,0-2.11,1-2.11,2.57v.78c0,1.58.83,2.57,2.13,2.57a1.66,1.66,0,0,0,1.78-1.22h1a2.6,2.6,0,0,1-2.84,2.12c-1.93,0-3-1.46-3-3.47Z"/><path class="cls-5" d="M182,58h1v3.88h0a2.41,2.41,0,0,1,2.24-1.2A2.56,2.56,0,0,1,188,63.47v4.81h-1V63.61a1.84,1.84,0,0,0-1.95-2,1.94,1.94,0,0,0-2,2.12v4.58h-1Z"/><path class="cls-5" d="M190.15,60.8h1v1.08h0a2.41,2.41,0,0,1,2.24-1.2,2.55,2.55,0,0,1,2.67,2.79v4.81h-1V63.61a1.83,1.83,0,0,0-1.93-2,1.94,1.94,0,0,0-2,2.12v4.58h-1Z"/><path class="cls-5" d="M204.24,64.15v.78c0,2-1.14,3.47-3.14,3.47S198,67,198,64.93v-.78c0-2,1.14-3.47,3.15-3.47S204.24,62.13,204.24,64.15Zm-5.3,0v.68c0,1.65.81,2.64,2.16,2.64s2.15-1,2.15-2.64V64.2c0-1.66-.81-2.65-2.15-2.65S198.94,62.54,198.94,64.2Z"/><path class="cls-5" d="M206.27,58h1V68.28h-1Z"/><path class="cls-5" d="M215.59,64.15v.78c0,2-1.14,3.47-3.15,3.47S209.3,67,209.3,64.93v-.78c0-2,1.14-3.47,3.14-3.47S215.59,62.13,215.59,64.15Zm-5.31,0v.68c0,1.65.81,2.64,2.16,2.64s2.16-1,2.16-2.64V64.2c0-1.66-.81-2.65-2.16-2.65S210.28,62.54,210.28,64.2Z"/><path class="cls-5" d="M222.48,68.2V66.9h0a2.4,2.4,0,0,1-2.21,1.28c-1.75,0-3-1.24-3-3.4v-.73c0-2.13,1.23-3.37,3-3.37a2.5,2.5,0,0,1,2.24,1.26h0V60.8h1v7.39a2.79,2.79,0,0,1-3.09,2.8c-1.79,0-2.78-.9-2.94-2.13h1a1.79,1.79,0,0,0,1.92,1.28A1.89,1.89,0,0,0,222.48,68.2Zm-4.24-4v.55c0,1.61.8,2.6,2.14,2.6s2.1-1,2.1-2.6v-.55c0-1.57-.83-2.6-2.1-2.6S218.24,62.52,218.24,64.15Z"/><path class="cls-5" d="M228.79,68.35l-.23.61c-.55,1.45-1.23,1.91-2.37,1.91a3.32,3.32,0,0,1-.64-.05V70a4.33,4.33,0,0,0,.55,0,1.36,1.36,0,0,0,1.49-1.11l.15-.5L225,60.8h1.1l2.18,6.35h0l2.17-6.35h1.06Z"/><path class="cls-5" d="M236.37,64.14c0,2.11.95,3.44,2.78,3.44a2.27,2.27,0,0,0,2.52-2.14h1a3.22,3.22,0,0,1-3.51,3.06c-2.44,0-3.77-1.7-3.77-4.38V62.74c0-2.71,1.34-4.43,3.76-4.43a3.27,3.27,0,0,1,3.51,3.2h-1a2.35,2.35,0,0,0-2.51-2.29c-1.81,0-2.77,1.35-2.77,3.5Z"/><path class="cls-5" d="M250.55,64.15v.78c0,2-1.14,3.47-3.15,3.47s-3.14-1.44-3.14-3.47v-.78c0-2,1.14-3.47,3.14-3.47S250.55,62.13,250.55,64.15Zm-5.31,0v.68c0,1.65.81,2.64,2.16,2.64s2.16-1,2.16-2.64V64.2c0-1.66-.81-2.65-2.16-2.65S245.24,62.54,245.24,64.2Z"/><path class="cls-5" d="M252.52,60.8h1v1h.05a2,2,0,0,1,1.93-1.1A2.09,2.09,0,0,1,257.67,62h.05a2.57,2.57,0,0,1,4.8,1.23v5.09h-1v-4.9a1.63,1.63,0,0,0-1.72-1.8,1.75,1.75,0,0,0-1.8,1.91v4.79h-1v-4.8a1.66,1.66,0,0,0-1.75-1.9,1.75,1.75,0,0,0-1.77,1.92v4.78h-1Z"/><path class="cls-5" d="M265.79,67.19h0v3.55h-1V60.8h.94V62h0A2.58,2.58,0,0,1,268,60.68c1.67,0,2.92,1.28,2.92,3.44V65c0,2.16-1.26,3.43-3,3.43A2.44,2.44,0,0,1,265.79,67.19ZM270,64.86v-.69c0-1.65-.79-2.62-2.06-2.62s-2.16,1.11-2.16,2.61v.71c0,1.57.83,2.65,2.19,2.65C269.1,67.52,270,66.61,270,64.86Z"/><path class="cls-5" d="M274.91,68.4a2.22,2.22,0,0,1-2.44-2.25c0-1.29.9-2.12,2.6-2.12h2.07v-.85a1.75,1.75,0,0,0-3.44-.32h-.93c.09-1.28,1-2.18,2.69-2.18a2.36,2.36,0,0,1,2.67,2.38v5.22h-1v-1h0A2.43,2.43,0,0,1,274.91,68.4Zm2.23-2.62v-1h-2c-1.13,0-1.61.54-1.61,1.29a1.46,1.46,0,0,0,1.64,1.43A1.83,1.83,0,0,0,277.14,65.78Z"/><path class="cls-5" d="M280.34,60.8h1v1.08h0a2.42,2.42,0,0,1,2.24-1.2,2.55,2.55,0,0,1,2.68,2.79v4.81h-1V63.61a1.83,1.83,0,0,0-1.94-2,2,2,0,0,0-2,2.12v4.58h-1Z"/><path class="cls-5" d="M291.22,68.35,291,69c-.54,1.45-1.23,1.91-2.37,1.91a3.28,3.28,0,0,1-.63-.05V70a4.16,4.16,0,0,0,.54,0A1.36,1.36,0,0,0,290,68.9l.16-.5-2.8-7.6h1.1l2.18,6.35h0l2.17-6.35h1.05Z"/><path class="cls-5" d="M303.84,68.28H298.2V58.52h1v8.85h4.63Z"/><path class="cls-5" d="M305.87,58.27a.69.69,0,1,1-.69.69A.69.69,0,0,1,305.87,58.27Zm-.5,2.53h1v7.48h-1Z"/><path class="cls-5" d="M308.72,60.8h1v1h.05a2,2,0,0,1,1.93-1.1A2.09,2.09,0,0,1,313.87,62h.05a2.57,2.57,0,0,1,4.8,1.23v5.09h-1v-4.9a1.63,1.63,0,0,0-1.72-1.8,1.75,1.75,0,0,0-1.8,1.91v4.79h-1v-4.8a1.66,1.66,0,0,0-1.75-1.9,1.75,1.75,0,0,0-1.77,1.92v4.78h-1Z"/><path class="cls-5" d="M321.51,58.27a.69.69,0,1,1,0,1.38.69.69,0,0,1,0-1.38ZM321,60.8h1v7.48h-1Z"/><path class="cls-5" d="M324.79,58.94h1V60.8h1.58v.85h-1.58v4.71c0,.91.32,1.15,1.27,1.15l.38,0v.81a3.13,3.13,0,0,1-.62,0c-1.67,0-2-.64-2-2.06V61.65h-1.05V60.8h1.05Z"/><path class="cls-5" d="M328.8,64.93v-.86c0-2,1.1-3.39,3-3.39s3,1.37,3,3.47v.63h-5V65c0,1.57.78,2.6,2.1,2.6a1.76,1.76,0,0,0,1.82-1.23h1a2.7,2.7,0,0,1-2.85,2.08C330,68.4,328.8,67,328.8,64.93Zm5-1v0a2,2,0,1,0-4,0v0Z"/><path class="cls-5" d="M341.66,61.93h0V58h1V68.28h-.94v-1.2h0a2.46,2.46,0,0,1-2.27,1.32c-1.91,0-3-1.4-3-3.45v-.83c0-2,1.16-3.44,3-3.44A2.45,2.45,0,0,1,341.66,61.93Zm-4.21,2.25v.73c0,1.73.89,2.61,2.09,2.61,1.36,0,2.17-1,2.17-2.6v-.74c0-1.55-.83-2.62-2.19-2.62C338.36,61.56,337.45,62.41,337.45,64.18Z"/><path class="cls-5" d="M168.77,108.12h-1l-1.83-6h0l-1.84,6h-1l-2-7.48h1l1.49,6.15h.05l1.83-6.15h1l1.83,6.15h0l1.5-6.15h1Z"/><path class="cls-5" d="M179.42,108.12h-1l-1.83-6h0l-1.83,6h-1l-2-7.48h1l1.49,6.15h.05l1.83-6.15h1l1.83,6.15h.05l1.49-6.15h1Z"/><path class="cls-5" d="M190.07,108.12h-1l-1.84-6h0l-1.84,6h-1l-2-7.48h1l1.5,6.15h.05l1.82-6.15h.95l1.83,6.15h.05l1.49-6.15h1Z"/><path class="cls-5" d="M193.12,106.8a.73.73,0,1,1-.73.73A.73.73,0,0,1,193.12,106.8Z"/><path class="cls-5" d="M200.8,101.76h0V97.83h1v10.29h-.94v-1.2h0a2.47,2.47,0,0,1-2.27,1.31c-1.91,0-3-1.39-3-3.44V104c0-2,1.16-3.45,3-3.45A2.47,2.47,0,0,1,200.8,101.76ZM196.59,104v.73c0,1.72.89,2.6,2.09,2.6,1.36,0,2.17-1,2.17-2.59V104c0-1.54-.84-2.61-2.19-2.61C197.5,101.4,196.59,102.25,196.59,104Z"/><path class="cls-5" d="M204.12,100.64h1v1h0a2.06,2.06,0,0,1,1.93-1.1,2.1,2.1,0,0,1,2.18,1.28h0a2.36,2.36,0,0,1,2.3-1.28,2.32,2.32,0,0,1,2.51,2.51v5.1h-1v-4.9a1.64,1.64,0,0,0-1.73-1.8,1.74,1.74,0,0,0-1.79,1.9v4.8h-1v-4.8a1.66,1.66,0,0,0-1.75-1.9,1.74,1.74,0,0,0-1.77,1.92v4.78h-1Z"/><path class="cls-5" d="M217.17,105.72a2,2,0,0,0,2.24,1.73,2.36,2.36,0,0,0,2.32-2.44,2.27,2.27,0,0,0-2.31-2.42,2.37,2.37,0,0,0-2.25,1.34h-.85l.57-5.58H222v.89h-4.29l-.39,3.39h0a2.84,2.84,0,0,1,2.17-.91,3.16,3.16,0,0,1,3.22,3.27,3.29,3.29,0,0,1-3.42,3.34,2.87,2.87,0,0,1-3.15-2.61Z"/><path class="cls-5" d="M225.25,98.11a.69.69,0,0,1,.69.68.69.69,0,1,1-1.38,0A.68.68,0,0,1,225.25,98.11Zm-.5,2.53h1v7.48h-1Z"/><path class="cls-5" d="M228.6,106.8a.73.73,0,1,1-.72.73A.72.72,0,0,1,228.6,106.8Z"/><path class="cls-5" d="M231.09,103.93c0-2,1.15-3.42,3-3.42a2.61,2.61,0,0,1,2.8,2.26h-1a1.79,1.79,0,0,0-1.76-1.36c-1.31,0-2.11,1-2.11,2.58v.77c0,1.58.83,2.58,2.14,2.58a1.67,1.67,0,0,0,1.78-1.22h1a2.6,2.6,0,0,1-2.84,2.12c-1.94,0-3-1.47-3-3.47Z"/><path class="cls-5" d="M244.78,104v.78c0,2-1.14,3.48-3.14,3.48s-3.15-1.44-3.15-3.48V104c0-2,1.15-3.47,3.15-3.47S244.78,102,244.78,104Zm-5.3.06v.67c0,1.66.81,2.65,2.16,2.65s2.16-1,2.16-2.65V104c0-1.66-.81-2.65-2.16-2.65S239.48,102.38,239.48,104Z"/><path class="cls-5" d="M246.76,100.64h1v1h0a2.07,2.07,0,0,1,1.94-1.1,2.1,2.1,0,0,1,2.18,1.28h0a2.36,2.36,0,0,1,2.3-1.28,2.31,2.31,0,0,1,2.5,2.51v5.1h-1v-4.9a1.64,1.64,0,0,0-1.73-1.8,1.74,1.74,0,0,0-1.79,1.9v4.8h-1v-4.8a1.66,1.66,0,0,0-1.74-1.9,1.75,1.75,0,0,0-1.78,1.92v4.78h-1Z"/><line class="cls-1" x1="101.8" y1="67.02" x2="99.38" y2="64.64"/></svg>