<svg id="Layer_1" data-name="Layer 1" xmlns="http://www.w3.org/2000/svg" viewBox="0 0 266.86 263.51"><path d="M177.08,249.07H89.78a35,35,0,0,1-34.91-34.91V49.35A35,35,0,0,1,89.78,14.44h87.3A35,35,0,0,1,212,49.35V214.16A35,35,0,0,1,177.08,249.07ZM89.78,30.2A19.17,19.17,0,0,0,70.63,49.35V214.16a19.17,19.17,0,0,0,19.15,19.15h87.3a19.17,19.17,0,0,0,19.15-19.15V49.35A19.17,19.17,0,0,0,177.08,30.2Z"/><path d="M163.46,214.93H103.4a2.63,2.63,0,0,1,0-5.25h60.06a2.63,2.63,0,0,1,0,5.25Z"/><circle cx="134.1" cy="42.55" r="3.68"/></svg>