<svg id="Layer_1" data-name="Layer 1" xmlns="http://www.w3.org/2000/svg" viewBox="0 0 266.86 263.51"><path d="M101.46,81l8.08,2.85a14.39,14.39,0,0,1,3,1.13c4,2.49,7.34.13,10.75-1.38.68-.3,1.12-1.31,1.49-2.07,1.85-3.8,3.67-7.61,5.43-11.45a2.45,2.45,0,0,1,2.58-1.69q7.1.12,14.19,0a2.47,2.47,0,0,1,2.58,1.7c1.82,3.95,3.63,7.91,5.62,11.77a6.91,6.91,0,0,0,2.49,2.33c3.65,2.34,7.31,2.12,11.16.23,2.47-1.22,5.22-1.86,7.8-2.86a2.83,2.83,0,0,1,3.53.7q4.77,5,9.76,9.77a2.6,2.6,0,0,1,.67,3.19c-1.42,3.85-2.72,7.73-4.17,11.56a6.66,6.66,0,0,0,.08,4.51c1.11,3.89,3.54,6.06,7.22,7.42a70.69,70.69,0,0,1,8.51,4.09,2.76,2.76,0,0,1,1.3,1.94q.08,7.76-.17,15.51c0,.57-.85,1.32-1.49,1.64-3.87,1.93-7.82,3.7-11.67,5.67a6.29,6.29,0,0,0-2.23,2.32,10.57,10.57,0,0,0-.44,11c1.34,2.62,2,5.57,3.06,8.34a2.72,2.72,0,0,1-.78,3.34c-3.32,3.19-6.56,6.46-9.76,9.76a2.49,2.49,0,0,1-3.14.66c-4.17-1.61-8.41-3.07-12.65-4.48a5.68,5.68,0,0,0-2.52.07c-.54.09-1,.55-1.56.66-3.62.73-5.33,3.28-6.6,6.49-1.18,3-2.76,5.81-4.07,8.75a2.49,2.49,0,0,1-2.67,1.58c-4.67-.05-9.33-.07-14,0a2.49,2.49,0,0,1-2.62-1.65c-1.76-3.84-3.63-7.63-5.4-11.47a6.2,6.2,0,0,0-2.83-2.78c-3.83-2.25-7.4-1.83-11.22,0a68.75,68.75,0,0,1-8.54,3,2.34,2.34,0,0,1-2-.43q-5.51-5.33-10.83-10.83a2.59,2.59,0,0,1-.32-2.14q2-6.21,4.31-12.32a6.31,6.31,0,0,0,0-4c-1.09-4.33-4-6.53-7.92-8-2.7-1-5.2-2.48-7.83-3.67a2.25,2.25,0,0,1-1.47-2.35c0-4.79,0-9.59,0-14.39a2.35,2.35,0,0,1,1.56-2.47c4-1.84,8-3.72,11.92-5.73a7.08,7.08,0,0,0,2.19-2.35c2.65-3.87,1.94-7.74.12-11.74a66.88,66.88,0,0,1-2.87-8.2,2.56,2.56,0,0,1,.44-2.12c3.46-3.59,7-7.1,10.55-10.6A6.43,6.43,0,0,1,101.46,81ZM140,154.77c12.12-.13,23.61-9.57,22.44-24.91-.76-10-8.73-20.09-22.62-20.21a22.56,22.56,0,0,0,.18,45.12Z"/><path d="M211.64,195.25c-6.14,14.67-12.14,29-18.29,43.71a17.61,17.61,0,0,1-1.24-1.59c-1.7-2.81-3.4-5.61-5-8.46-.63-1.11-1.14-1.5-2.5-.87-18,8.24-36.93,11.62-56.59,9.1-34.57-4.44-61.23-21.5-79.65-51.25-.22-.36-.39-.76-.71-1.39l5.73-3.32C57.18,179,61,176.8,64.8,174.51c1.34-.82,2-.81,3,.67A84.42,84.42,0,0,0,156.89,214c5.33-1.14,10.5-3.08,15.7-4.77,2.23-.73,2.22-1,1-3.08-1.08-1.85-2.18-3.69-3.27-5.54-1.21-2.07-1.1-2.29,1.38-2.48l9.06-.67q14.61-1.11,29.24-2.22C210.35,195.16,210.71,195.21,211.64,195.25Z"/><path d="M183.56,72.58c-8.15-11.91-16-23.39-24.16-35.34l47.32-6c-.42.89-.62,1.39-.88,1.85-1.47,2.65-3,5.28-4.45,7.92-1.28,2.26-1.29,2.26.78,3.74a106.66,106.66,0,0,1,44.29,81.66c.27,5.68-.44,11.41-.8,17.11-.86,13.93-5.51,26.7-11.91,38.94-1.29,2.46-1.32,2.45-3.77,1-5-2.9-10-5.84-15.06-8.69-1.24-.7-1.56-1.24-.8-2.61a76.76,76.76,0,0,0,9.17-26.5c.75-5.27,1.66-10.65,1.41-15.92-.82-17.1-5.63-33-15.65-47.1A87.15,87.15,0,0,0,191,63.91c-1.29-1-2-1.08-2.84.55C186.83,67.09,185.27,69.59,183.56,72.58Z"/><path d="M66.53,123.59,48.8,161.66c-10.06-12.57-19.15-25.3-28.46-37.88,3.61,0,7.23-.07,10.85,0,1.86,0,2.61-.75,2.81-2.5a89.23,89.23,0,0,1,1.49-11.22,131.49,131.49,0,0,1,5.12-17.39C51.61,65,70.94,45.14,98.2,33.13a105.09,105.09,0,0,1,39.87-8.57c1.44,0,1.87.46,1.85,1.84,0,6.06-.07,12.12,0,18.18,0,1.69-.56,2.16-2.17,2.19A81,81,0,0,0,97,58.5C77.22,70.46,64.15,87.61,58.15,110c-.92,3.45-1.78,6.93-2.45,10.44-.51,2.68,0,3.13,2.69,3.13Z"/></svg>