<svg id="Layer_1" data-name="Layer 1" xmlns="http://www.w3.org/2000/svg" xmlns:xlink="http://www.w3.org/1999/xlink" viewBox="0 0 298.17 268.61"><defs><style>.cls-1,.cls-2,.cls-25,.cls-26{fill:none;}.cls-1{stroke:#4c4c4c;}.cls-1,.cls-25,.cls-26{stroke-miterlimit:10;}.cls-3{fill:url(#linear-gradient);}.cls-4{fill:url(#linear-gradient-2);}.cls-5{fill:url(#linear-gradient-3);}.cls-6{fill:#00031e;}.cls-7{fill:#fff;}.cls-8{fill:url(#linear-gradient-4);}.cls-9{fill:url(#linear-gradient-5);}.cls-10{fill:url(#linear-gradient-6);}.cls-11{fill:url(#linear-gradient-7);}.cls-12{fill:url(#Silver);}.cls-13{fill:url(#Silver-2);}.cls-14{fill:url(#linear-gradient-8);}.cls-15{font-size:13.88px;}.cls-15,.cls-17{fill:#3f3e40;}.cls-15,.cls-16{font-family:Lato-Bold, Lato;font-weight:700;}.cls-16{font-size:12.95px;fill:#7f5f05;}.cls-17{fill-rule:evenodd;}.cls-18{fill:url(#linear-gradient-9);}.cls-19{fill:url(#linear-gradient-10);}.cls-20{clip-path:url(#clip-path);}.cls-21{fill:#ffc933;}.cls-22{fill:url(#linear-gradient-11);}.cls-23{clip-path:url(#clip-path-2);}.cls-24{fill:#d9dadb;}.cls-25{stroke:#ffa42c;stroke-width:3.09px;}.cls-26{stroke:red;stroke-width:3px;}.cls-27{fill:#020202;}.cls-28{fill:#231f20;}.cls-29{fill:#e73925;}.cls-30{fill:#f47e20;}</style><linearGradient id="linear-gradient" x1="3955.43" y1="1842.6" x2="3951.81" y2="1842.6" gradientTransform="translate(1991.62 -3819.04) rotate(90)" gradientUnits="userSpaceOnUse"><stop offset="0.15" stop-color="#00031e"/><stop offset="1" stop-color="#525154"/></linearGradient><linearGradient id="linear-gradient-2" x1="4018.6" y1="1842.6" x2="4014.35" y2="1842.6" xlink:href="#linear-gradient"/><linearGradient id="linear-gradient-3" x1="149.14" y1="198.37" x2="149.14" y2="-32.36" gradientTransform="matrix(1, 0, 0, 1, 0, 0)" xlink:href="#linear-gradient"/><linearGradient id="linear-gradient-4" x1="149.14" y1="67.9" x2="149.14" y2="46.31" gradientTransform="matrix(1, 0, 0, 1, 0, 0)" xlink:href="#linear-gradient"/><linearGradient id="linear-gradient-5" x1="149.14" y1="35.56" x2="149.14" y2="58.82" gradientUnits="userSpaceOnUse"><stop offset="0" stop-color="#fff"/><stop offset="1" stop-color="#fff" stop-opacity="0"/></linearGradient><linearGradient id="linear-gradient-6" x1="149.14" y1="80.38" x2="149.14" y2="88.32" gradientTransform="matrix(1, 0, 0, 1, 0, 0)" xlink:href="#linear-gradient"/><linearGradient id="linear-gradient-7" x1="149.14" y1="98.81" x2="149.14" y2="80.34" xlink:href="#linear-gradient-5"/><linearGradient id="Silver" x1="135.1" y1="36.03" x2="163.18" y2="36.03" gradientUnits="userSpaceOnUse"><stop offset="0" stop-color="#e4e1de"/><stop offset="0" stop-color="#ddd9d5"/><stop offset="0.06" stop-color="#cecac8"/><stop offset="0.18" stop-color="#a8a3a6"/><stop offset="0.26" stop-color="#8a858c"/><stop offset="0.52" stop-color="#f2f3f3"/><stop offset="0.58" stop-color="#e4e4e5"/><stop offset="0.7" stop-color="#bfbdbf"/><stop offset="0.87" stop-color="#847f84"/><stop offset="0.88" stop-color="#807b80"/><stop offset="1" stop-color="#d0d2d3"/><stop offset="1" stop-color="#a7a8ab"/></linearGradient><linearGradient id="Silver-2" x1="145.03" y1="50.6" x2="153.25" y2="50.6" xlink:href="#Silver"/><linearGradient id="linear-gradient-8" x1="149.14" y1="3.8" x2="149.14" y2="30.68" gradientUnits="userSpaceOnUse"><stop offset="0" stop-color="#ffed93"/><stop offset="0.23" stop-color="#f4c665"/><stop offset="0.46" stop-color="#eca53e"/><stop offset="0.68" stop-color="#e58d22"/><stop offset="0.86" stop-color="#e17f11"/><stop offset="1" stop-color="#e07a0b"/></linearGradient><linearGradient id="linear-gradient-9" x1="149.14" y1="249.85" x2="149.14" y2="240.06" gradientTransform="matrix(1, 0, 0, 1, 0, 0)" xlink:href="#linear-gradient"/><linearGradient id="linear-gradient-10" x1="5637.78" y1="-1941.57" x2="5637.78" y2="-1960.04" gradientTransform="translate(5786.91 -1710.02) rotate(180)" xlink:href="#linear-gradient-5"/><clipPath id="clip-path"><rect class="cls-1" x="11.29" y="77.54" width="276.13" height="175.71" rx="8.51"/></clipPath><linearGradient id="linear-gradient-11" x1="2.15" y1="234.22" x2="300.39" y2="234.22" xlink:href="#linear-gradient-8"/><clipPath id="clip-path-2"><path class="cls-2" d="M103.53,184.63A35.55,35.55,0,1,1,68,149.08,35.54,35.54,0,0,1,103.53,184.63Z"/></clipPath></defs><path class="cls-3" d="M80.65,134.93c-1.7,0-3.09-.61-3.09-1.35s1.39-1.35,3.09-1.35H217.41c1.69,0,3.08.61,3.08,1.35s-1.39,1.35-3.08,1.35Z"/><path class="cls-4" d="M80.65,198.41c-1.7,0-3.09-.61-3.09-1.35s1.39-1.35,3.09-1.35H217.41c1.69,0,3.08.61,3.08,1.35s-1.39,1.35-3.08,1.35Z"/><path class="cls-5" d="M278.12,124.06v82.25a5.11,5.11,0,0,0,5.1,5.1h8c1,0,1.12,1.23,1.12,2.11v36.34a8.54,8.54,0,0,1-8.51,8.51H14.48A8.53,8.53,0,0,1,6,249.85V213.51c0-1.32.36-2.16,1.2-2.16h3.08a5.46,5.46,0,0,0,.82.06h4a5.12,5.12,0,0,0,5.11-5.1V194.16a28.43,28.43,0,0,0,4.74.39,29.16,29.16,0,0,0,0-58.31,28.43,28.43,0,0,0-4.74.39V124.06A5.13,5.13,0,0,0,15.05,119H7c-.78,0-1-1.21-1-2.06V80.94a8.53,8.53,0,0,1,8.5-8.51H283.79a8.54,8.54,0,0,1,8.51,8.51v36c0,.83-.25,2-1,2l-3.67,0h-4.4A5.12,5.12,0,0,0,278.12,124.06Z"/><path class="cls-6" d="M287.39,211.4h-.62v33.33a8.09,8.09,0,0,1-8.08,8.09H19.59a8.09,8.09,0,0,1-8.08-8.09V211.41h-.85v33.33a8.94,8.94,0,0,0,8.93,8.94h259.1a9,9,0,0,0,8.93-8.94V211.4Zm-8.7-134.29H19.59a8.94,8.94,0,0,0-8.93,8.94V119h.85V86.05A8.09,8.09,0,0,1,19.59,78h259.1a8.09,8.09,0,0,1,8.08,8.09v32.89h.85V86.05A9,9,0,0,0,278.69,77.11Z"/><rect class="cls-7" x="11.29" y="77.54" width="276.13" height="175.71" rx="8.51"/><path class="cls-8" d="M204.09,49.46H94.18l-32,16.45v6.52h174V65.91ZM100.6,67a5.6,5.6,0,1,1,5.61-5.6A5.6,5.6,0,0,1,100.6,67Zm70-5a5.11,5.11,0,0,1-5.1,5.1H132.83a5.12,5.12,0,0,1-5.11-5.1V60.8a5.12,5.12,0,0,1,5.11-5.1h32.62a5.11,5.11,0,0,1,5.1,5.1Zm27.12,5a5.6,5.6,0,1,1,5.61-5.6A5.6,5.6,0,0,1,197.67,67Z"/><path class="cls-9" d="M204.09,49.46H94.18l-32,16.45v6.52h174V65.91ZM100.6,67a5.6,5.6,0,1,1,5.61-5.6A5.6,5.6,0,0,1,100.6,67Zm70-5a5.11,5.11,0,0,1-5.1,5.1H132.83a5.12,5.12,0,0,1-5.11-5.1V60.8a5.12,5.12,0,0,1,5.11-5.1h32.62a5.11,5.11,0,0,1,5.1,5.1Zm27.12,5a5.6,5.6,0,1,1,5.61-5.6A5.6,5.6,0,0,1,197.67,67Z"/><polygon class="cls-10" points="149.14 77.54 72.13 77.54 84.26 89.66 149.14 89.66 214.02 89.66 226.15 77.54 149.14 77.54"/><polygon class="cls-11" points="224.02 77.54 214.02 87.54 84.26 87.54 74.26 77.54 224.02 77.54"/><path class="cls-12" d="M149.14,43.9a14.06,14.06,0,0,1-14-14,1.7,1.7,0,1,1,3.4,0,10.64,10.64,0,0,0,21.28,0,1.7,1.7,0,0,1,3.4,0A14.06,14.06,0,0,1,149.14,43.9Z"/><path class="cls-13" d="M153.25,59.39a4.11,4.11,0,1,1-8.22,0V41.8a4.11,4.11,0,1,1,8.22,0Z"/><rect class="cls-14" x="135.1" y="1.67" width="28.08" height="29.36"/><text class="cls-15" transform="translate(134.71 162.33)">NAME SURNAME</text><text class="cls-16" transform="translate(151.32 176.63)">ID-20178654</text><path class="cls-17" d="M154.59,207.43h-3.83V186h3.83Zm63.43,0h-1V186h1Zm10.47,0h-2.37V186h2.37Zm1.89,0h-.91V186h.91Zm-10.48,0h-1.4V186h1.4Zm5.73,0h-.49V186h.49Zm-17.18,0h-1.4V186h1.4Zm15.78,0h-3.35V186h3.35Zm-8.1,0h-3.84V186h3.84Zm-12.43,0H199V186h4.75Zm-26.69,0h-1V186h1Zm34.79,0h-.49V186h.49Zm-17.18,0h-.91V186h.91Zm3.35,0h-1.4V186H198Zm-27.66,0h-.48V186h.48Zm-3.35,0h-1.4V186H167Zm-9,0h-.49V186H158Zm-1,0h-1V186h1Zm12.37,0h-.43V186h.43Zm40.57,0h-1V186h1Zm-4.32,0h-.92V186h.92Zm-27.18,0h-1V186h1Zm7.19,0h-1.46V186h1.46Zm-1.95,0h-.48V186h.48Zm3.84,0H186V186h1.46Zm4.75,0h-.91V186h.91Zm-1.88,0h-1.89V186h1.89Zm-7.62,0h-2.87V186h2.87Zm-7.68,0H170.8V186h4.26Zm-19.55,0h-.43V186h.43Zm12.91,0h-1V186h1Zm-3.35,0h-1V186h1Zm-1.89,0h-4.32V186h4.32Z"/><rect class="cls-2" x="11.29" y="77.54" width="276.13" height="175.71" rx="8.51"/><polygon class="cls-18" points="226.15 253.25 214.02 241.13 84.26 241.13 72.13 253.25 226.15 253.25"/><polygon class="cls-19" points="74.26 252.83 84.26 242.83 214.02 242.83 224.02 252.83 74.26 252.83"/><g class="cls-20"><path class="cls-21" d="M300.39,177.24c-44.83,21.83-125.43,61-175.75,84.95H300.39Z"/><polygon class="cls-22" points="2.15 210.09 2.15 258.36 300.38 258.36 300.38 244.23 2.15 210.09"/><polygon class="cls-21" points="2.15 262.19 111.96 262.19 4.28 207.38 2.15 187.87 2.15 262.19"/></g><rect class="cls-1" x="11.29" y="77.54" width="276.13" height="175.71" rx="8.51"/><path class="cls-7" d="M108.81,184.63A40.83,40.83,0,1,1,68,143.8,40.81,40.81,0,0,1,108.81,184.63Z"/><g class="cls-23"><path class="cls-24" d="M90.52,203.22c-9.21-6.05-15.39-7.57-15.39-7.57v-3.93a14.82,14.82,0,0,0,4.27-6.17c1.34-.07,2.65-2,3-4.5.4-2.7-.43-5.07-1.86-5.28h-.06v-7.38h0a6,6,0,0,0-.56-2.11,13.7,13.7,0,0,0-1.53-3.18,6.38,6.38,0,0,0-1.86-1.94c-.82-.55-2-.91-2.49-1.75a4.08,4.08,0,0,0,.86-.85c-1.15.48-3.82.32-5.24.31a8.12,8.12,0,0,0,.76-2c-1.32,1.31-3.64,1.85-5.39,2.5a21.35,21.35,0,0,0-5,2.45,11.7,11.7,0,0,0-3,2.73,6.62,6.62,0,0,0-.66,1.38,5.87,5.87,0,0,0-.74,2.43h0v7.45c-1.29.41-2,2.65-1.65,5.21.35,2.35,1.51,4.19,2.75,4.48A14.82,14.82,0,0,0,61,191.72v3.93s-6.18,1.52-15.39,7.57a15.49,15.49,0,0,0-6.88,14.38,4.46,4.46,0,0,0,3.79,2.14H93.6a4.46,4.46,0,0,0,3.8-2.14A15.49,15.49,0,0,0,90.52,203.22Z"/></g><path class="cls-25" d="M103.53,184.63A35.55,35.55,0,1,1,68,149.08,35.54,35.54,0,0,1,103.53,184.63Z"/><line class="cls-26" x1="124.87" y1="197.63" x2="263.4" y2="197.63"/><path class="cls-27" d="M129.92,128.34l1.28-.35,0,.65c-1.2.34-2.5.68-3.4.92l-.12-.68.57-.13v-3.66h.44v3.55l.75-.2v-4h.45v1.3H131v.63h-1.1Zm1.82-4.28c.14,3,.54,5,1.12,5,.16,0,.24-.52.27-1.76a1.53,1.53,0,0,0,.4.37c-.08,1.61-.24,2.08-.71,2.08-.95,0-1.39-2.41-1.54-5.66h-3.49v-.66h3.46c0-.71,0-1.45,0-2.22h.47c0,.79,0,1.53,0,2.22h1.7v.66Zm-1-1.73H128.3v-.62h2.41Zm2.23.72a7.37,7.37,0,0,0-.95-1.37l.33-.36a7.41,7.41,0,0,1,1,1.32Z"/><path class="cls-27" d="M135.57,125.36a5.84,5.84,0,0,0-1.19-1l.23-.49a6.16,6.16,0,0,1,1.19,1Zm.51,1.2c-.33,1-.77,2.15-1.15,3l-.37-.46a29.61,29.61,0,0,0,1.2-3Zm-.19-3.72a5.65,5.65,0,0,0-1.19-1.06l.24-.49a5.74,5.74,0,0,1,1.19,1Zm4-.87a14.49,14.49,0,0,1-1.36,5.18,5.13,5.13,0,0,0,1.75,2,2.45,2.45,0,0,0-.31.55,5.24,5.24,0,0,1-1.74-2,5.9,5.9,0,0,1-2,2,2.5,2.5,0,0,0-.27-.57,5.33,5.33,0,0,0,2-2,17.37,17.37,0,0,1-1.25-4.61h-.27v-.66h3.09l.07,0Zm-2.74.55a15.64,15.64,0,0,0,1.1,4.06,12.87,12.87,0,0,0,1.13-4.06Z"/><path class="cls-27" d="M144.17,123.19v1.26h2.06v3.29c0,.4-.06.61-.26.73a2.83,2.83,0,0,1-1.12.12,3.15,3.15,0,0,0-.16-.69c.43,0,.81,0,.92,0s.15-.06.15-.19v-2.59h-1.59v4.55h-.47v-4.55h-1.49v3.48h-.47v-4.17h2v-1.26h-2.58v-.69h2.71c-.1-.36-.27-.85-.42-1.23l.45-.2a9.85,9.85,0,0,1,.5,1.39l-.08,0h2.52v.69Z"/><path class="cls-27" d="M150.11,126.66l0,.67c-.84.29-1.72.57-2.37.79l-.1-.7,1-.31v-4.06h-.95v-.69H150v.69h-.86V127Zm1.39-4.26c-.12.82-.26,1.74-.38,2.48h2.26s0,.23,0,.33c-.12,2.63-.25,3.65-.5,4a.67.67,0,0,1-.58.34,6.76,6.76,0,0,1-1.15,0,2.18,2.18,0,0,0-.18-.71,10.78,10.78,0,0,0,1.18.07c.15,0,.23,0,.31-.11s.31-1.15.43-3.24H150.5c.17-.81.37-2.08.51-3.15h-.93v-.69h3.46v.69Z"/><path class="cls-27" d="M154.48,121.65h2.23v.64h-1c-.1.77-.23,1.53-.39,2.22h1.26v4h-1.28v.75h-.4v-3.39a6,6,0,0,1-.33.76,6.51,6.51,0,0,0-.21-.74,12.07,12.07,0,0,0,.91-3.62h-.8Zm1.69,3.48h-.86v2.77h.86Zm4.05.53h-.71v4h-.46v-4h-1a7.89,7.89,0,0,1-.91,4.09,1.73,1.73,0,0,0-.35-.41,7.17,7.17,0,0,0,.81-3.68h-.7V125h.7v-2.69h-.52v-.66h3v.66h-.59V125h.71Zm-1.17-.66v-2.69h-1V125Z"/><path class="cls-27" d="M166,128.85c.35,0,.42-.3.47-1.52a1.29,1.29,0,0,0,.46.31c-.08,1.4-.23,1.9-.9,1.9h-1.4c-.71,0-.92-.27-.92-1.37v-1h-1.56v.57h-.49v-5.27h2.05v-1.34h.5v1.34h2.1v4.7h-2.1v1c0,.54.07.66.45.66Zm-3.85-5.68v1.34h1.56v-1.34Zm1.56,3.33v-1.34h-1.56v1.34Zm.5-3.33v1.34h1.63v-1.34Zm1.63,3.33v-1.34h-1.63v1.34Z"/><path class="cls-27" d="M173.54,126h-2.6v2.8c0,.47-.08.68-.32.79a3.19,3.19,0,0,1-1.25.13,3.4,3.4,0,0,0-.2-.71c.52,0,1,0,1.12,0s.17-.06.17-.23V126h-2.62v-.69h2.62v-1.35a8.18,8.18,0,0,0,1.59-1.48h-3.58v-.69h4.1l.1,0,.35.4a10,10,0,0,1-2.08,2.17v1h2.6Z"/><path class="cls-27" d="M176.6,126.74c-.11-.31-.37-.92-.59-1.39v4.34h-.47v-4.15a11.83,11.83,0,0,1-.92,2.45,3.9,3.9,0,0,0-.23-.63,11.41,11.41,0,0,0,1.09-2.94h-1v-.66h1.06v-1.42c-.29.09-.59.16-.87.22a3.58,3.58,0,0,0-.14-.54,7.29,7.29,0,0,0,2-.76l.28.56a4.24,4.24,0,0,1-.83.37v1.57h.93v.66H176v.17c.2.32.74,1.36.88,1.61Zm2.87.5v2.45H179v-2.34l-2.07.51-.08-.67,2.15-.5v-5.56h.46v5.45l.75-.17.07.63ZM178.25,126a7,7,0,0,0-1.12-1.37l.29-.41a6.86,6.86,0,0,1,1.14,1.32Zm.14-2.47a6.63,6.63,0,0,0-1-1.34l.3-.4a5.78,5.78,0,0,1,1,1.29Z"/><path class="cls-27" d="M183.24,125.87l-.77.34v2.65c0,.4-.07.59-.23.7a1.57,1.57,0,0,1-.86.12,3.93,3.93,0,0,0-.15-.64c.3,0,.57,0,.65,0s.13,0,.13-.18v-2.44l-.76.32-.14-.68c.26-.09.56-.2.9-.34v-2h-.82V123H182v-1.88h.46V123h.71v.66h-.71v1.85l.71-.3Zm3.38-1.05a7.94,7.94,0,0,1-1.29,3.09,4.13,4.13,0,0,0,1.64,1.21,3.07,3.07,0,0,0-.31.6,4.42,4.42,0,0,1-1.69-1.36,5.53,5.53,0,0,1-1.81,1.34,3,3,0,0,0-.26-.63,4.76,4.76,0,0,0,1.73-1.19,8.37,8.37,0,0,1-1-2.57h-.2v-.65h1.37v-1.4h-1.49v-.64h1.49v-1.48h.46v1.48h1.52v.64h-1.52v1.4h1l.08,0Zm-2.57.48a7.34,7.34,0,0,0,.93,2.16,6.29,6.29,0,0,0,1-2.16Z"/><path class="cls-27" d="M190.06,123c-.12.37-.25.74-.39,1.09h3.08v4.74c0,.42-.06.63-.26.74a2.77,2.77,0,0,1-1.11.12,3.06,3.06,0,0,0-.16-.68c.43,0,.81,0,.92,0s.15-.05.15-.19v-1h-2.73a4.07,4.07,0,0,1-.65,1.91,2.29,2.29,0,0,0-.33-.55,4.65,4.65,0,0,0,.59-2.67v-1.37a7.37,7.37,0,0,1-1,1.43,5.7,5.7,0,0,0-.3-.54,7.86,7.86,0,0,0,1.71-3.06H188v-.66h1.79c.11-.4.2-.8.28-1.21l.47.17c-.07.35-.15.71-.25,1h3.25V123Zm2.23,4.25v-1h-2.65v.28c0,.22,0,.45,0,.69Zm0-2.53h-2.65v.94h2.65Z"/><path class="cls-27" d="M196.72,121.76c-.19.76-.42,1.68-.63,2.42a4,4,0,0,1,.57,2,1.73,1.73,0,0,1-.25,1.08.57.57,0,0,1-.34.18,1.93,1.93,0,0,1-.42,0,2,2,0,0,0-.12-.62,1.18,1.18,0,0,0,.37,0,.28.28,0,0,0,.2-.08,1.09,1.09,0,0,0,.13-.65,3.56,3.56,0,0,0-.57-1.9c.19-.68.38-1.49.5-2.1h-.92v7.53h-.42v-8.17h1.52l.07,0Zm3.48,4.67a10.63,10.63,0,0,1-1.1,1.12,3.31,3.31,0,0,0,1.23,1.49,4.12,4.12,0,0,0-.33.59c-1-.69-1.58-2.13-1.9-4h-.61v3.08l1.12-.4a6,6,0,0,0,0,.64,6.35,6.35,0,0,0-1.63.74,2.3,2.3,0,0,0-.21-.57.82.82,0,0,0,.23-.66v-6.93h2.78v4.1h-1.29a7.94,7.94,0,0,0,.37,1.4,12.44,12.44,0,0,0,1-1.1Zm-2.71-4.26v1.12h1.87v-1.12Zm0,2.87h1.87v-1.17h-1.87Z"/><path class="cls-27" d="M203.43,121.65a13.46,13.46,0,0,1-1.86,4,5.19,5.19,0,0,0-.42-.57,10.5,10.5,0,0,0,1.77-3.66Zm1.79,4.46a31.84,31.84,0,0,1,1.43,3.15l-.47.38c-.09-.26-.21-.56-.35-.9-3.29.34-3.64.37-3.89.5a5.6,5.6,0,0,0-.18-.74c.17-.06.35-.37.59-.81A23.61,23.61,0,0,0,204,124l.52.33a26.11,26.11,0,0,1-1.86,4l2.94-.25c-.25-.58-.54-1.19-.79-1.68Zm.14-4.73A7.42,7.42,0,0,0,207,125a4,4,0,0,0-.37.65,8.49,8.49,0,0,1-1.67-3.56h-1.18v-.7Z"/><path class="cls-27" d="M213.2,128.67c0,.48-.06.72-.28.84a2.91,2.91,0,0,1-1.18.13,3.38,3.38,0,0,0-.17-.75c.44,0,.88,0,1,0s.15-.05.15-.23v-6.26h-4.57v-.67h5ZM212,124h-3.8v-.62H212Zm-2.93,4v.69h-.47V125h3v3Zm0-2.36v1.74h2v-1.74Z"/><path class="cls-28" d="M129.27,108.5l-1.56-5.7h.65l1.19,4.69h0l1.22-4.69h.62l1.22,4.69h0l1.19-4.69h.65l-1.56,5.7h-.53l-1.29-4.7h0l-1.28,4.7Z"/><path class="cls-28" d="M138.6,108.5H138v-.62h0a1.3,1.3,0,0,1-1.3.69,1.4,1.4,0,0,1-1.54-1.5v-2.93h.58v2.77a1,1,0,0,0,1.11,1.13,1.12,1.12,0,0,0,1.17-1.21v-2.69h.58Z"/><path class="cls-28" d="M140,102.5h.57v2.26h0a1.42,1.42,0,0,1,1.31-.7,1.49,1.49,0,0,1,1.56,1.63v2.81h-.57v-2.72a1.08,1.08,0,0,0-1.14-1.19,1.14,1.14,0,0,0-1.18,1.24v2.67H140Z"/><path class="cls-28" d="M145.86,108.57a1.3,1.3,0,0,1-1.43-1.31c0-.75.53-1.24,1.52-1.24h1.21v-.5a1,1,0,0,0-2-.18h-.54c0-.75.56-1.28,1.57-1.28a1.38,1.38,0,0,1,1.56,1.39v3h-.56v-.58h0A1.42,1.42,0,0,1,145.86,108.57Zm1.3-1.52v-.56H146c-.66,0-.94.31-.94.75a.86.86,0,0,0,1,.84A1.07,1.07,0,0,0,147.16,107.05Z"/><path class="cls-28" d="M149,104.14h.57v.62h0a1.42,1.42,0,0,1,1.31-.7,1.48,1.48,0,0,1,1.56,1.63v2.81h-.58v-2.72a1.07,1.07,0,0,0-1.13-1.19,1.14,1.14,0,0,0-1.18,1.24v2.67H149Z"/><path class="cls-28" d="M155.33,105.21c0-1.59.87-2.53,2.23-2.53s2.24.94,2.24,2.53v.88a2.58,2.58,0,0,1-.75,2l.78,1.08h-.67l-.57-.77a2.37,2.37,0,0,1-1,.22c-1.36,0-2.23-.94-2.23-2.53Zm.58.88c0,1.31.69,2,1.65,2a1.52,1.52,0,0,0,.69-.15l-.79-1.07h.69l.55.75a2.11,2.11,0,0,0,.52-1.53v-.88c0-1.31-.7-2-1.66-2s-1.65.69-1.65,2Z"/><path class="cls-28" d="M161.3,102.66a.4.4,0,0,1,0,.8.4.4,0,1,1,0-.8Zm-.29,1.48h.57v4.36H161Z"/><path class="cls-28" d="M164.13,108.57a1.3,1.3,0,0,1-1.43-1.31c0-.75.53-1.24,1.52-1.24h1.21v-.5a1,1,0,0,0-2-.18h-.54c.05-.75.56-1.28,1.57-1.28a1.38,1.38,0,0,1,1.56,1.39v3h-.56v-.58h0A1.42,1.42,0,0,1,164.13,108.57Zm1.3-1.52v-.56h-1.19c-.66,0-.94.31-.94.75a.86.86,0,0,0,1,.84A1.07,1.07,0,0,0,165.43,107.05Z"/><path class="cls-28" d="M170.8,106.09v.45a1.84,1.84,0,1,1-3.67,0v-.45a1.84,1.84,0,1,1,3.67,0Zm-3.1,0v.39c0,1,.47,1.55,1.26,1.55s1.26-.58,1.26-1.55v-.39c0-1-.47-1.55-1.26-1.55S167.7,105.15,167.7,106.12Z"/><path class="cls-28" d="M173.58,108.54l-.13.36c-.32.84-.72,1.12-1.38,1.12a1.58,1.58,0,0,1-.38,0v-.48H172a.79.79,0,0,0,.87-.65l.09-.29-1.63-4.43H172l1.28,3.7h0l1.26-3.7h.62Z"/><path class="cls-28" d="M177.05,108.57a1.29,1.29,0,0,1-1.43-1.31c0-.75.52-1.24,1.52-1.24h1.21v-.5a1,1,0,0,0-2-.18h-.55a1.59,1.59,0,0,1,3.13.11v3h-.56v-.58h0A1.42,1.42,0,0,1,177.05,108.57Zm1.3-1.52v-.56h-1.19c-.66,0-.94.31-.94.75a.86.86,0,0,0,1,.84A1.07,1.07,0,0,0,178.35,107.05Z"/><path class="cls-28" d="M180.22,104.14h.58v.62h0a1.4,1.4,0,0,1,1.3-.7,1.49,1.49,0,0,1,1.57,1.63v2.81h-.58v-2.72a1.07,1.07,0,0,0-1.13-1.19,1.14,1.14,0,0,0-1.18,1.24v2.67h-.58Z"/><path class="cls-28" d="M190.09,108.5h-3.34v-5.7h3.34v.54h-2.76v2h2.61v.53h-2.61V108h2.76Z"/><path class="cls-28" d="M191.29,102.5h.58v6h-.58Z"/><path class="cls-28" d="M193.06,106.54v-.49a1.75,1.75,0,0,1,1.76-2c1.11,0,1.76.8,1.76,2v.37h-2.94v.1c0,.92.46,1.52,1.23,1.52a1,1,0,0,0,1.06-.73h.59a1.57,1.57,0,0,1-1.67,1.22C193.73,108.57,193.06,107.78,193.06,106.54ZM196,106h0a1.19,1.19,0,1,0-2.36,0H196Z"/><path class="cls-28" d="M197.54,106.06a1.77,1.77,0,0,1,1.77-2,1.53,1.53,0,0,1,1.64,1.32h-.58a1,1,0,0,0-1-.79c-.77,0-1.23.55-1.23,1.5v.45c0,.93.48,1.51,1.24,1.51a1,1,0,0,0,1-.72H201a1.51,1.51,0,0,1-1.65,1.24,1.79,1.79,0,0,1-1.78-2Z"/><path class="cls-28" d="M202.4,103.05H203v1.09h.93v.49H203v2.75c0,.53.19.67.74.67h.22v.47a1.42,1.42,0,0,1-.36,0c-1,0-1.17-.38-1.17-1.21v-2.71h-.61v-.49h.61Z"/><path class="cls-28" d="M205,104.14h.58v.59h0a1.15,1.15,0,0,1,1.12-.66l.27,0v.54a1.47,1.47,0,0,0-.33,0c-.79,0-1.07.52-1.07,1.2v2.69H205Z"/><path class="cls-28" d="M211.32,106.09v.45a1.84,1.84,0,1,1-3.67,0v-.45a1.84,1.84,0,1,1,3.67,0Zm-3.09,0v.39c0,1,.47,1.55,1.26,1.55s1.25-.58,1.25-1.55v-.39c0-1-.47-1.55-1.25-1.55S208.23,105.15,208.23,106.12Z"/><path class="cls-28" d="M212.48,104.14h.58v.62h0a1.43,1.43,0,0,1,1.31-.7,1.48,1.48,0,0,1,1.56,1.63v2.81h-.57v-2.72a1.08,1.08,0,0,0-1.14-1.19,1.13,1.13,0,0,0-1.17,1.24v2.67h-.58Z"/><path class="cls-28" d="M217.54,102.66a.4.4,0,1,1-.4.4A.4.4,0,0,1,217.54,102.66Zm-.28,1.48h.57v4.36h-.57Z"/><path class="cls-28" d="M219,106.06a1.77,1.77,0,0,1,1.77-2,1.53,1.53,0,0,1,1.64,1.32h-.58a1,1,0,0,0-1-.79c-.77,0-1.23.55-1.23,1.5v.45c0,.93.48,1.51,1.24,1.51a1,1,0,0,0,1-.72h.58a1.52,1.52,0,0,1-1.66,1.24,1.79,1.79,0,0,1-1.78-2Z"/><path class="cls-28" d="M129.49,117v-5.17h-1.78v-.53h4.13v.53h-1.78V117Z"/><path class="cls-28" d="M131.63,115.08v-.5a1.75,1.75,0,0,1,1.76-2c1.11,0,1.76.8,1.76,2V115h-2.94v.1c0,.92.46,1.52,1.23,1.52a1,1,0,0,0,1.06-.72h.59a1.57,1.57,0,0,1-1.67,1.22A1.78,1.78,0,0,1,131.63,115.08Zm2.94-.59h0a1.19,1.19,0,1,0-2.36,0h2.36Z"/><path class="cls-28" d="M136.11,114.59a1.77,1.77,0,0,1,1.77-2,1.52,1.52,0,0,1,1.64,1.31h-.58a1,1,0,0,0-1-.79c-.77,0-1.23.56-1.23,1.51v.45c0,.92.48,1.5,1.24,1.5a1,1,0,0,0,1-.71h.57a1.51,1.51,0,0,1-1.65,1.24,1.8,1.8,0,0,1-1.78-2Z"/><path class="cls-28" d="M140.63,111h.58v2.27h0a1.37,1.37,0,0,1,1.3-.7,1.49,1.49,0,0,1,1.57,1.63V117h-.58v-2.73a1.07,1.07,0,0,0-1.13-1.18,1.12,1.12,0,0,0-1.18,1.23V117h-.58Z"/><path class="cls-28" d="M145.37,112.67H146v.63h0a1.41,1.41,0,0,1,1.31-.7,1.48,1.48,0,0,1,1.56,1.63V117h-.57v-2.73a1.07,1.07,0,0,0-1.13-1.18,1.13,1.13,0,0,0-1.18,1.23V117h-.58Z"/><path class="cls-28" d="M153.6,114.62v.46a1.84,1.84,0,1,1-3.67,0v-.46a1.84,1.84,0,1,1,3.67,0Zm-3.09,0v.39c0,1,.47,1.54,1.26,1.54S153,116,153,115.05v-.39c0-1-.48-1.55-1.26-1.55S150.51,113.69,150.51,114.66Z"/><path class="cls-28" d="M154.79,111h.58v6h-.58Z"/><path class="cls-28" d="M160.23,114.62v.46a1.84,1.84,0,1,1-3.67,0v-.46a1.84,1.84,0,1,1,3.67,0Zm-3.09,0v.39c0,1,.47,1.54,1.26,1.54s1.26-.58,1.26-1.54v-.39c0-1-.47-1.55-1.26-1.55S157.14,113.69,157.14,114.66Z"/><path class="cls-28" d="M164.26,117v-.76h0A1.4,1.4,0,0,1,163,117a1.75,1.75,0,0,1-1.75-2v-.42a1.74,1.74,0,0,1,1.75-2,1.43,1.43,0,0,1,1.3.73h0v-.66h.56V117a1.63,1.63,0,0,1-1.81,1.64c-1,0-1.62-.53-1.71-1.25h.59a1.06,1.06,0,0,0,1.13.75A1.1,1.1,0,0,0,164.26,117Zm-2.47-2.36v.31c0,.94.47,1.53,1.25,1.53s1.22-.59,1.22-1.52v-.32c0-.92-.48-1.52-1.22-1.52S161.79,113.67,161.79,114.63Z"/><path class="cls-28" d="M168,117.08l-.13.35c-.32.85-.72,1.12-1.38,1.12a2.34,2.34,0,0,1-.38,0V118l.32,0a.79.79,0,0,0,.87-.65l.09-.3-1.63-4.43h.64l1.28,3.7h0l1.26-3.7h.62Z"/><path class="cls-28" d="M172.39,114.62c0,1.23.55,2,1.62,2a1.32,1.32,0,0,0,1.47-1.25h.58a1.88,1.88,0,0,1-2.05,1.78c-1.43,0-2.2-1-2.2-2.55v-.81c0-1.58.78-2.58,2.19-2.58a1.9,1.9,0,0,1,2.05,1.86h-.58a1.37,1.37,0,0,0-1.47-1.33c-1.05,0-1.61.78-1.61,2Z"/><path class="cls-28" d="M180.67,114.62v.46a1.84,1.84,0,1,1-3.67,0v-.46a1.84,1.84,0,1,1,3.67,0Zm-3.1,0v.39c0,1,.48,1.54,1.27,1.54s1.25-.58,1.25-1.54v-.39c0-1-.47-1.55-1.25-1.55S177.57,113.69,177.57,114.66Z"/><path class="cls-28" d="M181.83,112.67h.57v.57h0a1.21,1.21,0,0,1,1.13-.64,1.25,1.25,0,0,1,1.28.74h0a1.37,1.37,0,0,1,1.34-.74,1.35,1.35,0,0,1,1.46,1.46v3h-.57v-2.86a1,1,0,0,0-1-1.05,1,1,0,0,0-1.05,1.11V117h-.57v-2.81a1,1,0,0,0-1-1.1,1,1,0,0,0-1,1.12V117h-.57Z"/><path class="cls-28" d="M189.58,116.4h0v2.08H189v-5.81h.55v.67h0a1.53,1.53,0,0,1,1.33-.74,1.77,1.77,0,0,1,1.71,2v.49a1.78,1.78,0,0,1-1.73,2A1.43,1.43,0,0,1,189.58,116.4ZM192,115v-.4c0-1-.45-1.53-1.19-1.53s-1.27.64-1.27,1.52V115c0,.92.49,1.55,1.28,1.55S192,116.06,192,115Z"/><path class="cls-28" d="M194.92,117.11a1.3,1.3,0,0,1-1.43-1.32c0-.75.52-1.23,1.52-1.24h1.21v-.49a.89.89,0,0,0-1-1,.88.88,0,0,0-1,.77h-.55a1.59,1.59,0,0,1,3.13.12V117h-.56v-.59h0A1.42,1.42,0,0,1,194.92,117.11Zm1.3-1.53V115H195c-.66,0-.94.32-.94.76a.86.86,0,0,0,1,.83A1.07,1.07,0,0,0,196.22,115.58Z"/><path class="cls-28" d="M198.09,112.67h.58v.63h0a1.38,1.38,0,0,1,1.3-.7,1.49,1.49,0,0,1,1.57,1.63V117H201v-2.73a1.07,1.07,0,0,0-1.13-1.18,1.13,1.13,0,0,0-1.18,1.23V117h-.58Z"/><path class="cls-28" d="M204.46,117.08l-.14.35c-.32.85-.72,1.12-1.38,1.12a2.13,2.13,0,0,1-.37,0V118l.31,0a.79.79,0,0,0,.87-.65l.1-.3-1.63-4.43h.64l1.27,3.7h0l1.27-3.7H206Z"/><path class="cls-28" d="M211.83,117h-3.29v-5.7h.58v5.17h2.71Z"/><path class="cls-28" d="M213,111.19a.41.41,0,1,1-.4.4A.4.4,0,0,1,213,111.19Zm-.29,1.48h.58V117h-.58Z"/><path class="cls-28" d="M214.69,112.67h.57v.57h0a1.21,1.21,0,0,1,1.13-.64,1.23,1.23,0,0,1,1.27.74h0a1.37,1.37,0,0,1,1.34-.74,1.35,1.35,0,0,1,1.46,1.46v3H220v-2.86a1,1,0,0,0-1-1.05,1,1,0,0,0-1.05,1.11V117h-.57v-2.81a1,1,0,0,0-1-1.1,1,1,0,0,0-1,1.12V117h-.57Z"/><path class="cls-28" d="M222.16,111.19a.41.41,0,1,1,0,.81.41.41,0,0,1,0-.81Zm-.29,1.48h.58V117h-.58Z"/><path class="cls-28" d="M224.08,111.58h.57v1.09h.93v.49h-.93v2.75c0,.54.19.68.74.68l.22,0v.48a2.41,2.41,0,0,1-.36,0c-1,0-1.17-.38-1.17-1.21v-2.71h-.61v-.49h.61Z"/><path class="cls-28" d="M226.43,115.08v-.5a1.75,1.75,0,0,1,1.76-2c1.11,0,1.76.8,1.76,2V115H227v.1c0,.92.46,1.52,1.23,1.52a1,1,0,0,0,1.06-.72h.59a1.57,1.57,0,0,1-1.66,1.22A1.79,1.79,0,0,1,226.43,115.08Zm2.94-.59h0a1.19,1.19,0,1,0-2.36,0h2.36Z"/><path class="cls-28" d="M234,113.33h0V111h.58v6H234v-.7h0a1.42,1.42,0,0,1-1.32.76c-1.12,0-1.74-.81-1.74-2v-.48a1.78,1.78,0,0,1,1.74-2A1.43,1.43,0,0,1,234,113.33Zm-2.46,1.31v.43c0,1,.52,1.52,1.22,1.52S234,116,234,115.07v-.43c0-.9-.48-1.53-1.27-1.53S231.49,113.61,231.49,114.64Z"/><path d="M109.69,131.09v-2.91a3.41,3.41,0,0,0,0-6.82h-4.45v-2.92h4.45a6.33,6.33,0,1,1,0,12.65"/><polyline points="102.82 116.1 90.48 128.44 89.64 127.6 101.97 115.27"/><path d="M96.85,100.94l.84-1.29a16.91,16.91,0,0,0-19.11,27.89l-3.41,3.4,1.4,1.4,16.48-16.48-1.39-1.4-12,12a15.38,15.38,0,0,1,17.18-25.5Z"/><polyline class="cls-29" points="97.8 111.14 93.05 115.86 91.65 114.46 96.38 109.73"/><polygon class="cls-29" points="108.9 110.02 108.89 110.01 109.73 109.17 111.79 111.23 110.95 112.07 108.89 110.02 108.9 110.02"/><polygon class="cls-30" points="109.72 109.17 108.89 108.33 103.37 113.87 97.78 108.33 96.37 109.73 102.81 116.1 103.36 115.55 103.36 115.56 109.72 109.17"/><rect x="107.68" y="113.06" width="8.63" height="1.91"/><path class="cls-30" d="M119.4,114a1.05,1.05,0,1,1-1.05-1,1,1,0,0,1,1.05,1"/><line x1="102.81" y1="116.1" x2="101.97" y2="115.27"/></svg>