<svg id="Layer_1" data-name="Layer 1" xmlns="http://www.w3.org/2000/svg" viewBox="0 0 221.8 190.88"><path d="M115.53,57.57a9.07,9.07,0,0,0-3-6.79L98.12,38A9.07,9.07,0,0,0,84,48.76a36.6,36.6,0,0,0,4.39,72.93,9.08,9.08,0,0,0,0-18.15,18.45,18.45,0,0,1-4.17-36.42A9.07,9.07,0,0,0,92.1,80.59h0a9.05,9.05,0,0,0,6-2.29c.33-.29,1-.91,7.49-7.27l7-6.78a9.08,9.08,0,0,0,2.94-6.68Zm0,0"/><path d="M170.06,108.38a36.64,36.64,0,0,0-36.6-36.6,9.08,9.08,0,0,0,0,18.15,18.45,18.45,0,0,1,4.17,36.42,9.06,9.06,0,0,0-7.93-13.47,9,9,0,0,0-6,2.29c-.34.29-1,.91-7.5,7.27-2.59,2.52-6.48,6.31-7,6.77a9.07,9.07,0,0,0,.12,13.48l14.35,12.79a9.07,9.07,0,0,0,14.17-10.77,36.65,36.65,0,0,0,32.21-36.33Zm0,0"/></svg>